<?xml version="1.0" encoding="utf-8"?>
<!-- Generator: Adobe Illustrator 26.0.2, SVG Export Plug-In . SVG Version: 6.00 Build 0)  -->
<svg version="1.1" id="Layer_1" xmlns="http://www.w3.org/2000/svg" xmlns:xlink="http://www.w3.org/1999/xlink" x="0px" y="0px"
	 viewBox="0 0 502.5 102.1" style="enable-background:new 0 0 502.5 102.1;" xml:space="preserve">
<style type="text/css">
	.st0{fill:#FFFFFF;}
</style>
<g>
	<g>
		<path class="st0" d="M0,98.7c2,0.6,4.2,1.1,6.3,1.1c3.6,0,6.5-1.3,6.5-6.2V70.3h3.1v23c0,5.1-2,8.7-9.2,8.7
			c-2.1,0-4.2-0.4-6.1-0.7L0,98.7z"/>
		<path class="st0" d="M38.2,87.3L38.2,87.3c-3,3.5-14.5,2.4-14.5,8.7c0,1.8,1.5,4.1,6.1,4.1c1.9,0,3.7-0.4,5.4-1l-0.6,2.2
			c-1.6,0.4-3.3,0.6-6.1,0.6c-5.5,0-7.8-3.3-7.8-6.2c0-5.6,6.9-6.8,11.9-8.1c2.3-0.6,5.5-1.5,5.5-4.4c0-3.2-3.8-3.7-6.3-3.7
			c-2.9,0-5.9,0.6-8.7,1.9l0.4-2.6c2.7-0.7,5.4-1.2,8.3-1.2c5.5,0,9.1,1.6,9.1,5.8v17.8h-2.9V87.3z"/>
		<path class="st0" d="M65.7,80.7c-1.6-0.5-3.2-0.7-4.8-0.7c-7.8,0-11.6,4.3-11.6,11.1c0,5.2,3,8.9,8.2,8.9c4.7,0,8.2-3.4,8.2-10
			V80.7z M65.7,97L65.7,97c-1.5,3-4.4,5.1-8.8,5.1c-6.2,0-10.5-4.4-10.5-10.6c0-8.6,5-13.5,14.2-13.5c1.7,0,3.4,0.3,5.1,0.5v-8.1
			h2.9v31.2h-2.9V97z"/>
		<polygon class="st0" points="71.9,78.4 74.9,78.4 83.2,99.2 83.3,99.2 90.4,78.4 93.6,78.4 100.2,99.2 100.3,99.2 108.5,78.4 
			111.5,78.4 101.9,101.5 98.3,101.5 91.9,81.2 91.8,81.2 85,101.5 81.4,101.5 		"/>
		<path class="st0" d="M130.3,87.3L130.3,87.3c-3.1,3.5-14.5,2.4-14.5,8.7c0,1.8,1.5,4.1,6.1,4.1c1.9,0,3.7-0.4,5.4-1l-0.5,2.2
			c-1.6,0.4-3.3,0.6-6.1,0.6c-5.5,0-7.8-3.3-7.8-6.2c0-5.6,6.9-6.8,11.9-8.1c2.3-0.6,5.5-1.5,5.5-4.4c0-3.2-3.8-3.7-6.3-3.7
			c-2.9,0-5.9,0.6-8.7,1.9l0.4-2.6c2.7-0.7,5.5-1.2,8.3-1.2c5.5,0,9.1,1.6,9.1,5.8v17.8h-2.9V87.3z"/>
		<rect x="153.5" y="70.3" class="st0" width="2.9" height="31.2"/>
		<path class="st0" d="M166.2,83.3L166.2,83.3c1.7-3.9,5.3-5.3,9.6-5.3c5,0,9.3,1.8,9.3,7.8v15.8h-2.9V85.5c0-2.5-1.8-5.3-7.2-5.3
			c-5,0-8.8,2.7-8.8,10.5v10.9h-2.9V78.4h2.9V83.3z"/>
		<polygon class="st0" points="188.2,78.4 191.3,78.4 199.5,99.2 199.6,99.2 207.8,78.4 211,78.4 201.1,101.5 197.8,101.5 		"/>
		<path class="st0" d="M231.2,87c0-4.7-2.7-7.2-6.9-7.2c-4.7,0-7.8,2.8-8.4,7.2H231.2z M232.2,101.1c-2.2,0.6-4.5,1-7.6,1
			c-7.2,0-11.8-4.5-11.8-12.1c0-9.9,6.9-12.1,11.8-12.1c2.9,0,9.5,1.4,9.5,10.9h-18.4V90c0,5.1,2.3,10,8.9,10c4.8,0,5.7-0.6,8-1.4
			L232.2,101.1z"/>
		<path class="st0" d="M237.5,98.5c1.9,0.8,4.1,1.5,6.4,1.5c2.3,0,5.1-0.9,5.1-3.7c0-4.5-11-7.4-11-13.1c0-2.2,1.2-5.3,7.5-5.3
			c1.8,0,3.5,0.2,5.3,0.6l0.4,2.5c-1.8-0.8-3.6-1.1-5.3-1.1c-2.2,0-5,0.7-5,3.3c0,4.2,10.9,7.3,10.9,13.1c0,4-3.6,5.7-7.6,5.7
			c-2.3,0-4.5-0.4-6.3-0.9L237.5,98.5z"/>
		<path class="st0" d="M267.3,78.4v2.1h-6.5V97c0,0.9,0.5,3,3.3,3c1.2,0,2.4-0.4,3.7-0.8l-0.4,2.2c-1.3,0.4-2.6,0.6-4,0.6
			c-4.9,0-5.6-2.3-5.6-5.4V80.5h-3v-2.1h3v-4.2l2.9-0.6v4.8H267.3z"/>
		<path class="st0" d="M273.9,82.5L273.9,82.5c1.2-2.7,4.2-4.6,7.8-4.6c3.5,0,6.6,1.5,7.4,5h0.1c1.5-3.3,4.5-5,8.2-5
			c4.2,0,7.6,2,7.6,6.3v17.3h-2.9V85.2c0-2.5-1.5-5-5.6-5c-5.8,0-7.1,5.5-7.1,8.3v13.1h-2.9V85.2c0-2.5-1.5-5-5.5-5
			c-5.8,0-7.1,5.5-7.1,8.3v13.1H271V78.4h2.9V82.5z"/>
		<path class="st0" d="M328.7,87c0-4.7-2.7-7.2-6.9-7.2c-4.7,0-7.8,2.8-8.5,7.2H328.7z M329.6,101.1c-2.2,0.6-4.5,1-7.6,1
			c-7.2,0-11.8-4.5-11.8-12.1c0-9.9,6.9-12.1,11.8-12.1c2.9,0,9.5,1.4,9.5,10.9h-18.3V90c0,5.1,2.3,10,8.9,10c4.8,0,5.7-0.6,8-1.4
			L329.6,101.1z"/>
		<path class="st0" d="M339.1,83.3l0.1,0.1c1.6-4,5.2-5.4,9.5-5.4c5,0,9.3,1.8,9.3,7.8v15.8h-2.9V85.5c0-2.5-1.8-5.3-7.1-5.3
			c-5,0-8.9,2.7-8.9,10.5v10.9h-2.9V78.4h2.9V83.3z"/>
		<path class="st0" d="M374.7,78.4v2.1h-6.6V97c0,0.9,0.5,3,3.3,3c1.2,0,2.4-0.4,3.7-0.8l-0.4,2.2c-1.3,0.4-2.6,0.6-4,0.6
			c-4.8,0-5.5-2.3-5.5-5.4V80.5h-3v-2.1h3v-4.2l2.9-0.6v4.8H374.7z"/>
	</g>
	<g>
		<path class="st0" d="M276.4,22.6c3.3,0,5.7,1.3,6.9,3.8l0.8-2.9c-2.1-2.3-4.8-3.5-8.1-3.5c-6.3,0-10.1,3.8-10.1,10v7.6h15.3v9.7
			v0.1c0,7.6-7.9,8.3-12.4,8.4c-9.6,0.1-13.1-4.8-13.1-15.4l-2.8,0.9c0.9,10.5,3.5,17.3,16,17.4c8.3,0,14.9-2.2,15.2-11h-0.1V35
			l-15.2,0.1v-4.6C268.8,25.4,271.4,22.6,276.4,22.6z"/>
		<path class="st0" d="M299.9,21.1c-8,0-10.5,6.3-10.5,13c0,6.8,2.6,13,10.5,13c2.9,0,5.4-1,7.2-2.8c0,0,0.1,0,0.1,0.9
			c0.1,5.7-2.6,10.8-8.9,10.9c-3.9,0-6.8-1.4-6.8-1.4l1.3,2.7c0,0,2.3,1.1,5.5,1.1c8,0,11.8-5.6,11.8-13.5l0.3-11.6
			C310.6,26.9,307.2,21.1,299.9,21.1z M299.9,44.7c-6.4,0-7.7-5.5-7.7-10.6c0-5.1,1.2-10.5,7.7-10.5c6.4,0,7.7,5.4,7.7,10.5
			C307.6,39.2,306.3,44.7,299.9,44.7z"/>
		<path class="st0" d="M361.9,54.9c-1.1,0-1.9,0.8-1.9,1.9c0,1,0.8,1.9,1.9,1.9c1.1,0,2-0.8,2-1.9C363.8,55.7,362.9,54.9,361.9,54.9
			z"/>
		<path class="st0" d="M361,20.1c-4.9,0-8.2,1.9-11.5,4.9l2,2c2.8-2.6,5.2-4.3,9.4-4.3c10.8,0,10.8,9.6,10.8,17.4v4.5h-26.3h-2.4
			h-6.4V31.9c0-6.2-4.2-10-10.6-10c-2.8,0-5.7,1.2-7.7,3.5V30c0,0,1.9-5.6,7.7-5.6c4.9,0,7.6,2.8,7.6,8v12.2h-16.4l-1.6,2.5h27.4
			h2.4H375v-7C375,30.3,374,20.1,361,20.1z"/>
		<path class="st0" d="M17,46.2c0,3.3-0.8,6-2.3,8.1c-1.7,2.4-4.1,3.6-7.3,3.6c-2.6,0-5.1-0.5-7.3-1.5l1.3,2.9
			c1.8,0.8,3.8,1.2,6,1.2c4.1,0,7.3-1.3,9.5-4c2.1-2.6,3.2-6,3.2-10.5v-27L17,20V46.2z"/>
		<path class="st0" d="M91.6,10.8c1.4,0,2-0.7,2-2.1c0-1.4-0.7-2.1-2-2.1c-1.4,0-2.1,0.7-2.1,2.1C89.5,10.1,90.2,10.8,91.6,10.8z"/>
		<path class="st0" d="M99,10.8c1.4,0,2.1-0.7,2.1-2.1c0-1.4-0.7-2.1-2.1-2.1c-1.3,0-2,0.7-2,2.1C97,10.1,97.7,10.8,99,10.8z"/>
		<path class="st0" d="M95.3,4.8c1.4,0,2.1-0.7,2.1-2.1c0-1.3-0.7-2-2.1-2c-1.4,0-2.1,0.7-2.1,2C93.2,4.1,93.9,4.8,95.3,4.8z"/>
		<path class="st0" d="M114.2,10.8c1.4,0,2.1-0.7,2.1-2.1c0-1.4-0.7-2.1-2.1-2.1c-1.4,0-2.1,0.7-2.1,2.1
			C112.1,10.1,112.8,10.8,114.2,10.8z"/>
		<path class="st0" d="M121.8,10.8c1.4,0,2-0.7,2-2.1c0-1.4-0.7-2.1-2-2.1c-1.4,0-2.1,0.7-2.1,2.1C119.6,10.1,120.3,10.8,121.8,10.8
			z"/>
		<path class="st0" d="M177.3,37c0,5.7-2.7,8.6-8.1,8.6h-8.3V22.3l-3.1,1v22.3h-16.4V25.2l-3.1,1v19.3h-7.4h-2.5h-0.5
			c-5.4,0-8.2-2.8-8.2-8.3V19.1l-3.1,1V37c0,5.7-2.7,8.6-8.2,8.6h-0.2h-2.8h-0.2c-5.4,0-8.2-2.8-8.2-8.3l0-18.2l-3.1,1V37
			c0,5.7-2.7,8.6-8.2,8.6h-0.4h-2.6H82c-5.6,0.1-8.3-2.8-8.3-8.6c-0.2-3.6-1.4-6.5-3.4-8.6c-2-2.1-4.9-3.2-8.5-3.2
			c-4,0-7,1.3-9.1,3.9c-1.9,2.3-2.8,5.4-2.9,9.4c-0.5,4.7-3.2,7.1-8.1,7.1h-1.1H39h-4.8c-3,0-4.6-1.6-4.6-4.9v-34l-3.1,1v33.1
			c0,5,2.4,7.5,7.1,7.5H39h1.6h1.5c3.7,0,6.5-1.1,8.4-3.4c1.5,5.2,5.3,7.9,11.2,7.9c2.9,0,5.4-0.8,7.5-2.3c2-1.5,3.4-3.6,4-6.3
			c2.2,2.8,5.2,4.2,9.2,4.2h0.3h2.6h0.8c4.4,0,7.6-1.6,9.5-4.8c1.9,3.2,5,4.8,9.2,4.8h0.6h2.8h0.6c4.5,0,7.6-1.6,9.5-4.8
			c1.9,3.2,5,4.8,9.2,4.8h0.9h2.5h9.3h1.2h28.3c3.4,0,6.1-1,8-2.9c1.9-1.9,2.9-4.5,2.9-7.8V19.1l-3.1,1V37z M61.7,50
			c-5.7,0-8.6-3.7-8.6-11c0-7.4,2.8-11,8.6-11c5.8,0,8.7,3.7,8.7,11C70.4,46.3,67.5,50,61.7,50z"/>
		<path class="st0" d="M195.1,60.3c0-1.8,0.7-2.8,2.1-2.8c0.7,0,1.4,0.3,1.9,0.9l1.2-1.5c-0.8-0.8-1.7-1.2-2.8-1.2
			c-2.9,0-4.4,1.5-4.4,4.5V61h-1.7l-1.4,1.8h10.9V61h-5.8V60.3z"/>
		<path class="st0" d="M233.5,37c0,5.7-2.7,8.6-8.1,8.6h-1h-3c-5.5,0-8.2-2.8-8.2-8.3V6.7l-3.2,1V37c0,5.7-2.7,8.6-8.1,8.6h-4.1V10
			l-3.1,1v34.5h-7.3l-1.4,2.7h17.5c3.6,0,6.3-1.6,8.2-4.8c1.9,3.2,5,4.8,9.2,4.8h0.4h3h1.4c3.3,0,6-1,7.9-3c2-2,3-4.6,3-7.7V6.7
			l-3.1,1V37z"/>
	</g>
</g>
<g>
	<g>
		<path class="st0" d="M398.3,0v101.2h44.1c0-0.2,0.1-0.5,0.1-0.8c0.1-0.9,0.2-2.2,0.2-3.8c0.1-1.6,0-3.4-0.2-5.4
			c-0.1-2-0.5-4.2-1-6.5c-1.4-6-3.9-11.1-7.5-15.2c-3.6-4.1-8.2-7.3-13.9-9.4c-0.3-0.1-0.5-0.3-0.6-0.6c-0.1-0.3-0.2-0.5,0-0.8
			c0.1-0.3,0.3-0.5,0.6-0.6c0.3-0.1,0.6-0.1,0.9,0c3,1.2,5.7,2.5,8,4.1c2.3,1.6,4.3,3.3,6,5.1c1.7,1.8,3.1,3.7,4.3,5.7
			c1.1,2,2.1,3.9,2.8,5.9c0.7,1.9,1.3,3.8,1.7,5.5c0.6,2.4,0.9,4.6,1.1,6.7c0.1,2.1,0.2,4,0.2,5.6c-0.1,1.6-0.1,2.9-0.3,3.9
			c0,0.2,0,0.4-0.1,0.6h11.6c0-0.2-0.1-0.4-0.1-0.6c-0.1-1-0.2-2.3-0.3-3.9c0-1.6,0-3.5,0.2-5.6c0.2-2.1,0.5-4.4,1-6.7
			c0.4-1.8,1-3.6,1.7-5.6c0.7-1.9,1.7-3.9,2.8-5.9c1.2-1.9,2.6-3.8,4.3-5.7c1.7-1.8,3.7-3.5,6-5.1c2.3-1.6,5-2.9,8-4.1
			c0.3-0.1,0.6-0.1,0.9,0c0.3,0.1,0.5,0.3,0.6,0.6c0.1,0.3,0.1,0.6,0,0.8c-0.1,0.3-0.3,0.5-0.6,0.6c-5.7,2.2-10.3,5.3-13.9,9.4
			c-3.6,4.1-6.1,9.2-7.5,15.2c-0.5,2.3-0.8,4.5-1,6.5c-0.2,2-0.2,3.9-0.2,5.4c0,1.6,0.1,2.8,0.3,3.8c0,0.3,0,0.6,0.1,0.8h43.9V0
			H398.3z M446.4,60.9c-0.1,0.3-0.3,0.5-0.6,0.7c-0.3,0.2-0.6,0.2-0.9,0.1c-0.3-0.1-0.6-0.3-0.7-0.5c0-0.1-0.3-0.4-0.7-1.2
			c-0.4-0.7-1.1-1.7-2-2.8c-0.9-1.2-1.9-2.4-3.1-3.8c-1.2-1.4-2.6-2.7-4.1-4c-1.5-1.4-3.1-2.5-4.9-3.6c-1.8-1-3.6-1.9-5.6-2.4
			c-0.3-0.1-0.5-0.3-0.7-0.5c-0.1-0.3-0.2-0.5-0.1-0.8c0.1-0.3,0.3-0.5,0.6-0.7c0.2-0.1,0.5-0.2,0.9-0.1c2.1,0.5,4.1,1.4,6,2.5
			c1.9,1.1,3.6,2.3,5.2,3.7c1.6,1.4,3,2.8,4.3,4.2c1.2,1.4,2.4,2.7,3.3,4c0.9,1.3,1.6,2.3,2.1,3c0.5,0.8,0.8,1.3,0.9,1.4
			C446.5,60.4,446.5,60.7,446.4,60.9z M452.9,38.7c-0.4,0.8-0.7,1.4-0.9,1.9c-0.2,0.5-0.3,0.7-0.3,0.7c-0.1,0.3-0.3,0.5-0.6,0.6
			c-0.3,0.1-0.5,0.1-0.7,0.1c-0.2,0-0.5,0-0.6-0.1c-0.3-0.1-0.5-0.3-0.6-0.6c0,0-0.1-0.3-0.3-0.7c-0.2-0.5-0.5-1.1-0.9-1.9
			c-0.4-0.8-0.8-1.6-1.4-2.5c-0.6-1-1.2-1.9-2-2.8c-0.7-0.9-1.6-1.8-2.5-2.6c-0.9-0.8-1.9-1.5-3-2c-0.3-0.1-0.5-0.4-0.6-0.6
			c-0.1-0.3-0.1-0.6,0.1-0.8c0.1-0.3,0.3-0.5,0.6-0.6c0.3-0.1,0.6-0.1,0.9,0c1.3,0.6,2.4,1.3,3.4,2.2c1,0.9,2,1.8,2.8,2.8
			c0.8,1,1.5,2,2.2,3c0.6,1,1.1,1.9,1.5,2.8c0.1,0.3,0.2,0.5,0.4,0.8c0.1-0.2,0.2-0.5,0.4-0.8c0.5-0.9,1-1.8,1.6-2.8
			c0.6-1,1.4-2,2.2-3c0.8-1,1.7-2,2.8-2.8c1-0.9,2.2-1.6,3.4-2.2c0.3-0.1,0.6-0.1,0.9,0c0.3,0.1,0.5,0.3,0.6,0.6
			c0.1,0.3,0.1,0.5,0.1,0.8c-0.1,0.3-0.3,0.5-0.6,0.6c-1.1,0.5-2.1,1.2-3,2c-0.9,0.8-1.7,1.7-2.5,2.6c-0.7,0.9-1.4,1.9-1.9,2.8
			C453.7,37,453.3,37.9,452.9,38.7z M478.6,42.9c-0.1,0.2-0.4,0.4-0.7,0.5c-2,0.5-3.8,1.3-5.5,2.4c-1.8,1-3.4,2.2-4.9,3.6
			c-1.5,1.3-2.9,2.7-4,4c-1.2,1.4-2.3,2.6-3.1,3.8c-0.9,1.2-1.5,2.1-2,2.8c-0.5,0.7-0.7,1.1-0.7,1.2c-0.2,0.2-0.4,0.4-0.7,0.5
			c-0.3,0.1-0.6,0.1-0.9-0.1c-0.3-0.2-0.5-0.4-0.6-0.7c-0.1-0.3,0-0.6,0.1-0.8c0.1-0.1,0.3-0.6,0.9-1.4c0.5-0.8,1.2-1.8,2.1-3
			c0.9-1.2,2.1-2.6,3.3-4c1.3-1.4,2.7-2.8,4.3-4.2c1.6-1.4,3.3-2.6,5.2-3.7c1.9-1.1,3.9-2,6-2.5c0.3-0.1,0.6,0,0.9,0.1
			c0.2,0.2,0.5,0.4,0.6,0.7C478.8,42.3,478.8,42.6,478.6,42.9z"/>
	</g>
</g>
</svg>
