<?xml version="1.0" encoding="UTF-8"?> <svg xmlns="http://www.w3.org/2000/svg" viewBox="0 0 283.5 132.7"><defs><style>.d{fill:#ffffff;}</style></defs><g id="a"></g><g id="b"><g id="c"><path class="d" d="M0,0V132.7H283.5V0H0ZM89,83.8c0,3.4-.7,6.5-2,9.2-1.3,2.8-3.2,5.1-5.6,7.1s-5.2,3.5-8.5,4.5c-3.3,1.1-7,1.6-10.9,1.6-6.3,0-12.1-1-17.4-3.1-5.3-2.1-10.3-5.3-15-9.6l5.6-6.6c4.2,3.8,8.3,6.6,12.6,8.4,4.2,1.9,9.1,2.8,14.6,2.8s9.7-1.3,12.9-3.8c3.2-2.5,4.8-5.8,4.8-9.7v-.2c0-1.8-.3-3.5-.9-4.9-.6-1.5-1.7-2.8-3.2-4s-3.6-2.3-6.3-3.3c-2.7-1-6.1-1.9-10.3-2.8-4.5-1-8.5-2.1-11.9-3.4s-6.2-2.8-8.4-4.6c-2.2-1.8-3.8-3.9-4.9-6.3-1.1-2.4-1.6-5.3-1.6-8.5v-.2c0-3.1,.6-6,1.9-8.6,1.3-2.6,3.1-4.9,5.4-6.9,2.3-1.9,5.1-3.4,8.3-4.5s6.6-1.6,10.4-1.6c5.8,0,10.9,.8,15.2,2.4,4.3,1.6,8.6,4.1,12.6,7.3l-5.2,6.9c-3.7-3-7.4-5.2-11.2-6.6-3.7-1.4-7.6-2-11.7-2-5.2,0-9.3,1.2-12.4,3.7-3,2.5-4.5,5.5-4.5,9.1v.2c0,1.9,.3,3.6,.9,5,.6,1.5,1.7,2.8,3.3,4.1,1.6,1.2,3.8,2.4,6.6,3.4s6.4,2,10.8,2.9c8.8,2,15.4,4.7,19.5,8.2,4.2,3.5,6.3,8.2,6.3,14.3v.1h.2Zm74.8-49.8h-26.6V105.1h-9V34h-26.6v-8.3h62.2v8.3Zm85.6,60.3c-3.7,3.3-8.3,6.2-13.7,8.6s-11.5,3.6-18.2,3.6c-6.3,0-11.9-1.1-16.8-3.2-4.9-2.1-9.2-5-12.7-8.7s-6.2-8-8-13c-1.9-4.9-2.8-10.3-2.8-15.9v-.2c0-5.4,1-10.6,2.9-15.6,1.9-4.9,4.6-9.3,8.1-13.1s7.6-6.8,12.5-9,10.3-3.3,16.3-3.3c3.3,0,6.4,.2,9.1,.7,2.8,.5,5.3,1.1,7.7,2s4.6,2,6.7,3.3c2.1,1.3,4.1,2.8,6.1,4.5l-5.8,6.8c-1.5-1.4-3.1-2.6-4.8-3.7-1.7-1.1-3.5-2-5.4-2.8s-4-1.4-6.3-1.9-4.9-.7-7.6-.7c-4.4,0-8.4,.9-12.1,2.6-3.7,1.7-6.9,4.1-9.5,7s-4.7,6.4-6.2,10.4c-1.5,4-2.3,8.1-2.3,12.5v.2c0,4.8,.7,9.1,2.2,13.1s3.6,7.5,6.3,10.4,6,5.3,9.9,6.9c3.9,1.7,8.2,2.5,13,2.5,4.5,0,8.8-.8,12.8-2.3s7.4-3.4,10.1-5.6v-19.7h-24.1v-8h32.8v31.6h-.2Z"></path></g></g></svg> 