<svg width="16" height="16" viewBox="0 0 16 16" fill="none" xmlns="http://www.w3.org/2000/svg">
<path d="M11.605 8.35509L5.10497 14.8551C5.05849 14.902 5.00319 14.9392 4.94226 14.9645C4.88133 14.9899 4.81598 15.003 4.74997 15.003C4.68396 15.003 4.61861 14.9899 4.55768 14.9645C4.49675 14.9392 4.44145 14.902 4.39497 14.8551C4.34811 14.8086 4.31091 14.7533 4.28552 14.6924C4.26014 14.6315 4.24707 14.5661 4.24707 14.5001C4.24707 14.4341 4.26014 14.3687 4.28552 14.3078C4.31091 14.2469 4.34811 14.1916 4.39497 14.1451L10.545 8.00009L4.39497 1.85509C4.30082 1.76094 4.24792 1.63324 4.24792 1.50009C4.24792 1.43416 4.26091 1.36888 4.28614 1.30797C4.31137 1.24706 4.34835 1.19171 4.39497 1.14509C4.44159 1.09847 4.49693 1.06149 4.55784 1.03626C4.61876 1.01103 4.68404 0.998047 4.74997 0.998047C4.88312 0.998047 5.01082 1.05094 5.10497 1.14509L11.605 7.64509C11.6518 7.69157 11.689 7.74687 11.7144 7.8078C11.7398 7.86873 11.7529 7.93409 11.7529 8.00009C11.7529 8.0661 11.7398 8.13145 11.7144 8.19238C11.689 8.25331 11.6518 8.30861 11.605 8.35509Z" fill="#d09458"/>
</svg>
