<svg width="24" height="25" viewBox="0 0 24 25" fill="none" xmlns="http://www.w3.org/2000/svg">
<g clip-path="url(#clip0_90_3168)">
<path d="M18.9677 15.2885C18.4763 14.7769 17.8837 14.5034 17.2556 14.5034C16.6326 14.5034 16.0348 14.7719 15.5232 15.2835L13.9226 16.8791C13.7909 16.8081 13.6592 16.7423 13.5326 16.6764C13.3502 16.5853 13.178 16.4991 13.0311 16.408C11.5317 15.4557 10.1691 14.2147 8.86229 12.6089C8.22912 11.8086 7.80362 11.1349 7.49464 10.4511C7.91 10.0712 8.29497 9.6761 8.6698 9.2962C8.81163 9.15437 8.95346 9.00747 9.09529 8.86564C10.159 7.80192 10.159 6.42414 9.09529 5.36041L7.71245 3.97757C7.55542 3.82054 7.39333 3.65845 7.24137 3.49636C6.93745 3.18231 6.61833 2.85812 6.28908 2.5542C5.79774 2.06792 5.21016 1.80959 4.59218 1.80959C3.97421 1.80959 3.3765 2.06792 2.86996 2.5542L2.85983 2.56433L1.13761 4.30175C0.489239 4.95012 0.119467 5.74031 0.0384214 6.65715C-0.0831474 8.13623 0.352474 9.51401 0.686788 10.4156C1.50738 12.6292 2.7332 14.6807 4.56179 16.8791C6.78042 19.5282 9.44987 21.6202 12.4992 23.0943C13.6643 23.6464 15.2193 24.2998 16.9567 24.4112C17.0631 24.4163 17.1745 24.4214 17.2759 24.4214C18.446 24.4214 19.4286 24.001 20.1986 23.1652C20.2036 23.155 20.2138 23.15 20.2188 23.1398C20.4822 22.8207 20.7862 22.532 21.1053 22.223C21.3231 22.0153 21.546 21.7975 21.7638 21.5696C22.2652 21.0478 22.5286 20.44 22.5286 19.817C22.5286 19.1889 22.2602 18.5861 21.7486 18.0795L18.9677 15.2885ZM20.7811 20.6224C20.776 20.6224 20.776 20.6274 20.7811 20.6224C20.5835 20.8351 20.3809 21.0276 20.1631 21.2403C19.8339 21.5544 19.4996 21.8836 19.1855 22.2534C18.6739 22.8005 18.0711 23.0588 17.2809 23.0588C17.2049 23.0588 17.1239 23.0588 17.0479 23.0537C15.5435 22.9575 14.1455 22.3699 13.0969 21.8684C10.2299 20.4805 7.71245 18.5101 5.62045 16.0129C3.89316 13.931 2.73826 12.0062 1.97339 9.9395C1.50231 8.67823 1.33009 7.69555 1.40607 6.76858C1.45672 6.17594 1.68466 5.6846 2.10509 5.26417L3.83238 3.53688C4.08058 3.30387 4.34398 3.17724 4.60231 3.17724C4.92143 3.17724 5.17977 3.36972 5.34186 3.53182L5.35705 3.54701C5.66604 3.83574 5.95983 4.13459 6.26882 4.45371C6.42585 4.6158 6.58794 4.77789 6.75003 4.94505L8.13287 6.3279C8.6698 6.86483 8.6698 7.36123 8.13287 7.89816C7.98598 8.04506 7.84415 8.19195 7.69725 8.33378C7.27176 8.7694 6.86653 9.17463 6.42585 9.56973C6.41572 9.57986 6.40558 9.58493 6.40052 9.59506C5.9649 10.0307 6.04594 10.4562 6.13712 10.7449L6.15232 10.7905C6.51196 11.6617 7.01849 12.4823 7.78843 13.4599L7.79349 13.465C9.19153 15.1872 10.6656 16.5295 12.2915 17.5578C12.4992 17.6895 12.712 17.7959 12.9146 17.8972C13.0969 17.9884 13.2692 18.0745 13.416 18.1657C13.4363 18.1758 13.4566 18.191 13.4768 18.2011C13.6491 18.2872 13.8111 18.3277 13.9783 18.3277C14.3987 18.3277 14.6621 18.0643 14.7482 17.9782L16.4806 16.2459C16.6528 16.0737 16.9263 15.866 17.2455 15.866C17.5595 15.866 17.8179 16.0635 17.9749 16.2358L17.985 16.2459L20.776 19.0369C21.2978 19.5536 21.2978 20.0854 20.7811 20.6224ZM12.9703 6.13035C14.2974 6.35322 15.503 6.98133 16.4654 7.94375C17.4278 8.90617 18.0509 10.1117 18.2788 11.4388C18.3345 11.7732 18.6232 12.0062 18.9525 12.0062C18.993 12.0062 19.0285 12.0011 19.069 11.996C19.4438 11.9353 19.692 11.5807 19.6313 11.2058C19.3577 9.60012 18.5979 8.13623 17.4379 6.97626C16.278 5.8163 14.8141 5.05649 13.2084 4.78296C12.8335 4.72218 12.484 4.97038 12.4182 5.34015C12.3523 5.70992 12.5955 6.06956 12.9703 6.13035ZM23.9723 11.0083C23.5215 8.36417 22.2754 5.95812 20.3607 4.04342C18.446 2.12871 16.0399 0.882629 13.3958 0.431812C13.026 0.365962 12.6765 0.619231 12.6107 0.989002C12.5499 1.36384 12.7981 1.71335 13.1729 1.7792C15.5334 2.17936 17.6862 3.29881 19.3982 5.00584C21.1103 6.71793 22.2247 8.87071 22.6249 11.2312C22.6806 11.5655 22.9693 11.7985 23.2986 11.7985C23.3391 11.7985 23.3746 11.7934 23.4151 11.7884C23.7849 11.7326 24.0381 11.3781 23.9723 11.0083Z" fill="#d09458"/>
</g>
<defs>
<clipPath id="clip0_90_3168">
<rect width="24" height="24" fill="white" transform="translate(0 0.421387)"/>
</clipPath>
</defs>
</svg>
