<svg xmlns="http://www.w3.org/2000/svg" version="1.1" xmlns:xlink="http://www.w3.org/1999/xlink" width="512" height="512" x="0" y="0" viewBox="0 0 512 512" style="enable-background:new 0 0 512 512" xml:space="preserve" class=""><g><circle cx="256" cy="256" r="206.57" fill="#F0F3F7" opacity="1" data-original="#f0f3f7" class=""></circle><path fill="#DFE7F4" d="M462.57 256c0 114.09-92.48 206.57-206.57 206.57V49.43c114.09 0 206.57 92.48 206.57 206.57z" opacity="1" data-original="#dfe7f4" class=""></path><path fill="#D09458" d="M412.67 99.33c-41.84-41.85-97.49-64.9-156.67-64.9S141.17 57.48 99.33 99.33c-41.85 41.84-64.9 97.49-64.9 156.67s23.05 114.83 64.9 156.67c41.84 41.85 97.49 64.9 156.67 64.9s114.83-23.05 156.67-64.9c41.85-41.84 64.9-97.49 64.9-156.67s-23.05-114.83-64.9-156.67zM256 447.57c-105.63 0-191.57-85.94-191.57-191.57S150.37 64.43 256 64.43 447.57 150.37 447.57 256 361.63 447.57 256 447.57z" opacity="1" data-original="#ff6826" class=""></path><path fill="#DFE7F4" d="M256 103.29c-84.21 0-152.71 68.5-152.71 152.71S171.79 408.71 256 408.71 408.71 340.21 408.71 256 340.21 103.29 256 103.29zm0 275.42c-67.67 0-122.71-55.04-122.71-122.71S188.33 133.29 256 133.29 378.71 188.33 378.71 256 323.67 378.71 256 378.71z" opacity="1" data-original="#dfe7f4" class=""></path><path fill="#C8D0E0" d="M256 408.71v-30c67.67 0 122.71-55.04 122.71-122.71S323.67 133.29 256 133.29v-30c84.21 0 152.71 68.5 152.71 152.71S340.21 408.71 256 408.71z" opacity="1" data-original="#c8d0e0" class=""></path><path fill="#A56C33" d="M477.57 256c0 59.18-23.05 114.83-64.9 156.67-41.84 41.85-97.49 64.9-156.67 64.9v-30c105.63 0 191.57-85.94 191.57-191.57S361.63 64.43 256 64.43v-30c59.18 0 114.83 23.05 156.67 64.9 41.85 41.84 64.9 97.49 64.9 156.67z" opacity="1" data-original="#e50057" class=""></path><circle cx="256" cy="256" r="34.43" fill="#D09458" opacity="1" data-original="#ff6826" class=""></circle><path fill="#A56C33" d="M290.43 256c0 19.01-15.42 34.43-34.43 34.43v-68.86c19.01 0 34.43 15.41 34.43 34.43z" opacity="1" data-original="#e50057" class=""></path><path fill="#D09458" d="M241 0h30v167.71h-30zM241 344.29h30V512h-30z" opacity="1" data-original="#ff6826" class=""></path><g fill="#E50057"><path d="M256 0h15v167.71h-15zM256 344.29h15V512h-15zM344.286 241H512v30H344.286z" fill="#A56C33" opacity="1" data-original="#e50057" class=""></path></g><path fill="#D09458" d="M0 241h167.714v30H0z" opacity="1" data-original="#ff6826" class=""></path></g></svg>