<svg width="24" height="25" viewBox="0 0 24 25" fill="none" xmlns="http://www.w3.org/2000/svg">
<g clip-path="url(#clip0_90_3184)">
<path d="M12 5.29639C11.1842 5.29639 10.3866 5.53831 9.70827 5.99157C9.02992 6.44484 8.50121 7.08907 8.189 7.84282C7.87679 8.59656 7.7951 9.42596 7.95426 10.2261C8.11343 11.0263 8.50629 11.7613 9.08319 12.3382C9.66008 12.9151 10.3951 13.308 11.1953 13.4671C11.9954 13.6263 12.8248 13.5446 13.5786 13.2324C14.3323 12.9202 14.9766 12.3915 15.4298 11.7131C15.8831 11.0348 16.125 10.2372 16.125 9.42139C16.1238 8.32773 15.6888 7.27922 14.9155 6.50589C14.1422 5.73256 13.0937 5.29758 12 5.29639ZM12 12.7964C11.3325 12.7964 10.68 12.5984 10.125 12.2276C9.56994 11.8567 9.13735 11.3296 8.88191 10.7129C8.62646 10.0962 8.55963 9.41764 8.68985 8.76296C8.82008 8.10827 9.14151 7.5069 9.61352 7.0349C10.0855 6.5629 10.6869 6.24146 11.3416 6.11124C11.9963 5.98101 12.6749 6.04785 13.2916 6.30329C13.9083 6.55874 14.4354 6.99132 14.8062 7.54634C15.1771 8.10135 15.375 8.75387 15.375 9.42139C15.374 10.3162 15.0181 11.1741 14.3854 11.8068C13.7527 12.4395 12.8948 12.7954 12 12.7964Z" fill="#d09458"/>
<path d="M12 0.421387C9.61387 0.424067 7.32625 1.37314 5.639 3.06039C3.95175 4.74763 3.00268 7.03526 3 9.42139C3 15.8823 11.3839 23.9763 11.7409 24.3175C11.8107 24.3842 11.9035 24.4214 12 24.4214C12.0965 24.4214 12.1893 24.3842 12.2591 24.3175C12.6161 23.9763 21 15.8823 21 9.42139C20.9973 7.03526 20.0482 4.74763 18.361 3.06039C16.6738 1.37314 14.3861 0.424067 12 0.421387ZM12 23.5191C10.5728 22.0874 3.75 14.9504 3.75 9.42139C3.75 7.23335 4.61919 5.13493 6.16637 3.58776C7.71354 2.04058 9.81196 1.17139 12 1.17139C14.188 1.17139 16.2865 2.04058 17.8336 3.58776C19.3808 5.13493 20.25 7.23335 20.25 9.42139C20.25 14.9478 13.4272 22.0866 12 23.5191Z" fill="#d09458"/>
</g>
<defs>
<clipPath id="clip0_90_3184">
<rect width="24" height="24" fill="white" transform="translate(0 0.421387)"/>
</clipPath>
</defs>
</svg>
