<svg width="24" height="25" viewBox="0 0 24 25" fill="none" xmlns="http://www.w3.org/2000/svg">
<path d="M22 3.42139H2.00002C0.896953 3.42139 0 4.31834 0 5.4214V19.4214C0 20.5244 0.896953 21.4214 2.00002 21.4214H22C23.103 21.4214 24 20.5244 24 19.4214V5.4214C24 4.31834 23.103 3.42139 22 3.42139ZM2.00002 4.42137H22C22.0737 4.42137 22.1386 4.44823 22.2078 4.46342C20.4763 6.04812 14.7348 11.3006 12.7256 13.1108C12.5684 13.2524 12.315 13.4214 12 13.4214C11.6851 13.4214 11.4317 13.2524 11.274 13.1104C9.26494 11.3004 3.52317 6.04765 1.79194 4.46351C1.86122 4.44832 1.92628 4.42137 2.00002 4.42137ZM0.999984 19.4214V5.4214C0.999984 5.32343 1.02952 5.23456 1.05595 5.14503C2.3812 6.35796 6.38733 10.0228 8.98495 12.385C6.39577 14.6091 2.38861 18.4082 1.05281 19.682C1.02923 19.597 0.999984 19.5138 0.999984 19.4214ZM22 20.4214H2.00002C1.92014 20.4214 1.84912 20.3936 1.77455 20.3757C3.15488 19.0599 7.18753 15.2389 9.7312 13.0628C10.0219 13.3267 10.313 13.5901 10.6045 13.853C11.0166 14.2251 11.499 14.4214 12 14.4214C12.501 14.4214 12.9834 14.2251 13.395 13.8535C13.6867 13.5904 13.9779 13.3268 14.2688 13.0628C16.8126 15.2387 20.8447 19.0594 22.2255 20.3757C22.1509 20.3936 22.08 20.4214 22 20.4214ZM23 19.4214C23 19.5138 22.9708 19.597 22.9472 19.682C21.6109 18.4076 17.6042 14.6089 15.0151 12.3851C17.6128 10.0229 21.6183 6.35834 22.944 5.14493C22.9705 5.23446 23 5.32339 23 5.42136V19.4214Z" fill="#d09458"/>
</svg>
