<svg width="32" height="33" viewBox="0 0 32 33" fill="none" xmlns="http://www.w3.org/2000/svg">
<g clip-path="url(#clip0_90_1957)">
<path d="M1.82324 8.60645C1.82324 5.71238 4.17918 3.35645 7.07324 3.35645V2.91895C3.93637 2.91895 1.38574 5.46957 1.38574 8.60645H1.82324ZM12.7607 8.60645H12.3232C12.3232 11.5005 9.9673 13.8564 7.07324 13.8564V14.2939C10.2101 14.2939 12.7607 11.7433 12.7607 8.60645ZM7.51074 2.91895H7.94824V3.35645H7.51074V2.91895ZM6.19824 13.8564H6.63574V14.2939H6.19824V13.8564Z" fill="#d09458"/>
<path d="M11.4482 8.60645C11.4482 6.19363 9.48605 4.23145 7.07324 4.23145C4.66043 4.23145 2.69824 6.19363 2.69824 8.60645C2.69824 11.0193 4.66043 12.9814 7.07324 12.9814C9.48605 12.9814 11.4482 11.0193 11.4482 8.60645ZM3.13574 8.60645C3.13574 6.43426 4.90105 4.66895 7.07324 4.66895C9.24543 4.66895 11.0107 6.43426 11.0107 8.60645C11.0107 10.7786 9.24543 12.5439 7.07324 12.5439C4.90105 12.5439 3.13574 10.7786 3.13574 8.60645Z" fill="#d09458"/>
<path d="M9.28043 10.7283C9.42043 10.5839 9.54512 10.4243 9.65231 10.2558L9.28262 10.0196C9.19074 10.1639 9.08356 10.2996 8.96324 10.4243C8.46668 10.9449 7.79293 11.2314 7.07106 11.2314C5.62293 11.2314 4.44606 10.0546 4.44606 8.60645C4.44606 8.17988 4.54668 7.77301 4.74356 7.39457C4.81793 7.2502 4.90543 7.11457 5.00387 6.99207L4.66043 6.72082C4.54668 6.8652 4.44387 7.02488 4.35637 7.19332C4.12895 7.62962 4.01038 8.11443 4.01074 8.60645C4.01074 10.2952 5.38449 11.6689 7.07324 11.6689C7.91543 11.6689 8.70074 11.3343 9.28043 10.7283ZM6.06043 6.1827C6.38199 6.04926 6.72324 5.98145 7.07324 5.98145C8.52137 5.98145 9.69824 7.15832 9.69824 8.60645C9.69824 8.81207 9.67418 9.01551 9.62824 9.21238C9.59762 9.34801 9.55387 9.48363 9.49699 9.61488L9.89949 9.78551C9.96512 9.63238 10.0154 9.4727 10.0526 9.31301C10.1073 9.08332 10.1357 8.84707 10.1357 8.60645C10.1357 6.9177 8.76199 5.54395 7.07324 5.54395C6.66637 5.54395 6.26824 5.6227 5.89418 5.7802C5.61856 5.89613 5.35824 6.05363 5.11981 6.25051L5.39981 6.58738C5.60543 6.41676 5.82856 6.28113 6.06481 6.1827H6.06043Z" fill="#d09458"/>
<path d="M5.91586 8.67L5.60742 8.97844L6.48242 9.85344C6.52398 9.895 6.57867 9.91688 6.63773 9.91688H6.65086C6.71211 9.9125 6.77117 9.88406 6.81055 9.83594L8.56055 7.64844L8.2193 7.375L6.62242 9.37219L5.92023 8.67H5.91586Z" fill="#d09458"/>
<path d="M30.0711 9.92905C30.0711 8.14021 28.1101 6.9861 26.5387 7.91341V5.62252C26.5387 4.9346 26.2708 4.28744 25.7839 3.79981C24.1738 2.19222 21.3847 3.31913 21.3847 5.62252V10.3076L18.6962 5.86157C17.9936 4.65027 16.426 4.20278 15.1782 4.92234C13.9074 5.65598 13.5384 7.28638 14.2392 8.44928L16.9339 12.9429H13.5927C12.2125 12.9429 11.0946 14.0226 11.0197 15.3743C10.4698 15.5628 10.0732 16.0851 10.0732 16.6984V25.182C10.0732 29.0717 13.2377 32.2362 17.1275 32.2362H19.4844C20.8918 32.2362 22.5017 31.6164 23.6832 30.4361C23.9655 30.1538 24.2326 29.8567 24.4836 29.5461C24.5212 29.4995 24.5493 29.4459 24.5662 29.3885C24.5831 29.331 24.5886 29.2708 24.5822 29.2112C24.5759 29.1516 24.5578 29.0939 24.5292 29.0413C24.5005 28.9887 24.4618 28.9423 24.4152 28.9047C24.3686 28.867 24.315 28.839 24.2576 28.822C24.2001 28.8051 24.1399 28.7997 24.0803 28.806C24.0207 28.8124 23.963 28.8304 23.9104 28.859C23.8578 28.8877 23.8114 28.9264 23.7738 28.973C21.5854 31.6839 19.7535 31.324 17.1275 31.324C13.7408 31.324 10.9855 28.5687 10.9855 25.182V16.6984C10.9855 16.43 11.2036 16.2115 11.4718 16.2115C11.5135 16.2115 11.5498 16.2097 11.6032 16.1955C11.6997 16.2314 13.2832 16.2554 14.0415 17.8362C14.3529 18.4933 14.3151 18.9833 14.3151 19.5261C14.3151 20.4625 14.5153 21.3881 14.9022 22.2408C15.2892 23.0936 15.8539 23.8537 16.5586 24.4704C17.8652 25.6148 19.9322 25.0291 20.4329 23.3493C20.5651 22.9044 20.5319 22.8204 20.5313 20.4469C20.5299 19.4279 20.1014 18.4608 19.3527 17.7793C18.7997 17.2751 18.7529 17.1898 18.5348 17.1854C18.4973 17.1845 18.0276 17.1848 14.7276 17.1848C14.1222 16.1293 13.0697 15.4704 11.9392 15.3293C12.034 14.4952 12.7423 13.8553 13.5928 13.8553H18.0843C19.4731 13.8553 20.779 14.3962 21.7612 15.3785L25.3955 19.0128C25.7238 19.5811 25.6511 19.4209 25.7229 19.6831C26.2814 21.7373 26.1881 23.8528 25.5407 25.7595C25.5018 25.874 25.51 25.9993 25.5635 26.1078C25.617 26.2163 25.7114 26.2991 25.8259 26.338C25.8827 26.3572 25.9426 26.3651 26.0024 26.3612C26.0621 26.3573 26.1206 26.3417 26.1743 26.3152C26.228 26.2887 26.276 26.2519 26.3155 26.2069C26.355 26.1618 26.3852 26.1095 26.4044 26.0527C26.866 24.693 27.0679 23.2414 26.9817 21.7635C30.2635 9.51856 30.0711 10.368 30.0711 9.92905ZM19.3887 19.3574C19.6942 20.0494 19.619 20.4351 19.6196 22.6674C19.6196 23.9308 18.1215 24.6266 17.1594 23.784C16.5526 23.2529 16.0662 22.5983 15.7329 21.8639C15.3997 21.1296 15.2273 20.3325 15.2273 19.5261C15.2273 18.995 15.247 18.6435 15.1028 18.097H18.3473C18.7983 18.5083 19.1239 18.7584 19.3887 19.3574ZM23.9617 3.95774C24.8754 3.95774 25.6264 4.69566 25.6264 5.62252V17.5887C24.6205 15.8468 24.5568 15.7361 24.5601 15.7422C24.5549 15.7326 24.6638 15.9214 22.2969 11.8212V5.62252C22.2969 4.70455 23.0437 3.95774 23.9617 3.95774ZM17.9975 12.9429L15.0236 7.9836C14.3838 6.86979 15.199 5.48888 16.4649 5.48888C17.024 5.48888 17.5695 5.76283 17.9133 6.32982C22.1557 13.3456 20.8821 11.1948 23.6328 15.96L22.4061 14.7334C21.2761 13.6033 19.7799 12.9429 17.9975 12.9429ZM29.1097 10.3C26.3516 20.5904 26.6438 19.5938 26.6029 19.4429C26.5111 19.1078 26.5387 20.3252 26.5387 9.14016C27.4173 7.81028 29.5304 8.72551 29.1097 10.3Z" fill="#946642"/>
<path d="M25.4606 27.1745C25.4077 27.1464 25.3498 27.1289 25.2902 27.1232C25.2306 27.1175 25.1704 27.1235 25.1131 27.141C25.0558 27.1585 25.0026 27.1872 24.9563 27.2253C24.9101 27.2634 24.8719 27.3102 24.8438 27.3631C24.8121 27.4227 24.7796 27.4818 24.7462 27.5405C24.5728 27.8455 24.7955 28.2221 25.1423 28.2221C25.4467 28.2221 25.5471 27.9834 25.6492 27.7913C25.706 27.6845 25.718 27.5595 25.6826 27.4439C25.6473 27.3282 25.5674 27.2313 25.4606 27.1745Z" fill="#946642"/>
</g>
<defs>
<clipPath id="clip0_90_1957">
<rect width="32" height="32" fill="white" transform="translate(0 0.421387)"/>
</clipPath>
</defs>
</svg>
