<svg width="32" height="33" viewBox="0 0 32 33" fill="none" xmlns="http://www.w3.org/2000/svg">
<path d="M8.16073 31.6097C7.42303 31.6094 6.71558 31.3165 6.19359 30.7952C5.67159 30.2739 5.37767 29.5669 5.37629 28.8292V6.77817C5.37629 6.66348 5.42185 6.55349 5.50295 6.47239C5.58405 6.3913 5.69404 6.34574 5.80873 6.34574C5.92341 6.34574 6.03341 6.3913 6.1145 6.47239C6.1956 6.55349 6.24116 6.66348 6.24116 6.77817V28.8292C6.24873 29.3334 6.45432 29.8143 6.81352 30.1682C7.17273 30.522 7.65672 30.7204 8.16094 30.7204C8.66517 30.7204 9.14916 30.522 9.50836 30.1682C9.86757 29.8143 10.0732 29.3334 10.0807 28.8292V26.7665C10.0807 26.6518 10.1263 26.5418 10.2074 26.4607C10.2885 26.3796 10.3985 26.3341 10.5132 26.3341H27.6461V4.1252C27.6456 3.61616 27.4431 3.12813 27.0831 2.76818C26.7232 2.40824 26.2352 2.20577 25.7261 2.2052H3.23273C3.11804 2.2052 3.00805 2.15964 2.92695 2.07854C2.84585 1.99744 2.80029 1.88745 2.80029 1.77276C2.80029 1.65808 2.84585 1.54809 2.92695 1.46699C3.00805 1.38589 3.11804 1.34033 3.23273 1.34033H25.7261C26.4645 1.34113 27.1724 1.6348 27.6944 2.15689C28.2165 2.67898 28.5102 3.38685 28.511 4.1252V26.7665C28.511 26.8812 28.4654 26.9912 28.3843 27.0723C28.3032 27.1534 28.1933 27.1989 28.0786 27.1989H10.9456V28.8292C10.9441 29.5669 10.6501 30.274 10.128 30.7952C9.60595 31.3165 8.89846 31.6094 8.16073 31.6097Z" fill="#946642"/>
<path d="M27.9171 31.6106H8.16144C8.04675 31.6106 7.93676 31.5651 7.85566 31.484C7.77456 31.4029 7.729 31.2929 7.729 31.1782C7.729 31.0635 7.77456 30.9535 7.85566 30.8724C7.93676 30.7913 8.04675 30.7458 8.16144 30.7458C8.6699 30.7458 9.15761 30.5441 9.51755 30.1849C9.8775 29.8258 10.0803 29.3386 10.0814 28.8301V26.7674C10.0814 26.6527 10.127 26.5427 10.2081 26.4616C10.2892 26.3805 10.3992 26.335 10.5139 26.335H30.2648C30.3795 26.335 30.4895 26.3805 30.5706 26.4616C30.6517 26.5427 30.6972 26.6527 30.6972 26.7674V28.8301C30.6965 29.5673 30.4034 30.274 29.8822 30.7953C29.361 31.3166 28.6543 31.6098 27.9171 31.6106ZM10.1783 30.7458H27.9171C28.425 30.7452 28.9118 30.5432 29.2709 30.184C29.63 29.8249 29.8319 29.3379 29.8324 28.8301V27.1998H10.9463V28.8301C10.9469 29.5438 10.6717 30.2301 10.1783 30.7458Z" fill="#946642"/>
<path d="M14.2786 23.8633C14.1997 23.8633 14.1223 23.8418 14.0547 23.801C13.9872 23.7602 13.9321 23.7018 13.8954 23.6319L13.2632 22.4276L11.9685 22.8414C11.8895 22.8668 11.8049 22.8689 11.7247 22.8475C11.6446 22.8261 11.5723 22.7821 11.5164 22.7208C11.4606 22.6594 11.4236 22.5833 11.4098 22.5015C11.396 22.4197 11.4061 22.3356 11.4388 22.2594L13.284 17.9381C13.329 17.8326 13.4141 17.7493 13.5205 17.7065C13.6269 17.6637 13.746 17.665 13.8515 17.71C13.957 17.755 14.0404 17.8401 14.0831 17.9465C14.1259 18.053 14.1247 18.172 14.0796 18.2775L12.6055 21.7296L13.3454 21.4935C13.4423 21.4624 13.547 21.4665 13.6413 21.505C13.7355 21.5435 13.8131 21.614 13.8604 21.7041L14.2375 22.4224L15.8193 18.7035C15.8405 18.6497 15.8722 18.6008 15.9126 18.5595C15.953 18.5182 16.0012 18.4854 16.0545 18.4631C16.1078 18.4408 16.165 18.4293 16.2228 18.4295C16.2805 18.4296 16.3377 18.4413 16.3908 18.4639C16.444 18.4865 16.4921 18.5195 16.5323 18.561C16.5725 18.6025 16.6039 18.6516 16.6248 18.7055C16.6457 18.7593 16.6556 18.8168 16.6539 18.8746C16.6522 18.9323 16.639 18.9891 16.615 19.0416L14.676 23.5999C14.644 23.6751 14.5914 23.7398 14.5242 23.7863C14.457 23.8328 14.378 23.8594 14.2963 23.8628L14.2786 23.8633ZM19.1534 23.8633H19.1356C19.0538 23.86 18.9746 23.8335 18.9073 23.787C18.8399 23.7404 18.7871 23.6757 18.7551 23.6004L16.8217 19.0404C16.7769 18.9347 16.7758 18.8156 16.8188 18.7092C16.8618 18.6028 16.9453 18.5178 17.0509 18.473C17.1565 18.4282 17.2756 18.4271 17.382 18.4701C17.4884 18.5131 17.5734 18.5966 17.6182 18.7022L19.1962 22.4211L19.5728 21.7037C19.6202 21.6137 19.6977 21.5433 19.7918 21.5047C19.8859 21.4662 19.9906 21.4621 20.0874 21.4931L20.8264 21.7292L19.354 18.2866C19.33 18.2342 19.3168 18.1775 19.315 18.1198C19.3133 18.0622 19.3231 18.0047 19.3439 17.9509C19.3647 17.8971 19.396 17.848 19.436 17.8065C19.4761 17.765 19.524 17.7319 19.5771 17.7092C19.6301 17.6865 19.6871 17.6747 19.7448 17.6743C19.8025 17.674 19.8596 17.6852 19.9129 17.7073C19.9662 17.7294 20.0145 17.7619 20.055 17.803C20.0955 17.844 20.1274 17.8927 20.1488 17.9463L21.9923 22.2594C22.0249 22.3356 22.0349 22.4195 22.0211 22.5012C22.0074 22.5829 21.9704 22.6589 21.9147 22.7202C21.859 22.7815 21.7869 22.8255 21.7069 22.847C21.6269 22.8685 21.5424 22.8666 21.4634 22.8414L20.1687 22.4276L19.5365 23.6319C19.4998 23.7018 19.4447 23.7602 19.3772 23.801C19.3097 23.8418 19.2323 23.8633 19.1534 23.8633Z" fill="#d09458"/>
<path d="M16.7178 19.5288C16.4828 19.5288 16.2545 19.4503 16.0692 19.3057L15.3794 18.769C15.3383 18.7389 15.2874 18.7253 15.2367 18.731L14.3719 18.8512C14.1389 18.8845 13.9015 18.8386 13.6977 18.721C13.4939 18.6034 13.3354 18.4209 13.2476 18.2026L12.9202 17.3943C12.9107 17.3702 12.8965 17.3482 12.8784 17.3296C12.8603 17.311 12.8386 17.2963 12.8147 17.2862L12.0065 16.9589C11.7883 16.8708 11.606 16.7123 11.4884 16.5085C11.3709 16.3047 11.3249 16.0675 11.3578 15.8346L11.4776 14.9697C11.4813 14.9445 11.4797 14.9188 11.4731 14.8942C11.4665 14.8696 11.4549 14.8466 11.4391 14.8266L10.9025 14.1347C10.7578 13.9494 10.6792 13.7211 10.6792 13.486C10.6792 13.251 10.7578 13.0226 10.9025 12.8374L11.4383 12.1455C11.454 12.1254 11.4656 12.1023 11.4723 12.0776C11.479 12.053 11.4806 12.0272 11.4772 12.0019L11.3574 11.137C11.3245 10.9041 11.3704 10.6669 11.488 10.4631C11.6055 10.2593 11.7879 10.1008 12.006 10.0127L12.8147 9.68494C12.8384 9.67545 12.86 9.66125 12.878 9.64319C12.8961 9.62512 12.9103 9.60358 12.9198 9.57986L13.2476 8.77121C13.3355 8.55298 13.494 8.37051 13.6978 8.25293C13.9016 8.13536 14.1389 8.08946 14.3719 8.12256L15.2367 8.24277C15.2621 8.24631 15.2878 8.24469 15.3125 8.238C15.3372 8.23131 15.3603 8.2197 15.3803 8.20385L16.0696 7.66764C16.255 7.52324 16.4833 7.44482 16.7183 7.44482C16.9533 7.44482 17.1815 7.52324 17.3669 7.66764L18.0566 8.20429C18.0767 8.22005 18.0998 8.23159 18.1245 8.2382C18.1492 8.24482 18.1749 8.24637 18.2002 8.24277L19.0651 8.12256C19.298 8.08961 19.5352 8.13558 19.739 8.25314C19.9428 8.37069 20.1013 8.55307 20.1894 8.77121L20.5167 9.57986C20.5265 9.60363 20.5408 9.62523 20.559 9.64335C20.5772 9.66147 20.5989 9.67576 20.6227 9.68537L21.4309 10.0127C21.6489 10.101 21.8311 10.2596 21.9487 10.4633C22.0662 10.667 22.1123 10.9041 22.0796 11.137L21.9593 12.0019C21.9527 12.0528 21.9665 12.1043 21.9978 12.145L22.534 12.8369C22.6789 13.0221 22.7577 13.2505 22.7577 13.4856C22.7577 13.7207 22.6789 13.9491 22.534 14.1342L21.9974 14.824C21.9663 14.8648 21.9527 14.9162 21.9593 14.9671L22.0796 15.832C22.1123 16.0649 22.0662 16.302 21.9487 16.5057C21.8311 16.7094 21.6489 16.868 21.4309 16.9563L20.6205 17.2862C20.5968 17.2959 20.5752 17.3102 20.557 17.3284C20.5388 17.3465 20.5244 17.368 20.5146 17.3917L20.1877 18.2C20.0994 18.418 19.9408 18.6002 19.7371 18.7177C19.5334 18.8353 19.2962 18.8813 19.0633 18.8486L18.1985 18.7284C18.1474 18.7218 18.0958 18.7356 18.0549 18.7669L17.3656 19.3031C17.1809 19.4485 16.9529 19.528 16.7178 19.5288ZM15.261 17.8644C15.4957 17.8648 15.7238 17.9428 15.9096 18.0862L16.6015 18.6233C16.6351 18.6493 16.6763 18.6633 16.7187 18.6633C16.7611 18.6633 16.8023 18.6493 16.8359 18.6233L17.5252 18.0867C17.6368 18.0003 17.7645 17.9371 17.9008 17.9006C18.0371 17.8641 18.1793 17.8552 18.3191 17.8743L19.184 17.9941C19.2262 18.0011 19.2695 17.9932 19.3066 17.9718C19.3436 17.9505 19.3721 17.9169 19.3872 17.8769L19.7146 17.0683C19.768 16.9372 19.8471 16.8182 19.9472 16.7182C20.0473 16.6181 20.1664 16.5391 20.2975 16.4858L21.1062 16.1584C21.1455 16.1425 21.1785 16.1138 21.1997 16.077C21.2209 16.0402 21.2293 15.9973 21.2233 15.9552L21.1036 15.0903C21.0844 14.9508 21.0932 14.8088 21.1295 14.6727C21.1658 14.5366 21.2289 14.4091 21.315 14.2977L21.8521 13.6058C21.8782 13.5724 21.8923 13.5312 21.8923 13.4888C21.8923 13.4464 21.8782 13.4053 21.8521 13.3719L21.3159 12.68C21.2297 12.5689 21.1665 12.4418 21.1299 12.3061C21.0933 12.1704 21.0841 12.0288 21.1027 11.8895L21.2225 11.0246C21.2284 10.9825 21.2201 10.9397 21.1988 10.9028C21.1776 10.866 21.1447 10.8373 21.1053 10.8214L20.2966 10.4936C20.1656 10.4403 20.0466 10.3614 19.9466 10.2614C19.8465 10.1615 19.7675 10.0425 19.7142 9.91153L19.3864 9.10288C19.3707 9.06323 19.3421 9.03002 19.3052 9.00867C19.2683 8.98732 19.2253 8.97907 19.1831 8.98526L18.3183 9.10548C18.1786 9.12463 18.0365 9.11572 17.9003 9.07926C17.7641 9.0428 17.6366 8.97953 17.5252 8.89315L16.8333 8.3565C16.7998 8.33034 16.7586 8.31613 16.7161 8.31613C16.6736 8.31613 16.6324 8.33034 16.5989 8.3565L15.907 8.89272C15.7954 8.97873 15.6678 9.04181 15.5317 9.07832C15.3956 9.11483 15.2536 9.12406 15.1139 9.10548L14.2491 8.98526C14.2069 8.97953 14.1641 8.98798 14.1273 9.00928C14.0905 9.03057 14.0619 9.0635 14.0458 9.10288L13.718 9.91153C13.6647 10.0425 13.5858 10.1614 13.4858 10.2613C13.3858 10.3613 13.2669 10.4403 13.136 10.4936L12.3273 10.8209C12.288 10.837 12.255 10.8656 12.2337 10.9024C12.2124 10.9392 12.204 10.9821 12.2097 11.0242L12.3299 11.889C12.3491 12.0288 12.34 12.1711 12.3034 12.3073C12.2668 12.4436 12.2034 12.5712 12.1167 12.6826L11.5849 13.3727C11.5587 13.4062 11.5445 13.4474 11.5445 13.4899C11.5445 13.5324 11.5587 13.5736 11.5849 13.6071L12.1215 14.299C12.2078 14.4104 12.2711 14.538 12.3075 14.6742C12.344 14.8103 12.3529 14.9524 12.3338 15.0921L12.2136 15.9569C12.2077 15.9991 12.2161 16.042 12.2374 16.0788C12.2587 16.1156 12.2918 16.1443 12.3312 16.1602L13.1399 16.488C13.2708 16.5413 13.3897 16.6203 13.4896 16.7203C13.5896 16.8202 13.6686 16.9391 13.7219 17.07L14.0497 17.8791C14.0658 17.9183 14.0944 17.9511 14.1311 17.9723C14.1678 17.9935 14.2105 18.0019 14.2525 17.9963L15.1174 17.8765C15.1649 17.8692 15.2129 17.8652 15.261 17.8644Z" fill="#946642"/>
<path d="M16.7178 19.5288C16.4828 19.5288 16.2545 19.4503 16.0692 19.3057L15.3794 18.769C15.3383 18.7389 15.2874 18.7253 15.2367 18.731L14.3719 18.8512C14.1389 18.8845 13.9015 18.8386 13.6977 18.721C13.4939 18.6034 13.3354 18.4209 13.2476 18.2026L12.9202 17.3943C12.9107 17.3702 12.8965 17.3482 12.8784 17.3296C12.8603 17.311 12.8386 17.2963 12.8147 17.2862L12.0065 16.9589C11.7883 16.8708 11.606 16.7123 11.4884 16.5085C11.3709 16.3047 11.3249 16.0675 11.3578 15.8346L11.4776 14.9697C11.4813 14.9445 11.4797 14.9188 11.4731 14.8942C11.4665 14.8696 11.4549 14.8466 11.4391 14.8266L10.9025 14.1347C10.7578 13.9494 10.6792 13.7211 10.6792 13.486C10.6792 13.251 10.7578 13.0226 10.9025 12.8374L11.4383 12.1455C11.454 12.1254 11.4656 12.1023 11.4723 12.0776C11.479 12.053 11.4806 12.0272 11.4772 12.0019L11.3574 11.137C11.3245 10.9041 11.3704 10.6669 11.488 10.4631C11.6055 10.2593 11.7879 10.1008 12.006 10.0127L12.8147 9.68494C12.8384 9.67545 12.86 9.66125 12.878 9.64319C12.8961 9.62512 12.9103 9.60358 12.9198 9.57986L13.2476 8.77121C13.3355 8.55298 13.494 8.37051 13.6978 8.25293C13.9016 8.13536 14.1389 8.08946 14.3719 8.12256L15.2367 8.24277C15.2621 8.24631 15.2878 8.24469 15.3125 8.238C15.3372 8.23131 15.3603 8.2197 15.3803 8.20385L16.0696 7.66764C16.255 7.52324 16.4833 7.44482 16.7183 7.44482C16.9533 7.44482 17.1815 7.52324 17.3669 7.66764L18.0566 8.20429C18.0767 8.22005 18.0998 8.23159 18.1245 8.2382C18.1492 8.24482 18.1749 8.24637 18.2002 8.24277L19.0651 8.12256C19.298 8.08961 19.5352 8.13558 19.739 8.25314C19.9428 8.37069 20.1013 8.55307 20.1894 8.77121L20.5167 9.57986C20.5265 9.60363 20.5408 9.62523 20.559 9.64335C20.5772 9.66147 20.5989 9.67576 20.6227 9.68537L21.4309 10.0127C21.6489 10.101 21.8311 10.2596 21.9487 10.4633C22.0662 10.667 22.1123 10.9041 22.0796 11.137L21.9593 12.0019C21.9527 12.0528 21.9665 12.1043 21.9978 12.145L22.534 12.8369C22.6789 13.0221 22.7577 13.2505 22.7577 13.4856C22.7577 13.7207 22.6789 13.9491 22.534 14.1342L21.9974 14.824C21.9663 14.8648 21.9527 14.9162 21.9593 14.9671L22.0796 15.832C22.1123 16.0649 22.0662 16.302 21.9487 16.5057C21.8311 16.7094 21.6489 16.868 21.4309 16.9563L20.6205 17.2862C20.5968 17.2959 20.5752 17.3102 20.557 17.3284C20.5388 17.3465 20.5244 17.368 20.5146 17.3917L20.1877 18.2C20.0994 18.418 19.9408 18.6002 19.7371 18.7177C19.5334 18.8353 19.2962 18.8813 19.0633 18.8486L18.1985 18.7284C18.1474 18.7218 18.0958 18.7356 18.0549 18.7669L17.3656 19.3031C17.1809 19.4485 16.9529 19.528 16.7178 19.5288ZM15.261 17.8644C15.4957 17.8648 15.7238 17.9428 15.9096 18.0862L16.6015 18.6233C16.6351 18.6493 16.6763 18.6633 16.7187 18.6633C16.7611 18.6633 16.8023 18.6493 16.8359 18.6233L17.5252 18.0867C17.6368 18.0003 17.7645 17.9371 17.9008 17.9006C18.0371 17.8641 18.1793 17.8552 18.3191 17.8743L19.184 17.9941C19.2262 18.0011 19.2695 17.9932 19.3066 17.9718C19.3436 17.9505 19.3721 17.9169 19.3872 17.8769L19.7146 17.0683C19.768 16.9372 19.8471 16.8182 19.9472 16.7182C20.0473 16.6181 20.1664 16.5391 20.2975 16.4858L21.1062 16.1584C21.1455 16.1425 21.1785 16.1138 21.1997 16.077C21.2209 16.0402 21.2293 15.9973 21.2233 15.9552L21.1036 15.0903C21.0844 14.9508 21.0932 14.8088 21.1295 14.6727C21.1658 14.5366 21.2289 14.4091 21.315 14.2977L21.8521 13.6058C21.8782 13.5724 21.8923 13.5312 21.8923 13.4888C21.8923 13.4464 21.8782 13.4053 21.8521 13.3719L21.3159 12.68C21.2297 12.5689 21.1665 12.4418 21.1299 12.3061C21.0933 12.1704 21.0841 12.0288 21.1027 11.8895L21.2225 11.0246C21.2284 10.9825 21.2201 10.9397 21.1988 10.9028C21.1776 10.866 21.1447 10.8373 21.1053 10.8214L20.2966 10.4936C20.1656 10.4403 20.0466 10.3614 19.9466 10.2614C19.8465 10.1615 19.7675 10.0425 19.7142 9.91153L19.3864 9.10288C19.3707 9.06323 19.3421 9.03002 19.3052 9.00867C19.2683 8.98732 19.2253 8.97907 19.1831 8.98526L18.3183 9.10548C18.1786 9.12463 18.0365 9.11572 17.9003 9.07926C17.7641 9.0428 17.6366 8.97953 17.5252 8.89315L16.8333 8.3565C16.7998 8.33034 16.7586 8.31613 16.7161 8.31613C16.6736 8.31613 16.6324 8.33034 16.5989 8.3565L15.907 8.89272C15.7954 8.97873 15.6678 9.04181 15.5317 9.07832C15.3956 9.11483 15.2536 9.12406 15.1139 9.10548L14.2491 8.98526C14.2069 8.97953 14.1641 8.98798 14.1273 9.00928C14.0905 9.03057 14.0619 9.0635 14.0458 9.10288L13.718 9.91153C13.6647 10.0425 13.5858 10.1614 13.4858 10.2613C13.3858 10.3613 13.2669 10.4403 13.136 10.4936L12.3273 10.8209C12.288 10.837 12.255 10.8656 12.2337 10.9024C12.2124 10.9392 12.204 10.9821 12.2097 11.0242L12.3299 11.889C12.3491 12.0288 12.34 12.1711 12.3034 12.3073C12.2668 12.4436 12.2034 12.5712 12.1167 12.6826L11.5849 13.3727C11.5587 13.4062 11.5445 13.4474 11.5445 13.4899C11.5445 13.5324 11.5587 13.5736 11.5849 13.6071L12.1215 14.299C12.2078 14.4104 12.2711 14.538 12.3075 14.6742C12.344 14.8103 12.3529 14.9524 12.3338 15.0921L12.2136 15.9569C12.2077 15.9991 12.2161 16.042 12.2374 16.0788C12.2587 16.1156 12.2918 16.1443 12.3312 16.1602L13.1399 16.488C13.2708 16.5413 13.3897 16.6203 13.4896 16.7203C13.5896 16.8202 13.6686 16.9391 13.7219 17.07L14.0497 17.8791C14.0658 17.9183 14.0944 17.9511 14.1311 17.9723C14.1678 17.9935 14.2105 18.0019 14.2525 17.9963L15.1174 17.8765C15.1649 17.8692 15.2129 17.8652 15.261 17.8644Z" fill="#d09458"/>
<path d="M15.1833 16.2829C15.1204 16.2828 15.0582 16.269 15.0011 16.2425C14.944 16.2159 14.8935 16.1772 14.8529 16.1291C14.8123 16.0809 14.7828 16.0245 14.7663 15.9638C14.7498 15.903 14.7467 15.8394 14.7574 15.7773L15.0117 14.2932L13.9336 13.242C13.8765 13.1856 13.8363 13.1144 13.8174 13.0364C13.7985 12.9585 13.8016 12.8768 13.8265 12.8005C13.8513 12.7242 13.8969 12.6563 13.9581 12.6045C14.0194 12.5526 14.0938 12.5188 14.1732 12.5069L15.6633 12.2906L16.3297 10.9406C16.3695 10.8732 16.4262 10.8173 16.4942 10.7785C16.5622 10.7397 16.6391 10.7192 16.7174 10.7192C16.7957 10.7192 16.8726 10.7397 16.9406 10.7785C17.0086 10.8173 17.0653 10.8732 17.1051 10.9406L17.7727 12.2881L19.2625 12.5043C19.3424 12.5158 19.4175 12.5495 19.4792 12.6015C19.541 12.6535 19.5869 12.7217 19.6119 12.7985C19.6369 12.8753 19.6399 12.9575 19.6205 13.0359C19.6012 13.1143 19.5603 13.1857 19.5025 13.242L18.4214 14.2932L18.6757 15.7773C18.6892 15.8568 18.6803 15.9385 18.6499 16.0132C18.6195 16.0878 18.5689 16.1525 18.5036 16.1999C18.4384 16.2473 18.3613 16.2755 18.2809 16.2814C18.2005 16.2873 18.12 16.2706 18.0486 16.2331L16.7154 15.5326L15.3831 16.2331C15.3215 16.2656 15.253 16.2826 15.1833 16.2829ZM16.7172 14.6115C16.7872 14.6116 16.8562 14.6286 16.9182 14.6612L17.6772 15.0604L17.5323 14.2158C17.5204 14.1468 17.5255 14.0758 17.5471 14.0092C17.5688 13.9425 17.6063 13.8821 17.6564 13.8331L18.2705 13.2351L17.4225 13.1118C17.3531 13.1018 17.2872 13.075 17.2305 13.0338C17.1737 12.9925 17.1279 12.9382 17.0968 12.8753L16.7172 12.1064L16.3379 12.8753C16.3069 12.9382 16.2611 12.9927 16.2044 13.034C16.1477 13.0753 16.0817 13.1021 16.0123 13.1123L15.1643 13.2355L15.7779 13.8336C15.8281 13.8825 15.8656 13.9429 15.8872 14.0096C15.9088 14.0763 15.9139 14.1472 15.902 14.2163L15.7576 15.0612L16.5157 14.6621C16.5778 14.6293 16.6469 14.612 16.7172 14.6115Z" fill="#d09458"/>
<path d="M5.81558 7.2105H1.11114C0.996455 7.2105 0.886464 7.16494 0.805367 7.08384C0.724271 7.00274 0.678711 6.89275 0.678711 6.77807V4.12077C0.68784 3.38824 0.98524 2.68882 1.50647 2.17404C2.0277 1.65927 2.73078 1.37061 3.46336 1.37061C4.19594 1.37061 4.89902 1.65927 5.42025 2.17404C5.94148 2.68882 6.23888 3.38824 6.24801 4.12077V6.77807C6.24801 6.89275 6.20245 7.00274 6.12135 7.08384C6.04026 7.16494 5.93026 7.2105 5.81558 7.2105ZM1.54358 6.34563H5.38314V4.12077C5.37558 3.6166 5.16999 3.13564 4.81078 2.78179C4.45157 2.42793 3.96758 2.22958 3.46336 2.22958C2.95913 2.22958 2.47515 2.42793 2.11594 2.78179C1.75673 3.13564 1.55114 3.6166 1.54358 4.12077V6.34563Z" fill="#946642"/>
</svg>
