<svg width="32" height="33" viewBox="0 0 32 33" fill="none" xmlns="http://www.w3.org/2000/svg">
<g clip-path="url(#clip0_90_1956)">
<path d="M23 9.14296V3.42146C23 3.28885 22.9473 3.16168 22.8536 3.06791C22.7598 2.97414 22.6326 2.92146 22.5 2.92146C20.3154 2.92149 18.1797 2.27444 16.3625 1.06196L16.2775 1.00546C16.1953 0.950642 16.0988 0.921387 16 0.921387C15.9012 0.921387 15.8047 0.950642 15.7225 1.00546L15.6375 1.06196C13.8203 2.27444 11.6846 2.92149 9.5 2.92146C9.36739 2.92146 9.24021 2.97414 9.14645 3.06791C9.05268 3.16168 9 3.28885 9 3.42146V9.14446C9.00017 10.6791 9.4158 12.1851 10.2028 13.5025C10.9898 14.82 12.1188 15.8999 13.47 16.6275L15.763 17.862C15.8358 17.9012 15.9173 17.9217 16 17.9217C16.0827 17.9217 16.1642 17.9012 16.237 17.862L18.5305 16.6275C19.8824 15.9004 21.012 14.8205 21.799 13.5025C22.586 12.1846 23.0011 10.678 23 9.14296ZM16 16.8535L13.9445 15.7465C12.7513 15.1054 11.7543 14.1527 11.0597 12.9898C10.3651 11.827 9.99884 10.4975 10 9.14296V3.91096C12.1324 3.82539 14.2034 3.17318 16 2.02146C17.7966 3.17318 19.8676 3.82539 22 3.91096V9.14296C22.0012 10.4974 21.635 11.8268 20.9405 12.9897C20.2459 14.1525 19.2491 15.1053 18.056 15.7465L16 16.8535Z" fill="#d09458"/>
<path d="M21 5.27662C21 5.15676 20.9569 5.04089 20.8786 4.95013C20.8003 4.85936 20.6921 4.79974 20.5735 4.78212C19.0539 4.55577 17.5866 4.06125 16.24 3.32162C16.1664 3.28136 16.0839 3.26025 16 3.26025C15.9161 3.26025 15.8336 3.28136 15.76 3.32162C14.4133 4.06073 12.946 4.55474 11.4265 4.78062C11.3077 4.79828 11.1992 4.85812 11.1209 4.9492C11.0426 5.04027 10.9997 5.1565 11 5.27662V9.14162C10.9996 10.3156 11.3171 11.4677 11.9188 12.4757C12.5205 13.4837 13.384 14.3099 14.4175 14.8666L15.7625 15.5916C15.8355 15.631 15.9171 15.6516 16 15.6516C16.0829 15.6516 16.1645 15.631 16.2375 15.5916L17.5825 14.8666C18.616 14.3099 19.4795 13.4837 20.0812 12.4757C20.6829 11.4677 21.0004 10.3156 21 9.14162V5.27662ZM20 9.14162C20.0005 10.1351 19.7319 11.1102 19.2227 11.9632C18.7135 12.8163 17.9827 13.5155 17.108 13.9866L16 14.5836L14.892 13.9866C14.0173 13.5155 13.2866 12.8163 12.7774 11.9632C12.2682 11.1102 11.9995 10.1351 12 9.14162V5.70112C13.3953 5.44937 14.7441 4.98656 16 4.32862C17.2559 4.98656 18.6047 5.44937 20 5.70112V9.14162Z" fill="#d09458"/>
<path d="M14.2326 9.12125C14.1383 9.03017 14.012 8.97977 13.8809 8.98091C13.7498 8.98205 13.6244 9.03464 13.5317 9.12734C13.439 9.22005 13.3864 9.34545 13.3853 9.47655C13.3841 9.60765 13.4345 9.73395 13.5256 9.82825L14.9396 11.2423C15.0334 11.336 15.1605 11.3886 15.2931 11.3886C15.4257 11.3886 15.5528 11.336 15.6466 11.2423L18.4746 8.41425C18.5657 8.31995 18.6161 8.19365 18.6149 8.06255C18.6138 7.93145 18.5612 7.80605 18.4685 7.71334C18.3758 7.62064 18.2504 7.56805 18.1193 7.56691C17.9882 7.56577 17.8619 7.61617 17.7676 7.70725L15.2931 10.1818L14.2326 9.12125Z" fill="#d09458"/>
<path d="M30.6799 6.04794C30.239 5.87709 29.7511 5.87202 29.3068 6.03368C28.8625 6.19534 28.4919 6.51273 28.2639 6.92694C28.1476 7.12813 28.0674 7.34811 28.0269 7.57694L27.1714 12.4269C26.8034 12.2643 26.3948 12.2167 25.9992 12.2904C25.6037 12.3641 25.2396 12.5557 24.9549 12.8399L19.4089 18.3894C18.991 18.8073 18.6594 19.3033 18.4332 19.8493C18.2069 20.3953 18.0905 20.9805 18.0904 21.5714V24.9214H17.5904C17.4578 24.9214 17.3306 24.9741 17.2368 25.0679C17.1431 25.1617 17.0904 25.2888 17.0904 25.4214V28.4214C17.0904 28.5541 17.1431 28.6812 17.2368 28.775C17.3306 28.8688 17.4578 28.9214 17.5904 28.9214V31.4214C17.5904 31.5541 17.6431 31.6812 17.7368 31.775C17.8306 31.8688 17.9578 31.9214 18.0904 31.9214H27.0904C27.223 31.9214 27.3502 31.8688 27.444 31.775C27.5377 31.6812 27.5904 31.5541 27.5904 31.4214V28.9214C27.723 28.9214 27.8502 28.8688 27.944 28.775C28.0377 28.6812 28.0904 28.5541 28.0904 28.4214V25.4214C28.0904 25.2888 28.0377 25.1617 27.944 25.0679C27.8502 24.9741 27.723 24.9214 27.5904 24.9214H27.0904V23.2069L29.6234 19.3934C29.9671 18.8776 30.1997 18.296 30.3064 17.6854L31.9649 8.27394C32.057 7.81018 31.9774 7.32876 31.7411 6.91927C31.5047 6.50979 31.1276 6.20013 30.6799 6.04794ZM26.5904 30.9214H18.5904V28.9214H26.5904V30.9214ZM27.0904 27.9214H18.0904V25.9214H27.0904V27.9214ZM30.9809 8.09994L29.3219 17.5119C29.2385 17.9868 29.0576 18.4391 28.7904 18.8404L26.1739 22.7794C26.1194 22.8615 26.0903 22.9579 26.0904 23.0564V24.9214H19.0904V21.5714C19.0904 21.1118 19.1809 20.6567 19.3567 20.232C19.5326 19.8073 19.7904 19.4215 20.1154 19.0964L25.6619 13.5504C25.7542 13.4549 25.8645 13.3788 25.9865 13.3263C26.1085 13.2739 26.2397 13.2463 26.3725 13.2452C26.5053 13.244 26.637 13.2693 26.7599 13.3196C26.8828 13.3699 26.9944 13.4442 27.0883 13.538C27.1822 13.6319 27.2564 13.7436 27.3067 13.8665C27.357 13.9894 27.3823 14.1211 27.3812 14.2538C27.38 14.3866 27.3524 14.5178 27.3 14.6398C27.2476 14.7619 27.1714 14.8722 27.0759 14.9644L23.1874 18.8534C23.0963 18.9477 23.0459 19.074 23.0471 19.2051C23.0482 19.3362 23.1008 19.4616 23.1935 19.5544C23.2862 19.6471 23.4116 19.6996 23.5427 19.7008C23.6738 19.7019 23.8001 19.6515 23.8944 19.5604L27.7834 15.6714C28.1047 15.3494 28.3065 14.9274 28.3557 14.4752C28.4049 14.023 28.2984 13.5675 28.0539 13.1839L29.0114 7.75294C29.0316 7.6382 29.0717 7.52788 29.1299 7.42694C29.2478 7.22408 29.4332 7.06912 29.6537 6.98916C29.8743 6.9092 30.116 6.90933 30.3364 6.98954C30.5569 7.06974 30.7422 7.22491 30.8598 7.4279C30.9774 7.63089 31.0199 7.86878 30.9799 8.09994H30.9809ZM14.4094 24.9214H13.9094V21.5714C13.9094 20.9804 13.793 20.3951 13.5667 19.849C13.3405 19.303 13.0089 18.8068 12.5909 18.3889L7.0449 12.8434C6.76016 12.5592 6.39612 12.3676 6.00057 12.2939C5.60502 12.2202 5.19642 12.2678 4.8284 12.4304L3.9729 7.58044C3.93242 7.35161 3.85221 7.13163 3.7359 6.93044C3.50846 6.51561 3.13813 6.19747 2.69375 6.03515C2.24938 5.87283 1.76118 5.87738 1.3199 6.04794C0.872248 6.20013 0.495137 6.50979 0.258754 6.91927C0.0223704 7.32876 -0.0571819 7.81018 0.0349025 8.27394L1.6934 17.6854C1.80015 18.296 2.03275 18.8776 2.3764 19.3934L4.9094 23.2069V24.9214H4.4094C4.27679 24.9214 4.14962 24.9741 4.05585 25.0679C3.96208 25.1617 3.9094 25.2888 3.9094 25.4214V28.4214C3.9094 28.5541 3.96208 28.6812 4.05585 28.775C4.14962 28.8688 4.27679 28.9214 4.4094 28.9214V31.4214C4.4094 31.5541 4.46208 31.6812 4.55585 31.775C4.64962 31.8688 4.77679 31.9214 4.9094 31.9214H13.9094C14.042 31.9214 14.1692 31.8688 14.263 31.775C14.3567 31.6812 14.4094 31.5541 14.4094 31.4214V28.9214C14.542 28.9214 14.6692 28.8688 14.763 28.775C14.8567 28.6812 14.9094 28.5541 14.9094 28.4214V25.4214C14.9094 25.2888 14.8567 25.1617 14.763 25.0679C14.6692 24.9741 14.542 24.9214 14.4094 24.9214ZM3.2094 18.8404C2.94225 18.4391 2.76127 17.9868 2.6779 17.5119L1.0189 8.09994C0.971152 7.86787 1.01031 7.62634 1.12895 7.42124C1.24758 7.21614 1.43742 7.06177 1.6624 6.98744C1.88255 6.89988 2.1272 6.89627 2.34983 6.9773C2.57246 7.05834 2.75755 7.21836 2.8699 7.42694C2.92809 7.52788 2.96819 7.6382 2.9884 7.75294L3.9459 13.1839C3.70139 13.5675 3.59494 14.023 3.64411 14.4752C3.69329 14.9274 3.89515 15.3494 4.2164 15.6714L8.1054 19.5604C8.1997 19.6515 8.32601 19.7019 8.4571 19.7008C8.5882 19.6996 8.71361 19.6471 8.80631 19.5544C8.89902 19.4616 8.9516 19.3362 8.95274 19.2051C8.95388 19.074 8.90348 18.9477 8.8124 18.8534L4.9239 14.9644C4.82839 14.8722 4.75221 14.7619 4.6998 14.6398C4.64739 14.5178 4.61981 14.3866 4.61865 14.2538C4.6175 14.1211 4.6428 13.9894 4.69308 13.8665C4.74336 13.7436 4.81761 13.6319 4.91151 13.538C5.0054 13.4442 5.11705 13.3699 5.23995 13.3196C5.36284 13.2693 5.49452 13.244 5.6273 13.2452C5.76008 13.2463 5.8913 13.2739 6.01331 13.3263C6.13531 13.3788 6.24566 13.4549 6.3379 13.5504L11.8844 19.0964C12.2094 19.4215 12.4672 19.8073 12.6431 20.232C12.8189 20.6567 12.9094 21.1118 12.9094 21.5714V24.9214H5.9094V23.0564C5.90947 22.9579 5.88042 22.8615 5.8259 22.7794L3.2094 18.8404ZM13.4089 30.9214H5.4089V28.9214H13.4089V30.9214ZM13.9089 27.9214H4.9089V25.9214H13.9089V27.9214Z" fill="#946642"/>
</g>
<defs>
<clipPath id="clip0_90_1956">
<rect width="32" height="32" fill="white" transform="translate(0 0.421387)"/>
</clipPath>
</defs>
</svg>
