<svg width="32" height="33" viewBox="0 0 32 33" fill="none" xmlns="http://www.w3.org/2000/svg">
<g clip-path="url(#clip0_90_1951)">
<path d="M9.83243 11.7224H11.2521C11.3386 11.4476 11.449 11.1809 11.5821 10.9254L10.5783 9.92156C10.5164 9.86002 10.4674 9.78682 10.434 9.7062C10.4006 9.62558 10.3836 9.53914 10.3838 9.45188C10.3838 9.27438 10.4529 9.10756 10.5783 8.98212L11.7596 7.80075C12.0186 7.54194 12.44 7.54181 12.6991 7.80081L13.7029 8.80463C13.9584 8.67157 14.2251 8.56115 14.4999 8.47463V7.05494C14.5 6.68869 14.798 6.39062 15.1643 6.39062H16.835C17.2012 6.39062 17.4992 6.68863 17.4992 7.05494V8.47463C17.7741 8.56117 18.0408 8.67159 18.2964 8.80463L19.3002 7.80075C19.5592 7.54188 19.9806 7.54194 20.2396 7.80081L21.4209 8.98206C21.4828 9.0436 21.5318 9.1168 21.5653 9.19743C21.5987 9.27807 21.6157 9.36453 21.6155 9.45181C21.6155 9.62925 21.5464 9.79606 21.4209 9.9215L20.4171 10.9253C20.5502 11.1809 20.6606 11.4476 20.7471 11.7224H22.1668C22.5331 11.7224 22.8311 12.0204 22.8311 12.3867V14.0574C22.8311 14.4236 22.5331 14.7216 22.1668 14.7216H20.7471C20.6606 14.9964 20.5502 15.2631 20.4171 15.5187L21.4209 16.5225C21.6799 16.7815 21.6799 17.2029 21.4209 17.4619L20.2396 18.6432C19.9806 18.9023 19.5591 18.9022 19.3002 18.6432L18.2964 17.6394C18.0408 17.7725 17.7741 17.8829 17.4992 17.9694V19.3891C17.4992 19.7554 17.2012 20.0534 16.835 20.0534H15.1643C14.7981 20.0534 14.5 19.7554 14.5 19.3891V17.9694C14.2252 17.8829 13.9585 17.7725 13.7029 17.6394L12.6991 18.6432C12.4401 18.9023 12.0186 18.9022 11.7596 18.6432L10.5784 17.4619C10.5165 17.4004 10.4675 17.3272 10.4341 17.2466C10.4007 17.166 10.3836 17.0795 10.3839 16.9923C10.3839 16.8148 10.4529 16.648 10.5784 16.5225L11.5822 15.5187C11.4491 15.2631 11.3387 14.9964 11.2522 14.7216H9.83249C9.46624 14.7216 9.16818 14.4236 9.16818 14.0574V12.3867C9.16812 12.0204 9.46618 11.7224 9.83243 11.7224ZM10.1056 13.7841H11.6092C11.715 13.7841 11.8177 13.8199 11.9005 13.8856C11.9834 13.9513 12.0416 14.0431 12.0657 14.1461C12.1651 14.572 12.3335 14.9788 12.5643 15.3503C12.6201 15.4402 12.6439 15.5463 12.6318 15.6513C12.6197 15.7564 12.5724 15.8543 12.4976 15.9291L11.4344 16.9923L12.2293 17.7872L13.2925 16.724C13.3673 16.6492 13.4652 16.6019 13.5703 16.5897C13.6754 16.5776 13.7815 16.6014 13.8714 16.6572C14.2429 16.888 14.6496 17.0565 15.0755 17.1559C15.1785 17.18 15.2703 17.2382 15.336 17.3211C15.4017 17.4039 15.4375 17.5066 15.4375 17.6124V19.1161H16.5616V17.6124C16.5616 17.5066 16.5973 17.404 16.663 17.3211C16.7288 17.2382 16.8206 17.18 16.9236 17.1559C17.3495 17.0566 17.7563 16.8881 18.1277 16.6572C18.2176 16.6015 18.3237 16.5777 18.4288 16.5898C18.5338 16.602 18.6317 16.6492 18.7066 16.724L19.7697 17.7872L20.5646 16.9923L19.5014 15.9291C19.4266 15.8543 19.3793 15.7564 19.3672 15.6513C19.3551 15.5463 19.3789 15.4402 19.4347 15.3503C19.6655 14.9788 19.8339 14.572 19.9333 14.1461C19.9574 14.0431 20.0156 13.9513 20.0985 13.8856C20.1813 13.8199 20.284 13.7841 20.3897 13.7841H21.8934V12.6601H20.3897C20.284 12.6601 20.1813 12.6243 20.0985 12.5586C20.0156 12.4929 19.9574 12.401 19.9333 12.2981C19.8339 11.8722 19.6655 11.4654 19.4347 11.0939C19.3789 11.004 19.3551 10.8979 19.3672 10.7928C19.3794 10.6878 19.4266 10.5899 19.5014 10.5151L20.5646 9.45188L19.7697 8.657L18.7066 9.72019C18.6318 9.79499 18.5339 9.8423 18.4288 9.85442C18.3237 9.86653 18.2176 9.84275 18.1277 9.78694C17.7562 9.55614 17.3495 9.38771 16.9236 9.28831C16.8206 9.26424 16.7287 9.20604 16.663 9.12317C16.5973 9.0403 16.5615 8.93764 16.5616 8.83188V7.32812H15.4375V8.83188C15.4375 8.93764 15.4017 9.04029 15.336 9.12316C15.2703 9.20602 15.1785 9.26423 15.0755 9.28831C14.6496 9.38774 14.2428 9.55617 13.8713 9.78694C13.7814 9.84269 13.6753 9.86643 13.5703 9.85431C13.4652 9.8422 13.3673 9.79493 13.2925 9.72019L12.2293 8.657L11.4344 9.45188L12.4976 10.5151C12.5724 10.5899 12.6197 10.6878 12.6318 10.7928C12.6439 10.8979 12.6201 11.004 12.5643 11.0939C12.3335 11.4654 12.1651 11.8722 12.0657 12.2981C12.0416 12.401 11.9834 12.4929 11.9005 12.5586C11.8177 12.6243 11.715 12.6601 11.6092 12.6601H10.1056V13.7841Z" fill="#d09458"/>
<path d="M15.9998 10.7106C17.3845 10.7106 18.511 11.8372 18.511 13.2219C18.511 14.6066 17.3845 15.7331 15.9998 15.7331C14.6151 15.7331 13.4885 14.6066 13.4885 13.2219C13.4885 11.8372 14.615 10.7106 15.9998 10.7106ZM15.9998 14.7956C16.8675 14.7956 17.5735 14.0896 17.5735 13.2219C17.5735 12.3541 16.8675 11.6481 15.9998 11.6481C15.132 11.6481 14.426 12.3541 14.426 13.2219C14.426 14.0896 15.132 14.7956 15.9998 14.7956ZM26.7764 12.7531H28.3315C28.4559 12.7531 28.5751 12.8025 28.663 12.8904C28.7509 12.9783 28.8003 13.0976 28.8003 13.2219C28.8003 13.3462 28.7509 13.4654 28.663 13.5533C28.5751 13.6413 28.4559 13.6906 28.3315 13.6906H26.7764C26.6521 13.6906 26.5329 13.6413 26.445 13.5533C26.3571 13.4654 26.3077 13.3462 26.3077 13.2219C26.3077 13.0976 26.3571 12.9783 26.445 12.8904C26.5329 12.8025 26.6521 12.7531 26.7764 12.7531ZM3.66798 12.7531H5.2231C5.48204 12.7531 5.69185 12.963 5.69185 13.2219C5.69185 13.4808 5.48204 13.6906 5.2231 13.6906H3.66798C3.54366 13.6906 3.42443 13.6413 3.33652 13.5533C3.24861 13.4654 3.19923 13.3462 3.19923 13.2219C3.19923 13.0976 3.24861 12.9783 3.33652 12.8904C3.42443 12.8025 3.54366 12.7531 3.66798 12.7531ZM23.2886 20.5107C23.3321 20.4672 23.3838 20.4326 23.4407 20.4091C23.4976 20.3855 23.5585 20.3734 23.6201 20.3734C23.6816 20.3734 23.7426 20.3855 23.7995 20.4091C23.8563 20.4326 23.908 20.4672 23.9515 20.5107L25.0512 21.6103C25.1391 21.6982 25.1885 21.8175 25.1885 21.9418C25.1885 22.0661 25.1391 22.1854 25.0512 22.2733C24.9633 22.3612 24.844 22.4106 24.7197 22.4106C24.5954 22.4106 24.4761 22.3612 24.3882 22.2733L23.2886 21.1736C23.2451 21.1301 23.2105 21.0784 23.187 21.0216C23.1634 20.9647 23.1513 20.9037 23.1513 20.8422C23.1513 20.7806 23.1634 20.7197 23.187 20.6628C23.2105 20.6059 23.2451 20.5542 23.2886 20.5107ZM6.94842 4.17064C7.03634 4.08273 7.15558 4.03335 7.27992 4.03335C7.40425 4.03335 7.52349 4.08273 7.61142 4.17064L8.71104 5.27026C8.79895 5.35818 8.84834 5.47742 8.84833 5.60175C8.84832 5.72608 8.79893 5.84532 8.71101 5.93323C8.62309 6.02114 8.50385 6.07053 8.37952 6.07052C8.25519 6.07051 8.13595 6.02112 8.04804 5.9332L6.94842 4.83357C6.90488 4.79005 6.87035 4.73837 6.8468 4.6815C6.82324 4.62462 6.81111 4.56367 6.81111 4.50211C6.81111 4.44055 6.82324 4.37959 6.8468 4.32271C6.87035 4.26584 6.90488 4.21416 6.94842 4.17064ZM15.9997 0.421387C16.124 0.421387 16.2433 0.470773 16.3312 0.55868C16.4191 0.646588 16.4685 0.765816 16.4685 0.890137V2.44526C16.4685 2.70414 16.2587 2.91401 15.9997 2.91401C15.7408 2.91401 15.531 2.70414 15.531 2.44526V0.890137C15.531 0.765816 15.5804 0.646588 15.6683 0.55868C15.7562 0.470773 15.8754 0.421387 15.9997 0.421387ZM6.94842 21.6103L8.04804 20.5107C8.13651 20.4255 8.25487 20.3785 8.37767 20.3796C8.50047 20.3808 8.61791 20.4301 8.70475 20.5169C8.79159 20.6038 8.84089 20.7212 8.84207 20.844C8.84325 20.9668 8.7962 21.0852 8.71104 21.1736L7.61142 22.2733C7.52295 22.3584 7.40459 22.4055 7.28179 22.4043C7.15899 22.4032 7.04155 22.3539 6.95471 22.267C6.86787 22.1802 6.81856 22.0628 6.81738 21.94C6.81621 21.8172 6.86325 21.6988 6.94842 21.6103ZM23.2886 5.27026L24.3882 4.17064C24.4761 4.08273 24.5954 4.03334 24.7197 4.03334C24.844 4.03334 24.9633 4.08273 25.0512 4.17064C25.1391 4.25855 25.1885 4.37778 25.1885 4.50211C25.1885 4.62643 25.1391 4.74566 25.0512 4.83357L23.9515 5.9332C23.8636 6.02111 23.7444 6.0705 23.6201 6.0705C23.4957 6.0705 23.3765 6.02111 23.2886 5.9332C23.2007 5.84529 23.1513 5.72606 23.1513 5.60173C23.1513 5.47741 23.2007 5.35817 23.2886 5.27026ZM6.64798 12.0736C7.15241 7.76889 10.5647 4.35626 14.8492 3.83401C15.1058 3.80245 15.34 3.98564 15.3714 4.24257C15.3864 4.366 15.3518 4.49034 15.2752 4.58825C15.1985 4.68617 15.0861 4.74963 14.9627 4.7647C11.0717 5.23895 8.03542 8.28939 7.57923 12.1827C7.56476 12.3062 7.50183 12.4188 7.40429 12.4959C7.30674 12.573 7.18258 12.6082 7.0591 12.5937C6.99795 12.5866 6.9388 12.5674 6.88504 12.5374C6.83128 12.5074 6.78396 12.4671 6.74578 12.4188C6.7076 12.3705 6.67932 12.3152 6.66253 12.2559C6.64575 12.1967 6.6408 12.1347 6.64798 12.0736Z" fill="#946642"/>
<path d="M7.0648 13.8506C7.12589 13.8428 7.1879 13.8471 7.24731 13.8633C7.30671 13.8795 7.36234 13.9073 7.411 13.945C7.45966 13.9827 7.50041 14.0297 7.53091 14.0832C7.56141 14.1367 7.58106 14.1956 7.58874 14.2567C7.90831 16.781 9.33306 19.0083 11.4977 20.3674C12.4309 20.9533 12.9879 21.9561 12.9879 23.0497V24.9789H19.0119V23.007C19.0119 21.948 19.5653 20.9475 20.4561 20.3961C22.9752 18.8367 24.4792 16.1394 24.4793 13.1807C24.4793 8.90868 21.2794 5.2908 17.0361 4.76518C16.975 4.75761 16.916 4.73808 16.8625 4.70771C16.8089 4.67734 16.7619 4.63671 16.724 4.58816C16.6862 4.5396 16.6583 4.48407 16.6419 4.42473C16.6255 4.36539 16.621 4.3034 16.6286 4.2423C16.6604 3.98543 16.8944 3.80249 17.1514 3.83474C21.8399 4.41555 25.4171 8.44743 25.417 13.1807C25.417 14.814 24.9922 16.4232 24.1884 17.8345C23.4092 19.2026 22.2892 20.364 20.9497 21.1932C20.3328 21.5751 19.9496 22.2701 19.9496 23.0069V25.0471C20.4262 25.2127 20.7699 25.6654 20.7699 26.1977V26.8659C20.7699 27.1489 20.6722 27.4089 20.5099 27.616C20.6722 27.8231 20.7699 28.0831 20.7699 28.3661V29.0342C20.7699 29.7063 20.2231 30.2531 19.5511 30.2531H18.0774V31.3127C18.0774 31.9241 17.5801 32.4214 16.9688 32.4214H15.0315C14.4202 32.4214 13.9229 31.9241 13.9229 31.3127V30.2531H12.4492C11.7771 30.2531 11.2304 29.7062 11.2304 29.0342V28.3661C11.2304 28.0831 11.3281 27.8231 11.4905 27.616C11.3281 27.4089 11.2304 27.1489 11.2304 26.8659V26.1977C11.2304 25.6653 11.574 25.2127 12.0507 25.0471V23.0496C12.0507 22.2806 11.6577 21.5747 10.9994 21.1614C8.59605 19.6524 7.01393 17.1786 6.65899 14.3745C6.6512 14.3134 6.65551 14.2514 6.67169 14.1921C6.68787 14.1327 6.7156 14.0771 6.75329 14.0284C6.79098 13.9797 6.83789 13.939 6.89134 13.9085C6.9448 13.878 7.00374 13.8583 7.0648 13.8506ZM14.8603 31.3127C14.8603 31.4054 14.9386 31.4837 15.0313 31.4837H16.9686C17.0613 31.4837 17.1396 31.4054 17.1396 31.3127V30.253H14.8603V31.3127ZM12.1677 29.0342C12.1677 29.1866 12.2965 29.3154 12.4489 29.3154H19.5509C19.7034 29.3154 19.8322 29.1866 19.8322 29.0342V28.366C19.8322 28.2136 19.7034 28.0847 19.5509 28.0847H12.4489C12.2965 28.0847 12.1677 28.2136 12.1677 28.366V29.0342ZM12.1677 26.8659C12.1677 27.0183 12.2965 27.1471 12.4489 27.1471H19.5509C19.7034 27.1471 19.8322 27.0183 19.8322 26.8659V26.1976C19.8322 26.0452 19.7034 25.9164 19.5509 25.9164H12.4489C12.2965 25.9164 12.1677 26.0452 12.1677 26.1976V26.8659Z" fill="#946642"/>
</g>
<defs>
<clipPath id="clip0_90_1951">
<rect width="32" height="32.0001" fill="white" transform="matrix(-1 0 0 1 32 0.421387)"/>
</clipPath>
</defs>
</svg>
