<svg width="189" height="192" viewBox="0 0 189 192" fill="none" xmlns="http://www.w3.org/2000/svg">
<path d="M59.8687 155.425C59.6142 154.881 59.1773 154.581 58.5581 154.525C58.3504 154.507 58.1582 154.443 57.9813 154.333C56.0449 153.092 54.5529 151.609 52.4941 150.528C50.5626 149.513 44.4514 145.64 44.1542 143.46C44.1297 143.268 44.0467 143.088 43.9168 142.946C42.7978 141.734 41.877 140.383 41.1544 138.892C41.126 138.833 41.1095 138.769 41.1058 138.703C41.1021 138.638 41.1114 138.573 41.1331 138.511C41.1548 138.45 41.1885 138.394 41.2321 138.346C41.2758 138.298 41.3286 138.259 41.3874 138.232L42.2023 137.851C42.3084 137.802 42.429 137.794 42.5415 137.829C42.6539 137.863 42.7505 137.937 42.8131 138.038C44.1573 140.229 45.3047 141.756 46.2553 142.617C48.8791 144.984 53.014 147.433 56.1382 150.154C56.9739 150.885 57.8122 151.611 58.6532 152.333C61.018 154.354 64.4825 155.719 67.2602 157.161C71.6931 159.46 76.4928 160.652 81.2011 162.186C82.4967 162.611 83.6429 163.145 84.6396 163.787C84.7023 163.83 84.749 163.892 84.7726 163.965C84.7963 164.037 84.7955 164.115 84.7704 164.186C84.7454 164.258 84.6974 164.319 84.6339 164.361C84.5704 164.403 84.495 164.423 84.4193 164.417C76.6507 163.761 69.4315 161.486 62.7617 157.592C61.6348 156.934 60.5672 156.929 59.8687 155.425Z" fill="#d09458"/>
<path d="M38.2904 131.472C38.3046 131.542 38.2965 131.613 38.2673 131.677C38.238 131.742 38.1892 131.795 38.1278 131.829C38.0664 131.864 37.9956 131.878 37.9256 131.87C37.8556 131.862 37.79 131.832 37.7382 131.784C37.2027 131.275 36.9454 130.637 36.9664 129.871C36.9816 129.359 37.1476 129.305 37.4645 129.709C37.8825 130.236 38.1578 130.824 38.2904 131.472Z" fill="#d09458"/>
<path d="M40.5308 134.075C39.718 132.87 38.819 132.055 38.5228 132.255C38.2267 132.455 38.6456 133.593 39.4584 134.798C40.2712 136.004 41.1702 136.819 41.4664 136.619C41.7625 136.419 41.3437 135.28 40.5308 134.075Z" fill="#d09458"/>
<path d="M34.6723 124.488C34.6944 124.54 34.6986 124.598 34.6841 124.652C34.6697 124.706 34.6374 124.753 34.5926 124.785C34.0067 125.205 31.6735 119.601 31.2943 118.829C31.2613 118.759 31.2515 118.68 31.2664 118.604C31.2812 118.528 31.3199 118.459 31.3768 118.406C31.4338 118.353 31.506 118.32 31.5831 118.311C31.6601 118.302 31.738 118.318 31.8053 118.357C33.4411 119.32 33.9146 122.714 34.6723 124.488Z" fill="#d09458"/>
<path d="M29.1447 107.678L31.0533 115.146C31.0753 115.214 31.0712 115.288 31.0418 115.353C31.0125 115.418 30.9599 115.47 30.8944 115.499C30.8289 115.527 30.755 115.53 30.6873 115.508C30.6195 115.485 30.5626 115.438 30.5277 115.375C29.8526 114.326 29.4154 113.176 29.216 111.925C29.1828 111.722 29.1031 111.542 28.9769 111.383C28.0907 110.258 27.8395 109.02 28.2232 107.67C28.2527 107.569 28.3145 107.48 28.3992 107.416C28.4839 107.353 28.5867 107.319 28.6917 107.32C28.7966 107.321 28.8979 107.357 28.9798 107.421C29.0617 107.486 29.1196 107.576 29.1447 107.678Z" fill="#d09458"/>
<path d="M26.6362 95.0577L27.587 103.534C27.6295 103.914 27.9718 104.187 28.3514 104.145L28.415 104.137C28.7946 104.095 29.0678 103.753 29.0252 103.373L28.0744 94.8964C28.0318 94.5168 27.6896 94.2436 27.31 94.2862L27.2464 94.2933C26.8668 94.3359 26.5936 94.6781 26.6362 95.0577Z" fill="#d09458"/>
<path d="M27.883 71.8478C28.4684 69.8904 28.6415 68.282 29.9605 66.5962C31.6925 64.3835 31.4176 62.5753 32.4403 60.8757C34.2858 57.8136 36.6965 54.4796 39.6723 50.8734C40.3786 50.022 44.4671 45.9608 45.7087 46.5232C45.7933 46.5621 45.8619 46.6286 45.903 46.7113C45.944 46.7941 45.9549 46.8881 45.9339 46.9773C45.6325 48.2654 44.9923 49.5174 44.0133 50.7334C39.35 56.4969 35.386 61.5806 32.1215 65.9845C30.8021 67.7592 31.1985 69.7265 30.5867 71.4847C28.2362 78.2742 26.9014 85.3203 26.5823 92.6229C26.5791 92.6765 26.5613 92.7281 26.5309 92.7723C26.5005 92.8165 26.4586 92.8516 26.4097 92.8737C26.3608 92.8958 26.3069 92.9042 26.2536 92.8979C26.2003 92.8916 26.1498 92.8708 26.1074 92.8379C22.5796 90.0831 26.7865 75.52 27.883 71.8478Z" fill="#d09458"/>
<path d="M42.4894 83.838C42.9376 81.9376 45.7216 74.0672 47.1441 73.1498C47.3157 73.041 47.4462 72.8743 47.5145 72.6772C49.1614 67.9305 51.5585 64.1162 54.7059 61.2342C60.0995 56.2914 66.588 51.9216 74.1715 48.125C75.7423 47.3364 78.0313 45.5121 80.3393 45.1038C84.9347 44.2944 90.3791 43.5296 96.6726 42.8094C98.1561 42.6382 99.6726 42.682 101.222 42.9409C107.409 43.961 112.841 44.3666 118.504 47.7965C126.429 52.597 135.906 58.624 140.252 67.0735C140.999 68.5301 141.755 69.9766 142.521 71.413C143.484 73.2229 145.304 75.1076 146.094 77.1661C147.532 80.9299 148.965 85.2909 150.393 90.2489C152.743 98.4166 151.476 106.712 147.479 114.159C145.481 117.871 144.344 121.626 141.953 125.284C140.644 127.282 139.705 129.37 138.11 131.141C136.201 133.273 134.434 135.516 132.81 137.868C131.406 139.907 127.593 141.487 125.491 143.07C123.102 144.863 119.833 145.183 117.19 146.406C115.381 147.243 113.308 148.029 110.971 148.762C109.056 149.364 107 148.903 104.958 149.593C103.206 150.186 102.207 150.506 101.963 150.553C97.6787 151.393 94.2072 151.297 89.9495 150.531C78.5278 148.474 68.6819 145.137 60.4463 137.033C53.1193 129.824 44.5574 118.004 43.0589 107.571C42.4742 103.501 41.8723 99.4318 41.2531 95.3625C41.0543 94.0575 41.5898 92.654 41.5945 91.3942C41.6016 88.8365 41.8999 86.3178 42.4894 83.838ZM54.6052 70.358C52.6242 73.2025 47.5513 79.8877 47.7963 83.3473C47.8106 83.5537 47.7528 83.7573 47.6329 83.9223C44.2943 88.5267 46.4536 94.3417 46.224 100.22C46.1724 101.462 46.2414 102.517 46.4312 103.383C50.3848 121.502 64.7472 142.152 84.5052 145.149C87.1171 145.549 89.597 146.283 92.2887 145.72C96.2263 144.881 99.9831 146.432 103.902 145.086C106.186 144.305 108.497 143.606 110.834 142.992C111.605 142.791 112.732 143.116 113.322 142.908C116.172 141.884 118.966 140.722 121.705 139.422C124.32 138.186 126.651 135.923 129.623 134.628C129.814 134.547 129.98 134.415 130.105 134.247C131.229 132.71 132.154 131.392 133.584 129.924C137.83 125.572 140.471 117.466 143.374 110.059C144.517 107.137 145.13 105.074 145.215 103.872C145.486 99.885 146.056 95.6075 145.799 91.9477C145.598 89.1061 145.115 86.3186 144.35 83.5854C142.997 78.7835 139.39 73.701 136.893 69.1457C132.55 61.2268 122.976 55.197 115.494 50.8434C113.145 49.4734 110.321 48.7745 107.022 48.7468C105.497 48.7351 103.649 48.365 101.478 47.6365C99.3733 46.9365 98.0442 48.3102 95.819 48.0421C95.6092 48.0203 95.4062 48.0487 95.2101 48.1274C93.5887 48.79 92.2715 48.0198 90.8953 48.0823C83.9029 48.4073 78.496 50.5307 72.5262 53.6003C71.7374 54.0015 70.9858 54.608 70.2714 55.4198C67.8641 58.1406 64.6859 59.347 62.2771 61.5659C59.4024 64.2115 56.8451 67.1422 54.6052 70.358Z" fill="#d09458"/>
<path d="M54.5932 110.938C54.4914 110.676 54.4696 110.408 54.5276 110.133C54.5336 110.1 54.5487 110.07 54.5711 110.046C54.5936 110.022 54.6226 110.005 54.655 109.996C54.6874 109.987 54.7219 109.987 54.7547 109.996C54.7876 110.006 54.8174 110.024 54.841 110.048C58.1537 113.711 58.4946 117.67 62.1846 120.642C64.2708 122.321 65.717 124.429 67.7829 126.009C70.417 128.023 72.7998 130.485 75.5187 132.095C78.9952 134.155 82.6009 135.96 86.3358 137.511C88.5663 138.441 90.5508 138.331 92.8905 138.259C95.1071 138.192 97.0164 139.219 99.3393 139.298C99.403 139.3 99.4642 139.323 99.5138 139.363C99.5634 139.403 99.5987 139.458 99.6144 139.52C99.6301 139.582 99.6253 139.647 99.6008 139.706C99.5762 139.765 99.5333 139.814 99.4783 139.846C97.8184 140.775 95.559 141.037 94.16 141.342C88.0832 142.676 83.9254 140.803 78.658 138.032C67.2972 132.05 59.2756 123.019 54.5932 110.938Z" fill="#d09458"/>
<path d="M106.559 165.596C98.2782 165.905 92.3272 165.925 88.7055 165.655C88.0196 165.602 86.893 165.124 85.3258 164.219C85.1357 164.112 85.1438 164.024 85.35 163.954C88.7848 162.769 92.8578 163.087 96.4993 163.721C98.397 164.045 102.04 164.024 107.429 163.658C108.407 163.597 109.494 162.969 110.721 163.378C110.831 163.414 110.927 163.482 110.999 163.574C111.07 163.665 111.113 163.775 111.122 163.891C111.131 164.006 111.106 164.122 111.05 164.223C110.993 164.324 110.908 164.407 110.806 164.46C109.452 165.163 108.036 165.541 106.559 165.596Z" fill="#d09458"/>
<path d="M52.1339 104.129C52.1344 104.033 52.1691 103.94 52.2317 103.867C52.2943 103.795 52.3808 103.747 52.4757 103.732C52.5705 103.717 52.6675 103.737 52.7492 103.787C52.8308 103.838 52.8919 103.916 52.9213 104.007L53.9325 107.039C53.9674 107.145 53.9717 107.259 53.9448 107.369C53.9179 107.478 53.861 107.579 53.7804 107.659C52.2326 109.167 52.1174 105.048 52.1339 104.129Z" fill="#d09458"/>
<path d="M60.7636 110.918C60.7485 110.851 60.7557 110.78 60.7843 110.717C60.8128 110.654 60.8611 110.601 60.9218 110.568C60.9825 110.535 61.0525 110.522 61.1211 110.532C61.1898 110.541 61.2534 110.573 61.3024 110.622C61.7685 111.122 62.2456 111.948 62.5014 112.673C63.5684 115.759 65.3513 118.425 67.8501 120.669C67.8927 120.708 67.9273 120.755 67.9516 120.807C67.9759 120.859 67.9895 120.915 67.9916 120.972C67.9937 121.03 67.9843 121.087 67.9638 121.141C67.9434 121.194 67.9124 121.243 67.8727 121.285C67.7757 121.39 67.6887 121.359 67.6117 121.192C67.5572 121.08 67.4837 120.987 67.3913 120.912C64.0427 118.34 61.8335 115.009 60.7636 110.918Z" fill="#d09458"/>
<path d="M70.7926 123.666L70.9084 123.969C70.9324 124.031 70.9361 124.098 70.9187 124.162C70.9013 124.226 70.8639 124.282 70.8119 124.323C70.76 124.364 70.6963 124.387 70.6302 124.388C70.5642 124.39 70.4994 124.37 70.4453 124.332L69.7928 123.881C69.7389 123.842 69.6993 123.786 69.68 123.722C69.6607 123.658 69.6628 123.589 69.686 123.527C69.7091 123.464 69.7521 123.41 69.8083 123.374C69.8645 123.338 69.931 123.321 69.9976 123.327L70.4021 123.374C70.4876 123.383 70.5691 123.414 70.6379 123.466C70.7066 123.517 70.7601 123.587 70.7926 123.666Z" fill="#d09458"/>
<path d="M72.7932 125.454C74.1286 125.858 75.3602 127.018 75.8449 128.306C75.8642 128.355 75.8667 128.408 75.8519 128.458C75.8371 128.508 75.8059 128.551 75.7631 128.582C75.7202 128.612 75.6681 128.628 75.6148 128.627C75.5615 128.626 75.5099 128.608 75.468 128.575C74.8814 128.123 72.054 126.428 72.339 125.679C72.3721 125.591 72.4374 125.519 72.5217 125.477C72.606 125.435 72.703 125.427 72.7932 125.454Z" fill="#d09458"/>
<path d="M95.412 134.941C92.6027 134.455 89.6662 134.095 86.9631 133.178C86.921 133.164 86.8826 133.14 86.8509 133.109C86.8192 133.078 86.795 133.04 86.78 132.998C86.7651 132.956 86.7598 132.912 86.7647 132.867C86.7695 132.823 86.7842 132.781 86.8078 132.743C86.9183 132.576 87.0881 132.537 87.2861 132.585C89.8611 133.28 94.5956 134.628 97.1035 133.631C98.928 132.911 100.486 132.484 102.454 132.332C102.511 132.326 102.568 132.341 102.614 132.373C102.661 132.406 102.694 132.454 102.709 132.51C102.723 132.566 102.718 132.625 102.694 132.678C102.67 132.731 102.628 132.775 102.577 132.801C100.558 133.774 97.7251 135.335 95.412 134.941Z" fill="#d09458"/>
<path d="M113.655 163.096C113.459 163.209 113.321 163.17 113.241 162.98C113.185 162.849 113.179 162.701 113.224 162.565C113.269 162.429 113.362 162.313 113.486 162.24C115.252 161.191 117.054 160.249 118.894 159.413C122.788 157.653 128.91 156.692 132.437 152.888C133.83 151.381 135.99 150.844 137.456 149.517C140.044 147.173 142.921 145.201 145.681 143.053C146.091 142.738 146.455 142.305 146.774 141.756C147.661 140.244 148.751 138.887 150.044 137.687C150.202 137.542 150.313 137.367 150.377 137.162C151.077 134.917 152.922 133.489 153.872 131.957C156.23 128.17 158.185 124.183 159.735 119.994C159.749 119.958 159.772 119.925 159.801 119.899C159.83 119.873 159.865 119.854 159.903 119.844C159.941 119.835 159.981 119.835 160.019 119.844C160.058 119.853 160.093 119.871 160.123 119.897C161.278 120.938 157.734 128.515 157.186 129.615C155.084 133.853 154.557 137.255 150.685 140.578C150.528 140.712 150.417 140.893 150.369 141.093C149.614 144.191 142.871 148.239 140.85 150.042C138.41 152.22 136.354 153.141 134.335 154.817C132.309 156.496 129.251 158.639 126.735 159.419C123.239 160.501 119.834 161.823 116.522 163.386C115.832 163.71 114.876 163.614 113.655 163.096Z" fill="#d09458"/>
<path d="M77.4311 29.1551C77.4511 29.2 77.4614 29.2485 77.4612 29.2976C77.461 29.3467 77.4503 29.3952 77.4299 29.4398C77.4095 29.4844 77.3799 29.5242 77.3429 29.5565C77.306 29.5888 77.2625 29.6129 77.2156 29.6271C74.0123 30.5596 71.6218 31.6958 67.7489 33.3254C64.4302 34.7239 61.634 36.989 58.5668 38.8486C55.4385 40.7434 52.0814 41.5503 49.3114 45.0647C48.7649 45.7574 47.9758 46.0429 47.2115 45.6412C47.171 45.6207 47.1356 45.5915 47.1076 45.5557C47.0796 45.5198 47.0598 45.4781 47.0495 45.4335C47.0392 45.3888 47.0386 45.3423 47.0478 45.297C47.0571 45.2518 47.0759 45.2089 47.103 45.1714C52.165 38.0192 61.5992 31.4854 70.2734 29.975C70.4853 29.9397 70.6843 29.8453 70.848 29.7023C71.2241 29.3718 71.6405 29.299 72.0973 29.4839C72.296 29.5641 72.5209 29.5639 72.7256 29.4835C73.9212 28.9928 76.6689 27.4508 77.4311 29.1551Z" fill="#d09458"/>
<path d="M103.509 138.733C103.474 138.726 103.442 138.711 103.415 138.687C103.389 138.664 103.37 138.634 103.359 138.6C103.349 138.566 103.348 138.53 103.357 138.496C103.366 138.462 103.384 138.43 103.409 138.406C104.165 137.666 105.489 137.73 106.283 137.479C110.396 136.184 113.751 134.737 116.348 133.139C117.316 132.546 118.162 132.316 118.886 132.45C119.112 132.492 119.137 132.586 118.96 132.733C117.181 134.228 115.242 135.382 113.143 136.195C110.081 137.386 106.798 139.318 103.509 138.733Z" fill="#d09458"/>
<path d="M76.9035 60.198C76.8051 60.2593 76.6889 60.2846 76.575 60.2693C75.7254 60.1683 75.9325 59.4128 76.4244 59.0992C78.7044 57.6349 81.1868 56.5 83.8717 55.6942C83.9478 55.6723 84.0291 55.6767 84.1024 55.7067C84.1757 55.7367 84.2368 55.7905 84.2758 55.8594C84.3148 55.9284 84.3293 56.0085 84.3172 56.0868C84.305 56.1651 84.2668 56.237 84.2087 56.2908C83.3744 57.0486 82.391 57.5055 81.2585 57.6614C81.0367 57.6958 80.8308 57.7703 80.6407 57.885L76.9035 60.198Z" fill="#d09458"/>
<path d="M132.519 74.748C132.24 76.1218 133.367 77.7038 132.97 78.488C132.939 78.5508 132.892 78.6046 132.834 78.6442C132.776 78.6837 132.709 78.7078 132.639 78.714C132.569 78.7202 132.499 78.7084 132.435 78.6796C132.371 78.6509 132.315 78.6062 132.273 78.5498C127.716 72.4111 120.957 64.9557 113.862 61.8125C109.241 59.7631 104.356 55.7213 99.2784 55.5842C94.6431 55.4579 90.4189 54.7245 85.8403 55.7338C85.7687 55.7471 85.6946 55.7366 85.6296 55.7039C85.5645 55.6711 85.512 55.6179 85.48 55.5524C85.4481 55.4869 85.4385 55.4127 85.4528 55.3413C85.467 55.2698 85.5043 55.205 85.5589 55.1568C86.5695 54.3072 87.9042 53.8397 89.327 53.8834C93.719 54.0196 98.1185 54.1046 102.525 54.1384C103.249 54.1447 104.356 54.4398 105.846 55.0236C105.938 55.0597 106.037 55.0734 106.134 55.0635C106.231 55.0537 106.324 55.0206 106.405 54.9671C107.398 54.3299 108.423 54.32 109.479 54.9375C112.594 56.7473 115.749 58.4802 118.943 60.1362C124.564 63.058 129.131 68.8805 132.414 74.1575C132.524 74.3314 132.562 74.5433 132.519 74.748Z" fill="#d09458"/>
<path d="M91.33 60.2462C91.9309 60.2682 92.4256 60.0769 92.4351 59.8189C92.4445 59.5609 91.9651 59.3339 91.3643 59.3119C90.7634 59.2898 90.2687 59.4811 90.2592 59.7391C90.2498 59.9971 90.7292 60.2242 91.33 60.2462Z" fill="#d09458"/>
<path d="M96.8087 60.0334C97.3119 60.1322 97.7403 60.1081 97.7655 59.9797C97.7907 59.8513 97.4032 59.6671 96.8999 59.5684C96.3967 59.4697 95.9683 59.4937 95.9432 59.6222C95.918 59.7506 96.3055 59.9347 96.8087 60.0334Z" fill="#d09458"/>
<path d="M83.7727 26.6397C90.9418 22.6633 96.7978 25.2497 103.874 24.9799C108.374 24.8073 113.852 27.2643 117.614 30.335C117.776 30.4667 117.977 30.5404 118.186 30.5445C122.317 30.6437 127.44 35.8275 131.178 37.7434C131.355 37.8333 131.497 37.9802 131.582 38.161L132.143 39.3381C132.182 39.4188 132.189 39.5111 132.162 39.5957C132.135 39.6803 132.076 39.7505 131.998 39.7914C131.239 40.1928 130.611 40.1932 129.944 39.5504C127.618 37.3145 125.741 36.1131 122.462 35.0562C120.944 34.5715 119.579 33.7899 118.364 32.7114C117.122 31.6097 116.251 32.1124 115.049 31.3496C111.825 29.2996 109.579 29.0729 106.507 28.5028C105.53 28.3223 104.763 28.2622 104.206 28.3224C97.4921 29.0266 92.5815 26.6561 85.286 28.8125C84.2626 29.1149 83.4023 28.5469 82.4592 28.8473C81.547 29.1374 78.4272 29.8812 78.08 28.4475C78.0356 28.2662 78.0604 28.0748 78.1496 27.91C78.2387 27.7452 78.386 27.6187 78.563 27.5549C80.241 26.9607 81.7795 26.701 83.1783 26.7758C83.3884 26.7894 83.5952 26.7421 83.7727 26.6397Z" fill="#d09458"/>
<path d="M100.259 60.4456C101.506 60.4281 103.482 61.0468 104.377 61.9428C104.407 61.9731 104.432 62.0094 104.448 62.0493C104.464 62.0893 104.473 62.1322 104.472 62.1754C104.471 62.2186 104.462 62.2612 104.444 62.3007C104.427 62.3401 104.402 62.3757 104.37 62.4051C103.137 63.5234 101.334 61.2446 100.217 60.6173C100.025 60.5065 100.039 60.4492 100.259 60.4456Z" fill="#d09458"/>
<path d="M126.596 81.1401C125.222 79.7842 123.947 78.3411 122.773 76.8107C118.355 71.028 113.171 66.8262 106.726 63.4632C106.607 63.3986 106.457 63.1522 106.43 63.0277C106.421 62.9899 106.422 62.9504 106.433 62.9133C106.445 62.8761 106.466 62.8427 106.494 62.8164C106.523 62.7901 106.558 62.7719 106.596 62.7637C106.634 62.7556 106.673 62.7577 106.71 62.7699C112.858 64.6846 124.779 73.9963 126.74 81.0568C126.797 81.2657 126.749 81.2935 126.596 81.1401Z" fill="#d09458"/>
<path d="M137.464 83.5693C136.974 82.375 136.298 81.521 135.955 81.6619C135.611 81.8028 135.73 82.8853 136.22 84.0796C136.709 85.274 137.385 86.128 137.729 85.987C138.072 85.8461 137.954 84.7637 137.464 83.5693Z" fill="#d09458"/>
<path d="M162.166 90.6474C161.904 89.8225 160.91 88.1263 161.712 87.4786C161.783 87.4205 161.874 87.3908 161.966 87.3954C162.057 87.3999 162.143 87.4385 162.207 87.5034C163.473 88.8131 163.896 89.789 163.698 91.7518C163.577 92.9899 163.962 94.1947 163.968 95.3964C163.974 97.217 164.328 98.9822 165.029 100.692C165.108 100.888 165.138 101.093 165.118 101.306C164.928 102.962 165.607 104.241 165.43 105.74C164.823 110.786 162.534 113.993 160.921 118.563C160.893 118.64 160.843 118.708 160.776 118.756C160.71 118.804 160.631 118.832 160.549 118.835C160.466 118.837 160.385 118.815 160.316 118.772C160.247 118.728 160.192 118.664 160.159 118.589C158.438 114.584 162.766 108.58 162.279 103.855C161.924 100.385 163.742 97.1171 162.416 93.7194C162.107 92.927 162.036 92.105 162.205 91.2533C162.244 91.0482 162.231 90.8462 162.166 90.6474Z" fill="#d09458"/>
<path d="M143.671 49.8525C142.65 51.6323 140.95 47.5342 140.198 47.1547C138.716 46.4059 134.272 42.59 133.664 41.1002C133.631 41.0187 133.625 40.9292 133.645 40.8438C133.665 40.7583 133.71 40.6811 133.776 40.6225C133.841 40.5639 133.922 40.5266 134.01 40.5159C134.097 40.5051 134.185 40.5212 134.262 40.5622C137.3 42.1854 139.83 44.4072 141.852 47.2275C141.992 47.4184 142.178 47.5686 142.392 47.6628C143.099 47.9646 143.549 48.5104 143.744 49.3002C143.79 49.4869 143.764 49.6842 143.671 49.8525Z" fill="#d09458"/>
<path d="M159.294 79.1657C159.083 78.725 159.186 78.3774 159.601 78.123C159.644 78.097 159.692 78.0801 159.742 78.0733C159.792 78.0665 159.843 78.0699 159.892 78.0833C159.94 78.0968 159.986 78.12 160.025 78.1516C160.064 78.1831 160.097 78.2223 160.12 78.2668C161.242 80.4144 161.942 82.6896 162.22 85.0924C162.235 85.2233 162.216 85.3555 162.165 85.4758C162.114 85.5962 162.032 85.7005 161.928 85.7784C161.327 86.2362 160.841 85.9183 160.796 85.2267C160.645 82.9922 160.144 80.9719 159.294 79.1657Z" fill="#d09458"/>
<path d="M144.233 52.057C144.217 51.9956 144.216 51.9313 144.231 51.8696C144.245 51.8078 144.274 51.7505 144.316 51.7025C144.357 51.6546 144.41 51.6174 144.469 51.5943C144.528 51.5712 144.591 51.5627 144.654 51.5698C146.787 51.8176 150.642 58.8419 149.432 59.2302C149.339 59.2603 149.239 59.2607 149.146 59.2314C149.052 59.2021 148.969 59.1445 148.909 59.0665C147.048 56.7022 144.988 55.0298 144.233 52.057Z" fill="#d09458"/>
<path d="M156.464 72.0369C156.423 71.98 156.403 71.9116 156.405 71.842C156.408 71.7723 156.433 71.7053 156.478 71.651C156.523 71.5968 156.584 71.5582 156.653 71.5412C156.722 71.5243 156.795 71.5298 156.86 71.5569C158.789 72.3363 159.338 74.8367 159.464 76.694C159.468 76.7835 159.44 76.8715 159.383 76.94C159.326 77.0084 159.246 77.0522 159.159 77.0623C158.438 77.1458 157.093 72.9602 156.464 72.0369Z" fill="#d09458"/>
<path d="M153.792 65.8597C153.798 65.9102 153.786 65.961 153.758 66.0039C153.731 66.0468 153.69 66.0792 153.642 66.0957C153.594 66.1123 153.542 66.112 153.494 66.095C153.446 66.078 153.406 66.0453 153.379 66.0021L151.718 62.9975C151.676 62.9243 151.663 62.8386 151.682 62.7569C151.7 62.6751 151.749 62.6032 151.818 62.5549C151.887 62.5066 151.973 62.4853 152.057 62.4951C152.142 62.505 152.22 62.5453 152.277 62.6082C153.087 63.5408 153.592 64.6247 153.792 65.8597Z" fill="#d09458"/>
</svg>
