<svg width="119" height="119" viewBox="0 0 119 119" fill="none" xmlns="http://www.w3.org/2000/svg">
<g clip-path="url(#clip0_90_1652)">
<path d="M43.7886 21.3624C44.0086 21.2024 44.0153 20.9857 43.8086 20.7124C43.7408 20.6255 43.6467 20.563 43.5404 20.534C43.4341 20.5051 43.3213 20.5113 43.2189 20.5519C43.1164 20.5924 43.0299 20.665 42.9721 20.7588C42.9144 20.8527 42.8886 20.9627 42.8986 21.0724L43.0086 22.1024C43.0059 22.1873 43.0371 22.2697 43.0952 22.3316C43.1534 22.3935 43.2337 22.4298 43.3186 22.4324C43.4035 22.4351 43.4859 22.4039 43.5478 22.3458C43.6097 22.2876 43.6459 22.2073 43.6486 22.1224C43.7019 21.8157 43.7486 21.5624 43.7886 21.3624Z" stroke="#d09458" stroke-opacity="0.769" stroke-width="2"/>
<path d="M55.4889 2.18202C55.4332 2.14424 55.3893 2.0916 55.362 2.03008C55.3347 1.96856 55.3252 1.90063 55.3346 1.83399C55.3439 1.76734 55.3718 1.70466 55.415 1.65306C55.4582 1.60145 55.515 1.56298 55.5789 1.54202L57.4289 0.932023C57.5368 0.894362 57.6539 0.8919 57.7633 0.924991C57.8726 0.958083 57.9687 1.02502 58.0376 1.11618C58.1066 1.20733 58.1448 1.318 58.1468 1.43226C58.1488 1.54652 58.1146 1.65848 58.0489 1.75202C57.3956 2.73202 56.5423 2.87536 55.4889 2.18202Z" fill="#d09458" fill-opacity="0.996"/>
<path d="M73.0794 2.40265C72.5162 3.09073 72.5517 4.05121 73.1585 4.54793C73.7654 5.04466 74.7139 4.88953 75.2771 4.20145C75.8403 3.51337 75.8049 2.55289 75.198 2.05617C74.5911 1.55944 73.6426 1.71457 73.0794 2.40265Z" fill="#d09458" fill-opacity="0.541"/>
<path d="M46.4784 3.67215C46.6051 3.59215 46.7517 3.54881 46.9184 3.54215C46.9761 3.54041 47.0332 3.55338 47.0845 3.57984C47.1358 3.6063 47.1795 3.64538 47.2115 3.69339C47.2435 3.74141 47.2628 3.79678 47.2675 3.85429C47.2722 3.91181 47.2622 3.96957 47.2384 4.02215C46.8984 4.80881 46.2951 5.15215 45.4284 5.05215C45.3628 5.04598 45.3 5.02288 45.2461 4.98512C45.1921 4.94736 45.1489 4.89623 45.1207 4.83674C45.0924 4.77725 45.0802 4.71145 45.085 4.64578C45.0899 4.58011 45.1117 4.51683 45.1484 4.46215C45.2684 4.28215 45.4584 4.15215 45.7184 4.07215C45.8517 4.03215 46.1051 3.89881 46.4784 3.67215Z" fill="#d09458" fill-opacity="0.996"/>
<path d="M62.1985 5.01127C61.774 5.72909 61.9 6.58904 62.48 6.93202C63.0599 7.27501 63.8742 6.97115 64.2987 6.25333C64.7232 5.53552 64.5972 4.67557 64.0173 4.33258C63.4373 3.9896 62.623 4.29346 62.1985 5.01127Z" fill="#d09458" fill-opacity="0.737"/>
<path d="M79.392 6.83891C78.9477 7.59631 79.1319 8.52976 79.8036 8.92382C80.4752 9.31788 81.3799 9.02333 81.8243 8.26593C82.2687 7.50853 82.0844 6.57508 81.4128 6.18102C80.7411 5.78696 79.8364 6.08151 79.392 6.83891Z" fill="#d09458" fill-opacity="0.541"/>
<path d="M51.419 7.20219C50.944 7.81231 50.9618 8.62044 51.4586 9.0072C51.9554 9.39395 52.7432 9.21288 53.2181 8.60276C53.6931 7.99265 53.6754 7.18452 53.1786 6.79776C52.6818 6.411 51.894 6.59208 51.419 7.20219Z" fill="#d09458" fill-opacity="0.996"/>
<path d="M68.6719 9.02337C68.1234 9.65885 68.1295 10.5631 68.6855 11.0431C69.2416 11.523 70.137 11.3969 70.6855 10.7615C71.234 10.126 71.2279 9.22175 70.6719 8.74179C70.1159 8.26183 69.2204 8.3879 68.6719 9.02337Z" fill="#d09458" fill-opacity="0.541"/>
<path d="M40.4564 9.43943C39.9177 10.0614 39.8802 10.9116 40.3728 11.3382C40.8654 11.7649 41.7015 11.6066 42.2403 10.9846C42.779 10.3626 42.8165 9.5125 42.3239 9.0858C41.8313 8.65911 40.9952 8.81744 40.4564 9.43943Z" fill="#d09458" fill-opacity="0.996"/>
<path d="M88.0729 12.9954C88.7464 12.3652 88.8426 11.3737 88.2879 10.781C87.7332 10.1882 86.7375 10.2185 86.0641 10.8487C85.3907 11.4789 85.2944 12.4703 85.8491 13.0631C86.4039 13.6559 87.3995 13.6256 88.0729 12.9954Z" fill="#d09458" fill-opacity="0.541"/>
<path d="M57.8473 11.6859C57.4739 12.3881 57.6061 13.1885 58.1425 13.4737C58.6789 13.7589 59.4164 13.4209 59.7898 12.7187C60.1631 12.0165 60.031 11.2161 59.4946 10.9308C58.9582 10.6456 58.2207 10.9837 57.8473 11.6859Z" fill="#d09458" fill-opacity="0.996"/>
<path d="M32.0087 12.1821C31.662 13.2955 30.8954 13.9455 29.7087 14.1321C28.9954 14.2455 28.8854 14.0388 29.3787 13.5121C30.0254 12.8255 30.7554 12.2621 31.5687 11.8221C32.0154 11.5821 32.162 11.7021 32.0087 12.1821Z" fill="#d09458" fill-opacity="0.996"/>
<path d="M75.0177 13.1972C74.3652 13.88 74.3024 14.8789 74.8774 15.4284C75.4523 15.9778 76.4474 15.8697 77.0998 15.187C77.7523 14.5042 77.8151 13.5053 77.2402 12.9558C76.6652 12.4064 75.6702 12.5144 75.0177 13.1972Z" fill="#d09458" fill-opacity="0.541"/>
<path d="M46.8739 13.8035C46.3804 14.413 46.3944 15.2424 46.9051 15.656C47.4159 16.0696 48.23 15.9108 48.7236 15.3013C49.2171 14.6918 49.2031 13.8625 48.6924 13.4489C48.1816 13.0353 47.3675 13.194 46.8739 13.8035Z" fill="#d09458" fill-opacity="0.996"/>
<path d="M92.2896 15.4942C91.8305 16.2233 91.9546 17.1268 92.5668 17.5124C93.179 17.8979 94.0475 17.6194 94.5066 16.8904C94.9657 16.1613 94.8416 15.2578 94.2294 14.8722C93.6172 14.4867 92.7487 14.7652 92.2896 15.4942Z" fill="#d09458" fill-opacity="0.541"/>
<path d="M63.9487 16.2925C64.0954 15.6925 64.4687 15.2691 65.0687 15.0225C65.1618 14.9834 65.2618 14.9633 65.3628 14.9634C65.4638 14.9634 65.5637 14.9836 65.6568 15.0227C65.7499 15.0618 65.8343 15.119 65.905 15.1911C65.9757 15.2632 66.0314 15.3486 66.0687 15.4425L66.5987 16.8025C66.6393 16.9075 66.6528 17.0211 66.6378 17.1328C66.6229 17.2444 66.5801 17.3505 66.5133 17.4412C66.4465 17.5319 66.3579 17.6043 66.2558 17.6518C66.1536 17.6992 66.0411 17.72 65.9287 17.7125L64.2487 17.5925C64.1712 17.5874 64.0954 17.567 64.0257 17.5326C63.9561 17.4982 63.8939 17.4503 63.8428 17.3918C63.7917 17.3332 63.7527 17.2652 63.7279 17.1915C63.7032 17.1178 63.6933 17.04 63.6987 16.9625C63.7054 16.8291 63.7387 16.7158 63.7987 16.6225C63.8787 16.5025 63.9287 16.3925 63.9487 16.2925Z" fill="#d09458" fill-opacity="0.737"/>
<path d="M35.8856 16.221C35.4767 16.9351 35.6075 17.7788 36.1778 18.1054C36.7481 18.432 37.542 18.1179 37.9509 17.4038C38.3599 16.6897 38.2291 15.8461 37.6588 15.5194C37.0885 15.1928 36.2946 15.5069 35.8856 16.221Z" fill="#d09458" fill-opacity="0.996"/>
<path d="M81.3615 17.648C80.8351 18.3646 80.9352 19.3325 81.585 19.8099C82.2349 20.2872 83.1884 20.0933 83.7148 19.3766C84.2412 18.66 84.1412 17.6921 83.4913 17.2148C82.8415 16.7374 81.8879 16.9314 81.3615 17.648Z" fill="#d09458" fill-opacity="0.541"/>
<path d="M54.6868 20.0007C55.463 19.7273 55.9048 18.9736 55.6737 18.3173C55.4425 17.6609 54.6259 17.3504 53.8497 17.6237C53.0736 17.8971 52.6317 18.6507 52.8629 19.3071C53.094 19.9635 53.9106 20.274 54.6868 20.0007Z" fill="#d09458" fill-opacity="0.996"/>
<path d="M25.9582 20.432C26.6762 20.432 27.2582 19.85 27.2582 19.132C27.2582 18.4141 26.6762 17.832 25.9582 17.832C25.2402 17.832 24.6582 18.4141 24.6582 19.132C24.6582 19.85 25.2402 20.432 25.9582 20.432Z" fill="#d09458" fill-opacity="0.996"/>
<path d="M98.5808 19.9212C98.2333 20.7397 98.5328 21.6498 99.2496 21.9541C99.9664 22.2584 100.829 21.8415 101.177 21.023C101.524 20.2045 101.225 19.2944 100.508 18.9901C99.7909 18.6858 98.9282 19.1027 98.5808 19.9212Z" fill="#d09458" fill-opacity="0.541"/>
<path d="M72.5288 21.662C73.1228 21.0925 73.1921 20.201 72.6837 19.6708C72.1753 19.1406 71.2817 19.1726 70.6877 19.7421C70.0938 20.3117 70.0244 21.2032 70.5329 21.7334C71.0413 22.2635 71.9349 22.2316 72.5288 21.662Z" fill="#d09458" fill-opacity="0.541"/>
<path d="M42.2462 22.2134C41.9972 21.9712 41.867 21.6271 41.8844 21.2569C41.9017 20.8866 42.0652 20.5205 42.3388 20.2391C42.4743 20.0998 42.6328 19.9854 42.8052 19.9026C42.9776 19.8197 43.1605 19.7701 43.3435 19.7563C43.5266 19.7426 43.7061 19.7652 43.8719 19.8226C44.0377 19.8801 44.1865 19.9715 44.3098 20.0914C44.5589 20.3336 44.6891 20.6777 44.6717 21.0479C44.6544 21.4182 44.4909 21.7843 44.2172 22.0657C44.0817 22.205 43.9233 22.3194 43.7509 22.4022C43.5785 22.4851 43.3956 22.5348 43.2125 22.5485C43.0295 22.5622 42.85 22.5397 42.6842 22.4822C42.5184 22.4247 42.3696 22.3334 42.2462 22.2134ZM43.788 21.3624C44.008 21.2024 44.0147 20.9857 43.808 20.7124C43.7403 20.6255 43.6462 20.563 43.5399 20.534C43.4336 20.5051 43.3208 20.5113 43.2183 20.5519C43.1159 20.5924 43.0293 20.665 42.9716 20.7589C42.9138 20.8527 42.888 20.9627 42.898 21.0724L43.008 22.1024C43.0054 22.1873 43.0366 22.2697 43.0947 22.3316C43.1528 22.3935 43.2332 22.4298 43.318 22.4324C43.4029 22.4351 43.4854 22.4039 43.5472 22.3458C43.6091 22.2876 43.6454 22.2073 43.648 22.1224C43.7014 21.8157 43.748 21.5624 43.788 21.3624Z" fill="#d09458" fill-opacity="0.996"/>
<path d="M43.7886 21.3624C43.7486 21.5624 43.7019 21.8157 43.6486 22.1224C43.6459 22.2073 43.6097 22.2876 43.5478 22.3458C43.4859 22.4039 43.4035 22.4351 43.3186 22.4324C43.2337 22.4298 43.1534 22.3935 43.0952 22.3316C43.0371 22.2697 43.0059 22.1873 43.0086 22.1024L42.8986 21.0724C42.8886 20.9627 42.9144 20.8527 42.9721 20.7588C43.0299 20.665 43.1164 20.5924 43.2189 20.5519C43.3213 20.5113 43.4341 20.5051 43.5404 20.534C43.6467 20.563 43.7408 20.6255 43.8086 20.7124C44.0153 20.9857 44.0086 21.2024 43.7886 21.3624Z" fill="#d09458" fill-opacity="0.541"/>
<path d="M87.7494 21.9683C87.2235 22.6921 87.3296 23.6657 87.9864 24.1429C88.6432 24.6201 89.602 24.4202 90.1279 23.6963C90.6538 22.9725 90.5476 21.9989 89.8908 21.5217C89.234 21.0445 88.2752 21.2444 87.7494 21.9683Z" fill="#d09458" fill-opacity="0.541"/>
<path d="M31.389 22.5061C30.8096 23.1586 30.792 24.0889 31.3495 24.5839C31.907 25.0789 32.8287 24.9512 33.408 24.2987C33.9874 23.6462 34.0051 22.7159 33.4475 22.2209C32.89 21.7259 31.9683 21.8536 31.389 22.5061Z" fill="#d09458" fill-opacity="0.737"/>
<path d="M59.4967 22.6658C59.154 23.4502 59.4054 24.3174 60.0583 24.6026C60.7111 24.8878 61.5182 24.4831 61.8609 23.6987C62.2036 22.9142 61.9522 22.0471 61.2993 21.7619C60.6465 21.4766 59.8394 21.8813 59.4967 22.6658Z" fill="#d09458" fill-opacity="0.541"/>
<path d="M106.299 26.3724C107.171 26.3724 107.879 25.665 107.879 24.7924C107.879 23.9198 107.171 23.2124 106.299 23.2124C105.426 23.2124 104.719 23.9198 104.719 24.7924C104.719 25.665 105.426 26.3724 106.299 26.3724Z" fill="#d09458" fill-opacity="0.541"/>
<path d="M76.7941 24.2084C76.2298 24.9794 76.3251 26.009 77.007 26.5081C77.6889 27.0071 78.6991 26.7867 79.2634 26.0157C79.8277 25.2447 79.7324 24.2151 79.0505 23.716C78.3686 23.2169 77.3584 23.4374 76.7941 24.2084Z" fill="#d09458" fill-opacity="0.541"/>
<path d="M22.0995 26.9519C22.8784 26.5585 23.2272 25.68 22.8786 24.9899C22.5299 24.2997 21.6159 24.0592 20.837 24.4527C20.0582 24.8461 19.7094 25.7245 20.058 26.4147C20.4066 27.1048 21.3206 27.3453 22.0995 26.9519Z" fill="#d09458" fill-opacity="0.541"/>
<path d="M48.6523 24.8848C48.3001 25.6102 48.5099 26.4387 49.121 26.7354C49.7321 27.0322 50.513 26.6847 50.8652 25.9594C51.2174 25.234 51.0076 24.4055 50.3965 24.1087C49.7854 23.812 49.0045 24.1595 48.6523 24.8848Z" fill="#d09458" fill-opacity="0.737"/>
<path d="M94.1391 26.317C93.6114 27.0935 93.7205 28.0879 94.3828 28.5381C95.0452 28.9882 96.0099 28.7236 96.5376 27.9471C97.0654 27.1705 96.9562 26.1761 96.2939 25.726C95.6316 25.2759 94.6668 25.5405 94.1391 26.317Z" fill="#d09458" fill-opacity="0.541"/>
<path d="M68.0151 28.5143C68.7343 27.9022 68.8936 26.9083 68.371 26.2942C67.8484 25.6801 66.8417 25.6786 66.1225 26.2906C65.4033 26.9027 65.244 27.8967 65.7666 28.5108C66.2892 29.1248 67.2959 29.1264 68.0151 28.5143Z" fill="#d09458" fill-opacity="0.541"/>
<path d="M37.6674 27.0758C37.2784 27.8073 37.4652 28.6672 38.0845 28.9965C38.7038 29.3257 39.5211 28.9997 39.9101 28.2683C40.299 27.5368 40.1122 26.6769 39.4929 26.3476C38.8736 26.0183 38.0563 26.3444 37.6674 27.0758Z" fill="#d09458" fill-opacity="0.737"/>
<path d="M85.4309 30.5961C86.1639 29.9919 86.3138 28.9631 85.7658 28.2983C85.2178 27.6335 84.1793 27.5844 83.4463 28.1887C82.7133 28.7929 82.5634 29.8216 83.1114 30.4864C83.6594 31.1513 84.6979 31.2004 85.4309 30.5961Z" fill="#d09458" fill-opacity="0.541"/>
<path d="M56.8348 30.854C57.5801 30.4442 57.9082 29.6099 57.5676 28.9904C57.2271 28.3709 56.3468 28.2009 55.6015 28.6106C54.8562 29.0204 54.528 29.8547 54.8686 30.4742C55.2092 31.0937 56.0894 31.2637 56.8348 30.854Z" fill="#d09458" fill-opacity="0.541"/>
<path d="M26.6991 29.444C26.3168 30.1975 26.5259 31.0718 27.1662 31.3966C27.8065 31.7214 28.6354 31.3739 29.0177 30.6203C29.4 29.8667 29.1909 28.9925 28.5506 28.6677C27.9103 28.3429 27.0814 28.6904 26.6991 29.444Z" fill="#d09458" fill-opacity="0.737"/>
<path d="M111.443 29.9706C111.727 30.5818 112.197 30.966 112.492 30.8288C112.788 30.6916 112.797 30.0849 112.514 29.4738C112.23 28.8626 111.76 28.4784 111.465 28.6156C111.169 28.7528 111.16 29.3594 111.443 29.9706Z" fill="#d09458" fill-opacity="0.541"/>
<path d="M100.476 30.9143C100.168 31.7425 100.506 32.6324 101.231 32.9019C101.955 33.1714 102.792 32.7185 103.1 31.8903C103.409 31.062 103.071 30.1721 102.346 29.9026C101.621 29.6331 100.784 30.086 100.476 30.9143Z" fill="#d09458" fill-opacity="0.541"/>
<path d="M72.3698 30.761C71.8019 31.4307 71.8332 32.3907 72.4397 32.905C73.0462 33.4194 73.9984 33.2935 74.5663 32.6238C75.1343 31.9541 75.103 30.9941 74.4965 30.4798C73.8899 29.9654 72.9378 30.0913 72.3698 30.761Z" fill="#d09458" fill-opacity="0.541"/>
<path d="M45.748 33.2524L45.668 33.4924C45.6448 33.5683 45.6039 33.6377 45.5485 33.6947C45.4932 33.7517 45.4251 33.7946 45.3498 33.8201C45.2745 33.8455 45.1943 33.8526 45.1157 33.8408C45.0372 33.829 44.9625 33.7987 44.898 33.7524C43.688 32.9024 43.198 31.5124 44.698 30.7324C46.378 29.8724 47.698 32.4424 45.908 33.0724C45.8681 33.0875 45.8326 33.1118 45.8047 33.1432C45.7768 33.1746 45.7573 33.2121 45.748 33.2524Z" fill="#d09458" fill-opacity="0.541"/>
<path d="M15.6664 31.895C15.3437 32.6819 15.6247 33.5424 16.2941 33.8169C16.9634 34.0914 17.7677 33.6761 18.0904 32.8892C18.4132 32.1023 18.1322 31.2418 17.4628 30.9673C16.7934 30.6927 15.9891 31.1081 15.6664 31.895Z" fill="#d09458" fill-opacity="0.541"/>
<path d="M89.5873 32.9386C89.1318 33.7087 89.3407 34.6748 90.0537 35.0965C90.7668 35.5182 91.7141 35.2358 92.1695 34.4657C92.6249 33.6956 92.4161 32.7294 91.703 32.3077C90.99 31.886 90.0427 32.1685 89.5873 32.9386Z" fill="#d09458" fill-opacity="0.541"/>
<path d="M61.2831 33.4254C60.8633 34.2217 61.0893 35.1658 61.7879 35.5342C62.4865 35.9025 63.3932 35.5556 63.813 34.7592C64.2329 33.9629 64.0069 33.0188 63.3083 32.6504C62.6097 32.2821 61.703 32.6291 61.2831 33.4254Z" fill="#d09458" fill-opacity="0.541"/>
<path d="M33.3425 33.4292C32.7446 34.0418 32.6925 34.9606 33.2261 35.4814C33.7598 36.0021 34.677 35.9276 35.2749 35.3149C35.8728 34.7022 35.9248 33.7834 35.3912 33.2627C34.8576 32.742 33.9404 32.8165 33.3425 33.4292Z" fill="#d09458" fill-opacity="0.541"/>
<path d="M109.121 36.8501C109.824 36.2884 109.995 35.3328 109.502 34.7156C109.01 34.0983 108.04 34.0533 107.336 34.6149C106.633 35.1765 106.462 36.1322 106.955 36.7494C107.447 37.3666 108.417 37.4117 109.121 36.8501Z" fill="#d09458" fill-opacity="0.541"/>
<path d="M78.7319 35.3172C78.2549 36.0545 78.3908 36.9902 79.0353 37.4072C79.6799 37.8241 80.5891 37.5645 81.066 36.8272C81.543 36.0899 81.4072 35.1542 80.7626 34.7372C80.1181 34.3202 79.2089 34.5799 78.7319 35.3172Z" fill="#d09458" fill-opacity="0.541"/>
<path d="M50.3412 35.8043C50.0009 36.6138 50.3194 37.5199 51.0525 37.8281C51.7857 38.1363 52.6559 37.7299 52.9962 36.9204C53.3364 36.1108 53.018 35.2048 52.2848 34.8966C51.5517 34.5884 50.6815 34.9948 50.3412 35.8043Z" fill="#d09458" fill-opacity="0.541"/>
<path d="M24.2011 37.7189C24.874 37.1721 25.0242 36.2423 24.5365 35.6423C24.0489 35.0422 23.1081 34.9991 22.4352 35.546C21.7623 36.0928 21.6121 37.0226 22.0997 37.6226C22.5874 38.2226 23.5282 38.2658 24.2011 37.7189Z" fill="#d09458" fill-opacity="0.541"/>
<path d="M67.7764 37.4212C67.2147 38.1666 67.3064 39.1832 67.9813 39.6917C68.6561 40.2002 69.6585 40.0082 70.2202 39.2628C70.7819 38.5174 70.6902 37.5008 70.0154 36.9923C69.3405 36.4838 68.3381 36.6758 67.7764 37.4212Z" fill="#d09458" fill-opacity="0.541"/>
<path d="M96.0312 37.2929C95.5127 38.0822 95.6238 39.0711 96.2792 39.5017C96.9347 39.9323 97.8864 39.6414 98.4049 38.8521C98.9234 38.0627 98.8124 37.0738 98.1569 36.6432C97.5014 36.2127 96.5497 36.5035 96.0312 37.2929Z" fill="#d09458" fill-opacity="0.541"/>
<path d="M39.5838 37.8439C39.0915 38.5711 39.2003 39.5044 39.8269 39.9286C40.4534 40.3528 41.3604 40.1072 41.8527 39.3801C42.345 38.6529 42.2362 37.7196 41.6097 37.2954C40.9832 36.8712 40.0762 37.1168 39.5838 37.8439Z" fill="#d09458" fill-opacity="0.541"/>
<path d="M13.379 40.026C14.0532 39.4295 14.1785 38.4697 13.6589 37.8824C13.1392 37.295 12.1714 37.3024 11.4972 37.8989C10.8229 38.4954 10.6976 39.4552 11.2173 40.0425C11.7369 40.6299 12.7048 40.6225 13.379 40.026Z" fill="#d09458" fill-opacity="0.541"/>
<path d="M113.371 39.4379C112.966 40.279 113.219 41.2403 113.936 41.5852C114.653 41.9301 115.562 41.5279 115.966 40.6869C116.371 39.8459 116.118 38.8845 115.402 38.5396C114.685 38.1947 113.776 38.5969 113.371 39.4379Z" fill="#d09458" fill-opacity="0.541"/>
<path d="M86.7784 41.9522L85.3284 41.6422C85.1942 41.6144 85.0676 41.5581 84.957 41.4773C84.8464 41.3964 84.7544 41.2929 84.6871 41.1735C84.6199 41.0542 84.5789 40.9218 84.5671 40.7853C84.5552 40.6488 84.5727 40.5114 84.6184 40.3822C85.0517 39.1489 85.8984 38.6255 87.1584 38.8122C87.3273 38.8379 87.4819 38.922 87.5952 39.0499C87.7085 39.1778 87.7733 39.3414 87.7784 39.5122L87.8384 41.0522C87.8443 41.1863 87.8195 41.3199 87.7658 41.4429C87.7122 41.5659 87.6311 41.675 87.5288 41.7618C87.4265 41.8487 87.3057 41.911 87.1757 41.944C87.0456 41.977 86.9097 41.9798 86.7784 41.9522Z" fill="#d09458" fill-opacity="0.541"/>
<path d="M58.9157 41.8381C59.6802 41.3028 59.9251 40.3333 59.4626 39.6728C59.0001 39.0123 58.0054 38.9108 57.2408 39.4462C56.4762 39.9815 56.2314 40.951 56.6939 41.6115C57.1564 42.272 58.1511 42.3735 58.9157 41.8381Z" fill="#d09458" fill-opacity="0.541"/>
<path d="M28.5069 40.3619C28.1488 41.2179 28.4368 42.1537 29.1501 42.452C29.8634 42.7504 30.7319 42.2984 31.09 41.4424C31.448 40.5865 31.16 39.6507 30.4467 39.3523C29.7334 39.0539 28.8649 39.5059 28.5069 40.3619Z" fill="#d09458" fill-opacity="0.541"/>
<path d="M102.268 42.7625C102.308 41.6291 102.848 40.9691 103.888 40.7825C104.066 40.7495 104.248 40.7578 104.421 40.8069C104.595 40.8561 104.755 40.9446 104.888 41.0655C105.022 41.1865 105.126 41.3368 105.191 41.5045C105.257 41.6722 105.284 41.8529 105.268 42.0325C105.155 43.4125 104.448 44.0091 103.148 43.8225C102.897 43.788 102.668 43.6603 102.505 43.4644C102.343 43.2684 102.258 43.0182 102.268 42.7625Z" fill="#d09458" fill-opacity="0.541"/>
<path d="M75.4282 44.1625C76.2897 44.1625 76.9882 43.464 76.9882 42.6025C76.9882 41.7409 76.2897 41.0425 75.4282 41.0425C74.5666 41.0425 73.8682 41.7409 73.8682 42.6025C73.8682 43.464 74.5666 44.1625 75.4282 44.1625Z" fill="#d09458" fill-opacity="0.541"/>
<path d="M17.681 42.4766C17.1842 43.2273 17.3264 44.1966 17.9988 44.6416C18.6712 45.0867 19.6191 44.8389 20.116 44.0882C20.6128 43.3376 20.4705 42.3682 19.7982 41.9232C19.1258 41.4781 18.1779 41.7259 17.681 42.4766Z" fill="#d09458" fill-opacity="0.541"/>
<path d="M47.9383 44.2122L47.6183 44.5422C47.4592 44.7083 47.2414 44.8054 47.0115 44.8129C46.7816 44.8204 46.5579 44.7376 46.3883 44.5822C45.1617 43.4622 45.2983 42.3822 46.7983 41.3422C46.9588 41.2315 47.1432 41.1605 47.3364 41.135C47.5297 41.1096 47.7262 41.1305 47.9098 41.1959C48.0934 41.2613 48.2589 41.3695 48.3925 41.5114C48.5261 41.6533 48.6241 41.8249 48.6783 42.0122C48.925 42.8655 48.7683 43.5155 48.2083 43.9622C48.1083 44.0422 48.0183 44.1255 47.9383 44.2122Z" fill="#d09458" fill-opacity="0.541"/>
<path d="M91.5124 43.9528C91.1192 44.738 91.3809 45.6652 92.097 46.0237C92.813 46.3823 93.7123 46.0365 94.1054 45.2513C94.4986 44.4661 94.2369 43.5389 93.5209 43.1803C92.8048 42.8218 91.9056 43.1676 91.5124 43.9528Z" fill="#d09458" fill-opacity="0.541"/>
<path d="M65.5463 46.036C66.2301 45.3687 66.3154 44.3471 65.7368 43.7542C65.1582 43.1613 64.1348 43.2216 63.451 43.8889C62.7672 44.5562 62.6819 45.5778 63.2605 46.1707C63.8391 46.7636 64.8625 46.7033 65.5463 46.036Z" fill="#d09458" fill-opacity="0.541"/>
<path d="M37.2055 46.3207C37.9303 45.6566 38.0672 44.6263 37.5112 44.0196C36.9553 43.4129 35.917 43.4595 35.1922 44.1236C34.4674 44.7878 34.3306 45.818 34.8865 46.4247C35.4425 47.0314 36.4807 46.9849 37.2055 46.3207Z" fill="#d09458" fill-opacity="0.541"/>
<path d="M7.90816 47.1025C8.75868 47.1025 9.44816 46.413 9.44816 45.5625C9.44816 44.7119 8.75868 44.0225 7.90816 44.0225C7.05765 44.0225 6.36816 44.7119 6.36816 45.5625C6.36816 46.413 7.05765 47.1025 7.90816 47.1025Z" fill="#d09458" fill-opacity="0.541"/>
<path d="M110.148 48.1722C111.015 48.1722 111.718 47.4693 111.718 46.6022C111.718 45.7351 111.015 45.0322 110.148 45.0322C109.281 45.0322 108.578 45.7351 108.578 46.6022C108.578 47.4693 109.281 48.1722 110.148 48.1722Z" fill="#d09458" fill-opacity="0.541"/>
<path d="M80.5931 46.2846C80.1553 47.0458 80.3671 47.9888 81.0661 48.3908C81.7651 48.7927 82.6867 48.5014 83.1244 47.7402C83.5621 46.9789 83.3503 46.036 82.6513 45.634C81.9523 45.2321 81.0308 45.5233 80.5931 46.2846Z" fill="#d09458" fill-opacity="0.541"/>
<path d="M52.3556 46.4494C51.8031 47.188 51.8715 48.1729 52.5083 48.6493C53.1451 49.1256 54.1093 48.9132 54.6617 48.1746C55.2142 47.4361 55.1459 46.4512 54.5091 45.9748C53.8722 45.4984 52.9081 45.7109 52.3556 46.4494Z" fill="#d09458" fill-opacity="0.541"/>
<path d="M25.2688 49.1024C26.1248 49.1024 26.8188 48.4085 26.8188 47.5524C26.8188 46.6964 26.1248 46.0024 25.2688 46.0024C24.4127 46.0024 23.7188 46.6964 23.7188 47.5524C23.7188 48.4085 24.4127 49.1024 25.2688 49.1024Z" fill="#d09458" fill-opacity="0.541"/>
<path d="M97.8474 48.223C97.3667 49.0423 97.564 50.0509 98.2881 50.4757C99.0121 50.9005 99.9888 50.5807 100.469 49.7614C100.95 48.942 100.753 47.9335 100.029 47.5087C99.3048 47.0839 98.3281 47.4037 97.8474 48.223Z" fill="#d09458" fill-opacity="0.541"/>
<path d="M70.2185 50.7324C67.7685 48.9724 71.5485 45.8024 72.6085 48.9224C72.6662 49.0889 72.6712 49.2688 72.6228 49.4372C72.5744 49.6056 72.4751 49.7542 72.3385 49.8624L71.2785 50.7024C71.1299 50.8235 70.9453 50.8921 70.7536 50.8975C70.5619 50.903 70.3738 50.8449 70.2185 50.7324Z" fill="#d09458" fill-opacity="0.541"/>
<path d="M43.5187 50.727C44.2671 50.1692 44.4751 49.1821 43.9833 48.5223C43.4915 47.8625 42.4862 47.7799 41.7378 48.3377C40.9895 48.8955 40.7815 49.8825 41.2733 50.5423C41.7651 51.2021 42.7704 51.2848 43.5187 50.727Z" fill="#d09458" fill-opacity="0.541"/>
<path d="M13.7032 48.5345L12.9802 49.2254C12.5171 49.668 12.5004 50.4023 12.943 50.8655L13.2746 51.2125C13.7173 51.6757 14.4515 51.6924 14.9147 51.2497L15.6377 50.5589C16.1009 50.1162 16.1175 49.382 15.6749 48.9188L15.3433 48.5718C14.9007 48.1086 14.1664 48.0919 13.7032 48.5345Z" fill="#d09458" fill-opacity="0.541"/>
<path d="M118.229 50.1121V51.3621C117.259 52.6521 115.269 53.3121 114.869 51.3121C114.826 51.0946 114.84 50.8702 114.908 50.6602C114.977 50.4501 115.097 50.2615 115.259 50.1121C116.286 49.1521 117.276 49.1521 118.229 50.1121Z" fill="#d09458" fill-opacity="0.541"/>
<path d="M89.3355 52.3086C90.0263 51.6485 90.113 50.6181 89.5292 50.0072C88.9454 49.3963 87.9122 49.4362 87.2214 50.0963C86.5307 50.7564 86.444 51.7867 87.0278 52.3976C87.6115 53.0085 88.6448 52.9687 89.3355 52.3086Z" fill="#d09458" fill-opacity="0.541"/>
<path d="M60.6446 52.8877C61.4502 52.486 61.8097 51.5714 61.4474 50.8448C61.0852 50.1183 60.1384 49.8549 59.3328 50.2566C58.5271 50.6583 58.1677 51.5729 58.5299 52.2994C58.8922 53.026 59.8389 53.2894 60.6446 52.8877Z" fill="#d09458" fill-opacity="0.541"/>
<path d="M30.4685 51.0787C29.9732 51.8502 30.118 52.8264 30.7919 53.259C31.4658 53.6916 32.4136 53.4169 32.9089 52.6454C33.4042 51.874 33.2594 50.8978 32.5855 50.4652C31.9116 50.0326 30.9638 50.3073 30.4685 51.0787Z" fill="#d09458" fill-opacity="0.541"/>
<path d="M2.97861 50.9425C3.0188 50.7963 3.09922 50.6643 3.21073 50.5615C3.32224 50.4588 3.46035 50.3894 3.60935 50.3612C3.75835 50.3331 3.91226 50.3474 4.05356 50.4024C4.19485 50.4574 4.31787 50.551 4.40861 50.6725C5.44861 52.0725 4.76861 53.8825 2.90861 53.7925C2.82479 53.7881 2.74304 53.7649 2.66938 53.7246C2.59573 53.6844 2.53207 53.6281 2.48311 53.5599C2.43414 53.4918 2.40112 53.4135 2.3865 53.3308C2.37187 53.2482 2.37601 53.1633 2.39861 53.0825L2.97861 50.9425Z" fill="#d09458" fill-opacity="0.541"/>
<path d="M104.992 51.8284L104.529 52.1049C103.883 52.4895 103.672 53.3243 104.057 53.9695L104.221 54.2443C104.605 54.8895 105.44 55.1007 106.085 54.7161L106.549 54.4396C107.194 54.055 107.405 53.2202 107.021 52.5751L106.857 52.3002C106.472 51.655 105.638 51.4438 104.992 51.8284Z" fill="#d09458" fill-opacity="0.541"/>
<path d="M78.0448 54.8862C78.8579 54.4281 79.1831 53.4637 78.771 52.7324C78.3589 52.001 77.3656 51.7796 76.5524 52.2378C75.7393 52.6959 75.4142 53.6603 75.8263 54.3916C76.2384 55.123 77.2316 55.3444 78.0448 54.8862Z" fill="#d09458" fill-opacity="0.541"/>
<path d="M50.0059 55.0591C50.7145 54.4688 50.8648 53.4811 50.3416 52.8531C49.8183 52.2251 48.8198 52.1946 48.1112 52.785C47.4026 53.3754 47.2523 54.3631 47.7755 54.9911C48.2987 55.619 49.2973 55.6495 50.0059 55.0591Z" fill="#d09458" fill-opacity="0.541"/>
<path d="M19.4917 53.5173C19.0379 54.3707 19.2551 55.3736 19.9768 55.7573C20.6985 56.1411 21.6514 55.7603 22.1052 54.907C22.5589 54.0536 22.3417 53.0507 21.62 52.667C20.8983 52.2833 19.9454 52.664 19.4917 53.5173Z" fill="#d09458" fill-opacity="0.541"/>
<path d="M93.5975 54.4993C92.9717 55.1992 92.9617 56.2113 93.5752 56.7597C94.1886 57.3082 95.1932 57.1855 95.819 56.4856C96.4448 55.7857 96.4548 54.7736 95.8414 54.2251C95.2279 53.6766 94.2233 53.7994 93.5975 54.4993Z" fill="#d09458" fill-opacity="0.541"/>
<path d="M65.3188 54.9165C64.6534 55.625 64.584 56.6408 65.1637 57.1852C65.7435 57.7296 66.7528 57.5965 67.4182 56.888C68.0836 56.1794 68.1531 55.1636 67.5733 54.6192C66.9936 54.0748 65.9842 54.2079 65.3188 54.9165Z" fill="#d09458" fill-opacity="0.541"/>
<path d="M39.1183 57.3326C39.8306 56.6958 39.9514 55.6689 39.3882 55.039C38.825 54.409 37.791 54.4146 37.0787 55.0515C36.3665 55.6883 36.2456 56.7152 36.8089 57.3452C37.3721 57.9751 38.4061 57.9695 39.1183 57.3326Z" fill="#d09458" fill-opacity="0.541"/>
<path d="M8.49076 55.9615C8.16716 56.8133 8.49496 57.7281 9.22293 58.0046C9.9509 58.2812 10.8034 57.8148 11.127 56.9629C11.4506 56.111 11.1228 55.1962 10.3948 54.9197C9.66682 54.6432 8.81435 55.1096 8.49076 55.9615Z" fill="#d09458" fill-opacity="0.541"/>
<path d="M112.059 59.1321C112.965 59.1321 113.699 58.3978 113.699 57.4921C113.699 56.5863 112.965 55.8521 112.059 55.8521C111.153 55.8521 110.419 56.5863 110.419 57.4921C110.419 58.3978 111.153 59.1321 112.059 59.1321Z" fill="#d09458" fill-opacity="0.541"/>
<path d="M82.349 57.3463C82.0102 58.2337 82.3754 59.1975 83.1648 59.4989C83.9542 59.8004 84.8688 59.3253 85.2077 58.4379C85.5466 57.5505 85.1814 56.5867 84.392 56.2852C83.6026 55.9838 82.6879 56.4588 82.349 57.3463Z" fill="#d09458" fill-opacity="0.541"/>
<path d="M27.1483 60.1023C28.043 60.1023 28.7683 59.377 28.7683 58.4823C28.7683 57.5876 28.043 56.8623 27.1483 56.8623C26.2536 56.8623 25.5283 57.5876 25.5283 58.4823C25.5283 59.377 26.2536 60.1023 27.1483 60.1023Z" fill="#d09458" fill-opacity="0.541"/>
<path d="M54.3075 57.3374C53.7588 58.0372 53.8249 59.005 54.4551 59.4991C55.0853 59.9932 56.0409 59.8266 56.5896 59.1268C57.1382 58.4271 57.0721 57.4593 56.442 56.9652C55.8118 56.471 54.8561 56.6377 54.3075 57.3374Z" fill="#d09458" fill-opacity="0.541"/>
<path d="M102.204 61.0218C102.876 60.3819 102.939 59.3574 102.345 58.7335C101.751 58.1096 100.724 58.1225 100.053 58.7623C99.3806 59.4022 99.3176 60.4267 99.9117 61.0506C100.506 61.6745 101.532 61.6616 102.204 61.0218Z" fill="#d09458" fill-opacity="0.541"/>
<path d="M73.0002 58.5839L72.3244 58.6597C71.7262 58.7269 71.2956 59.2662 71.3627 59.8645L71.472 60.8383C71.5391 61.4366 72.0784 61.8672 72.6767 61.8001L73.3524 61.7243C73.9507 61.6572 74.3812 61.1178 74.3141 60.5195L74.2049 59.5457C74.1378 58.9474 73.5984 58.5168 73.0002 58.5839Z" fill="#d09458" fill-opacity="0.541"/>
<path d="M44.5287 62.0624C45.3903 62.0624 46.0887 61.3639 46.0887 60.5024C46.0887 59.6408 45.3903 58.9424 44.5287 58.9424C43.6672 58.9424 42.9688 59.6408 42.9688 60.5024C42.9688 61.3639 43.6672 62.0624 44.5287 62.0624Z" fill="#d09458" fill-opacity="0.541"/>
<path d="M14.93 60.1468C14.5291 60.9651 14.8032 61.922 15.5422 62.2841C16.2812 62.6461 17.2052 62.2762 17.6061 61.4578C18.007 60.6395 17.733 59.6826 16.994 59.3206C16.255 58.9585 15.3309 59.3285 14.93 60.1468Z" fill="#d09458" fill-opacity="0.541"/>
<path d="M91.1183 63.3326C91.8306 62.6958 91.9514 61.6689 91.3882 61.039C90.825 60.409 89.791 60.4146 89.0787 61.0515C88.3665 61.6883 88.2456 62.7152 88.8089 63.3452C89.3721 63.9751 90.4061 63.9695 91.1183 63.3326Z" fill="#d09458" fill-opacity="0.541"/>
<path d="M60.6477 61.7342C60.1829 62.4987 60.357 63.4534 61.0365 63.8665C61.7161 64.2797 62.6438 63.9949 63.1086 63.2304C63.5734 62.4659 63.3993 61.5113 62.7198 61.0981C62.0402 60.6849 61.1125 60.9697 60.6477 61.7342Z" fill="#d09458" fill-opacity="0.541"/>
<path d="M116.989 62.6224C116.655 61.949 116.829 61.2657 117.509 60.5724C118.089 59.979 118.272 60.0824 118.059 60.8824L117.619 62.5624C117.6 62.628 117.562 62.6864 117.509 62.7301C117.457 62.7737 117.392 62.8005 117.324 62.807C117.256 62.8135 117.188 62.7993 117.128 62.7664C117.068 62.7334 117.02 62.6833 116.989 62.6224Z" fill="#d09458" fill-opacity="0.541"/>
<path d="M34.5527 63.9051C35.2454 63.2879 35.3752 62.3028 34.8424 61.7049C34.3097 61.107 33.3163 61.1226 32.6235 61.7398C31.9307 62.3571 31.801 63.3421 32.3337 63.94C32.8664 64.538 33.8599 64.5223 34.5527 63.9051Z" fill="#d09458" fill-opacity="0.541"/>
<path d="M3.96005 62.3884C3.50057 63.2072 3.71375 64.1996 4.4362 64.605C5.15864 65.0104 6.11678 64.6753 6.57625 63.8565C7.03573 63.0378 6.82255 62.0454 6.1001 61.6399C5.37765 61.2345 4.41952 61.5696 3.96005 62.3884Z" fill="#d09458" fill-opacity="0.541"/>
<path d="M108.521 65.38C109.264 64.7539 109.423 63.719 108.875 63.0684C108.327 62.4178 107.28 62.398 106.537 63.0241C105.793 63.6502 105.635 64.6851 106.182 65.3357C106.73 65.9863 107.777 66.0061 108.521 65.38Z" fill="#d09458" fill-opacity="0.541"/>
<path d="M79.1886 66.0924C80.1109 66.0924 80.8586 65.3448 80.8586 64.4224C80.8586 63.5001 80.1109 62.7524 79.1886 62.7524C78.2662 62.7524 77.5186 63.5001 77.5186 64.4224C77.5186 65.3448 78.2662 66.0924 79.1886 66.0924Z" fill="#d09458" fill-opacity="0.541"/>
<path d="M50.9784 66.4622C51.851 66.4622 52.5584 65.7549 52.5584 64.8822C52.5584 64.0096 51.851 63.3022 50.9784 63.3022C50.1058 63.3022 49.3984 64.0096 49.3984 64.8822C49.3984 65.7549 50.1058 66.4622 50.9784 66.4622Z" fill="#d09458" fill-opacity="0.541"/>
<path d="M21.4615 64.181C20.8805 64.9465 20.9587 65.9838 21.6361 66.4981C22.3136 67.0123 23.3338 66.8086 23.9148 66.0432C24.4958 65.2777 24.4176 64.2404 23.7401 63.7261C23.0627 63.2119 22.0425 63.4156 21.4615 64.181Z" fill="#d09458" fill-opacity="0.541"/>
<path d="M96.5983 68.052C97.4875 68.052 98.2083 67.3312 98.2083 66.442C98.2083 65.5529 97.4875 64.832 96.5983 64.832C95.7091 64.832 94.9883 65.5529 94.9883 66.442C94.9883 67.3312 95.7091 68.052 96.5983 68.052Z" fill="#d09458" fill-opacity="0.541"/>
<path d="M67.0746 65.8182C66.5106 66.5479 66.606 67.5666 67.2876 68.0935C67.9693 68.6204 68.9792 68.4559 69.5432 67.7261C70.1072 66.9964 70.0118 65.9777 69.3301 65.4508C68.6485 64.9239 67.6386 65.0884 67.0746 65.8182Z" fill="#d09458" fill-opacity="0.541"/>
<path d="M38.7681 66.1902C38.2247 66.9491 38.3485 67.9683 39.0446 68.4666C39.7406 68.9649 40.7453 68.7537 41.2887 67.9947C41.832 67.2358 41.7082 66.2166 41.0122 65.7183C40.3161 65.22 39.3114 65.4312 38.7681 66.1902Z" fill="#d09458" fill-opacity="0.541"/>
<path d="M10.5111 66.6977C10.0317 67.4986 10.1925 68.4766 10.8702 68.8822C11.5479 69.2878 12.4858 68.9673 12.9651 68.1664C13.4444 67.3656 13.2836 66.3875 12.606 65.9819C11.9283 65.5764 10.9904 65.8968 10.5111 66.6977Z" fill="#d09458" fill-opacity="0.541"/>
<path d="M113.968 70.0623C114.858 70.0623 115.578 69.3415 115.578 68.4523C115.578 67.5631 114.858 66.8423 113.968 66.8423C113.079 66.8423 112.358 67.5631 112.358 68.4523C112.358 69.3415 113.079 70.0623 113.968 70.0623Z" fill="#d09458" fill-opacity="0.541"/>
<path d="M84.3833 67.849C83.8244 68.6239 83.9197 69.6476 84.5961 70.1354C85.2725 70.6232 86.2739 70.3905 86.8327 69.6155C87.3916 68.8406 87.2964 67.8169 86.62 67.3291C85.9436 66.8413 84.9422 67.074 84.3833 67.849Z" fill="#d09458" fill-opacity="0.541"/>
<path d="M56.1879 68.2534C55.6031 69.002 55.6441 70.0113 56.2795 70.5077C56.9149 71.0041 57.9041 70.7997 58.4889 70.0512C59.0737 69.3026 59.0328 68.2934 58.3974 67.7969C57.762 67.3005 56.7728 67.5049 56.1879 68.2534Z" fill="#d09458" fill-opacity="0.541"/>
<path d="M30.041 70.6195C30.7844 70.0281 30.9607 69.0127 30.4347 68.3514C29.9086 67.69 28.8795 67.6333 28.1361 68.2247C27.3927 68.816 27.2165 69.8315 27.7425 70.4928C28.2685 71.1541 29.2976 71.2108 30.041 70.6195Z" fill="#d09458" fill-opacity="0.541"/>
<path d="M1.14895 71.3321C1.09133 71.369 1.02501 71.3901 0.956652 71.3933C0.888292 71.3965 0.820298 71.3816 0.759499 71.3502C0.6987 71.3188 0.647237 71.2719 0.61028 71.2143C0.573322 71.1567 0.55217 71.0904 0.548949 71.0221L0.488949 68.5221C0.482149 68.3664 0.527452 68.213 0.617688 68.086C0.707923 67.959 0.837934 67.8658 0.987138 67.821C1.13634 67.7763 1.29621 67.7825 1.44144 67.8389C1.58667 67.8952 1.70896 67.9984 1.78895 68.1321C2.60895 69.4387 2.39562 70.5054 1.14895 71.3321Z" fill="#d09458" fill-opacity="0.541"/>
<path d="M103.048 72.4324C103.932 72.4324 104.648 71.7161 104.648 70.8324C104.648 69.9488 103.932 69.2324 103.048 69.2324C102.165 69.2324 101.448 69.9488 101.448 70.8324C101.448 71.7161 102.165 72.4324 103.048 72.4324Z" fill="#d09458" fill-opacity="0.541"/>
<path d="M75.801 72.1949C76.4709 71.506 76.5294 70.4762 75.9315 69.8948C75.3337 69.3134 74.3059 69.4006 73.6359 70.0895C72.966 70.7784 72.9075 71.8082 73.5054 72.3896C74.1033 72.971 75.131 72.8839 75.801 72.1949Z" fill="#d09458" fill-opacity="0.541"/>
<path d="M45.3074 70.3456C44.6731 71.0378 44.6607 72.0587 45.2796 72.6258C45.8985 73.193 46.9145 73.0916 47.5488 72.3994C48.1831 71.7071 48.1955 70.6862 47.5766 70.1191C46.9577 69.552 45.9417 69.6534 45.3074 70.3456Z" fill="#d09458" fill-opacity="0.541"/>
<path d="M18.9506 72.9856C19.7691 72.482 20.0737 71.4904 19.6309 70.7707C19.1882 70.051 18.1657 69.8757 17.3472 70.3793C16.5288 70.8828 16.2242 71.8745 16.6669 72.5942C17.1097 73.3139 18.1321 73.4891 18.9506 72.9856Z" fill="#d09458" fill-opacity="0.541"/>
<path d="M90.9488 72.0146C90.2671 72.7229 90.2113 73.7752 90.8242 74.365C91.437 74.9548 92.4864 74.8586 93.1681 74.1503C93.8497 73.4419 93.9055 72.3896 93.2927 71.7998C92.6799 71.2101 91.6305 71.3062 90.9488 72.0146Z" fill="#d09458" fill-opacity="0.541"/>
<path d="M62.4146 72.8443C62.0862 73.718 62.4486 74.6625 63.2241 74.954C63.9995 75.2455 64.8944 74.7735 65.2228 73.8998C65.5512 73.0261 65.1888 72.0816 64.4133 71.7901C63.6378 71.4986 62.743 71.9706 62.4146 72.8443Z" fill="#d09458" fill-opacity="0.541"/>
<path d="M34.3883 72.7356C33.7931 73.4474 33.8121 74.4438 34.4307 74.961C35.0493 75.4782 36.0333 75.3205 36.6284 74.6087C37.2236 73.8969 37.2046 72.9005 36.586 72.3833C35.9674 71.8661 34.9835 72.0238 34.3883 72.7356Z" fill="#d09458" fill-opacity="0.541"/>
<path d="M5.92466 73.3505C5.4714 74.1853 5.67447 75.1718 6.37823 75.5539C7.082 75.936 8.01996 75.569 8.47323 74.7342C8.9265 73.8994 8.72343 72.9129 8.01966 72.5308C7.31589 72.1487 6.37793 72.5156 5.92466 73.3505Z" fill="#d09458" fill-opacity="0.541"/>
<path d="M108.17 74.2804C107.62 75.0954 107.72 76.1241 108.393 76.5781C109.066 77.0321 110.057 76.7394 110.607 75.9244C111.157 75.1094 111.057 74.0807 110.384 73.6267C109.711 73.1727 108.72 73.4654 108.17 74.2804Z" fill="#d09458" fill-opacity="0.541"/>
<path d="M81.1386 77.0422C82.0333 77.0422 82.7586 76.317 82.7586 75.4222C82.7586 74.5275 82.0333 73.8022 81.1386 73.8022C80.2439 73.8022 79.5186 74.5275 79.5186 75.4222C79.5186 76.317 80.2439 77.0422 81.1386 77.0422Z" fill="#d09458" fill-opacity="0.541"/>
<path d="M52.8784 77.2723C53.7399 77.2723 54.4384 76.5739 54.4384 75.7123C54.4384 74.8508 53.7399 74.1523 52.8784 74.1523C52.0168 74.1523 51.3184 74.8508 51.3184 75.7123C51.3184 76.5739 52.0168 77.2723 52.8784 77.2723Z" fill="#d09458" fill-opacity="0.541"/>
<path d="M23.2709 75.4154C22.8593 76.2408 23.1067 77.1996 23.8234 77.5569C24.54 77.9143 25.4546 77.5348 25.8662 76.7094C26.2777 75.884 26.0303 74.9252 25.3137 74.5679C24.597 74.2105 23.6824 74.59 23.2709 75.4154Z" fill="#d09458" fill-opacity="0.541"/>
<path d="M98.5282 79.0125C99.4229 79.0125 100.148 78.2872 100.148 77.3925C100.148 76.4978 99.4229 75.7725 98.5282 75.7725C97.6335 75.7725 96.9082 76.4978 96.9082 77.3925C96.9082 78.2872 97.6335 79.0125 98.5282 79.0125Z" fill="#d09458" fill-opacity="0.541"/>
<path d="M71.1078 78.8762C71.8557 78.2641 72.0281 77.2377 71.4929 76.5838C70.9577 75.9299 69.9176 75.8961 69.1697 76.5083C68.4217 77.1204 68.2493 78.1468 68.7845 78.8007C69.3197 79.4546 70.3599 79.4884 71.1078 78.8762Z" fill="#d09458" fill-opacity="0.541"/>
<path d="M41.9586 79.7024C42.8478 79.7024 43.5686 78.9816 43.5686 78.0924C43.5686 77.2032 42.8478 76.4824 41.9586 76.4824C41.0695 76.4824 40.3486 77.2032 40.3486 78.0924C40.3486 78.9816 41.0695 79.7024 41.9586 79.7024Z" fill="#d09458" fill-opacity="0.541"/>
<path d="M12.4509 77.8715C12.1221 78.6976 12.3964 79.5826 13.0635 79.8481C13.7305 80.1135 14.5379 79.659 14.8666 78.8328C15.1954 78.0067 14.9211 77.1217 14.254 76.8562C13.587 76.5908 12.7796 77.0453 12.4509 77.8715Z" fill="#d09458" fill-opacity="0.541"/>
<path d="M88.4363 80.8587C89.2016 80.3148 89.4382 79.3338 88.9647 78.6675C88.4912 78.0012 87.487 77.902 86.7217 78.4459C85.9563 78.9898 85.7198 79.9708 86.1933 80.6371C86.6668 81.3033 87.671 81.4025 88.4363 80.8587Z" fill="#d09458" fill-opacity="0.541"/>
<path d="M60.5226 78.9876L60.3093 78.7766C59.7912 78.2638 58.9554 78.2682 58.4426 78.7864L57.9643 79.2697C57.4515 79.7879 57.4559 80.6237 57.9741 81.1365L58.1873 81.3475C58.7055 81.8603 59.5413 81.8559 60.0541 81.3377L60.5324 80.8544C61.0451 80.3362 61.0408 79.5004 60.5226 78.9876Z" fill="#d09458" fill-opacity="0.541"/>
<path d="M29.6756 79.4847C29.1592 80.3017 29.3195 81.33 30.0338 81.7815C30.748 82.233 31.7457 81.9368 32.2621 81.1198C32.7786 80.3029 32.6183 79.2746 31.904 78.8231C31.1898 78.3715 30.1921 78.6678 29.6756 79.4847Z" fill="#d09458" fill-opacity="0.541"/>
<path d="M2.79859 82.0122C3.6215 82.0122 4.28859 81.3451 4.28859 80.5222C4.28859 79.6993 3.6215 79.0322 2.79859 79.0322C1.97569 79.0322 1.30859 79.6993 1.30859 80.5222C1.30859 81.3451 1.97569 82.0122 2.79859 82.0122Z" fill="#d09458" fill-opacity="0.541"/>
<path d="M104.928 83.2523C105.79 83.2523 106.488 82.5539 106.488 81.6923C106.488 80.8308 105.79 80.1323 104.928 80.1323C104.067 80.1323 103.368 80.8308 103.368 81.6923C103.368 82.5539 104.067 83.2523 104.928 83.2523Z" fill="#d09458" fill-opacity="0.541"/>
<path d="M75.3629 81.3672C74.8879 82.1899 75.0651 83.1814 75.7586 83.5818C76.4522 83.9822 77.3994 83.6399 77.8744 82.8172C78.3493 81.9945 78.1722 81.003 77.4786 80.6026C76.7851 80.2022 75.8379 80.5445 75.3629 81.3672Z" fill="#d09458" fill-opacity="0.541"/>
<path d="M49.2823 83.4996C50.0153 82.8954 50.1823 81.8874 49.6554 81.2481C49.1284 80.6089 48.1071 80.5805 47.3741 81.1848C46.6411 81.789 46.474 82.797 47.001 83.4362C47.5279 84.0755 48.5493 84.1039 49.2823 83.4996Z" fill="#d09458" fill-opacity="0.541"/>
<path d="M20.5557 83.9948C21.3922 83.71 21.8611 82.8646 21.603 82.1065C21.3449 81.3484 20.4576 80.9647 19.6211 81.2495C18.7846 81.5343 18.3157 82.3797 18.5737 83.1378C18.8318 83.8959 19.7191 84.2796 20.5557 83.9948Z" fill="#d09458" fill-opacity="0.541"/>
<path d="M65.8488 82.6822C66.0473 82.6552 66.2494 82.6747 66.4391 82.7393C66.6288 82.8039 66.8008 82.9119 66.9415 83.0545C67.0822 83.1972 67.1878 83.3706 67.2498 83.5612C67.3118 83.7517 67.3286 83.9541 67.2988 84.1522C67.1188 85.3922 66.4554 86.0156 65.3088 86.0222C65.0437 86.0217 64.7882 85.9246 64.5908 85.7495C64.3935 85.5743 64.2682 85.3332 64.2388 85.0722C64.0654 83.6522 64.6021 82.8556 65.8488 82.6822Z" fill="#d09458" fill-opacity="0.541"/>
<path d="M93.9589 85.7122C94.8536 85.7122 95.5789 84.9869 95.5789 84.0922C95.5789 83.1975 94.8536 82.4722 93.9589 82.4722C93.0642 82.4722 92.3389 83.1975 92.3389 84.0922C92.3389 84.9869 93.0642 85.7122 93.9589 85.7122Z" fill="#d09458" fill-opacity="0.541"/>
<path d="M38.2493 85.7969C38.9578 85.2688 39.1335 84.3058 38.6417 83.646C38.1499 82.9862 37.1769 82.8795 36.4684 83.4076C35.7599 83.9357 35.5842 84.8986 36.076 85.5584C36.5678 86.2182 37.5408 86.325 38.2493 85.7969Z" fill="#d09458" fill-opacity="0.541"/>
<path d="M10.0356 86.1523C10.7639 85.5954 10.9573 84.6247 10.4676 83.9842C9.97784 83.3436 8.9904 83.2757 8.26209 83.8326C7.53377 84.3894 7.34038 85.3601 7.83013 86.0007C8.31988 86.6412 9.30731 86.7091 10.0356 86.1523Z" fill="#d09458" fill-opacity="0.541"/>
<path d="M82.3684 85.0322C82.5694 84.8264 82.8321 84.693 83.1148 84.6531C83.3974 84.6133 83.6838 84.6693 83.9284 84.8122C88.3784 87.3722 77.8084 89.7022 82.3684 85.0322Z" fill="#d09458" fill-opacity="0.541"/>
<path d="M54.7487 88.142C55.5937 88.142 56.2787 87.457 56.2787 86.612C56.2787 85.767 55.5937 85.082 54.7487 85.082C53.9038 85.082 53.2188 85.767 53.2188 86.612C53.2188 87.457 53.9038 88.142 54.7487 88.142Z" fill="#d09458" fill-opacity="0.541"/>
<path d="M25.7959 85.6881L25.2913 86.144C24.775 86.6106 24.7346 87.4073 25.2012 87.9237L25.4023 88.1463C25.8688 88.6626 26.6656 88.7029 27.1819 88.2364L27.6865 87.7805C28.2028 87.314 28.2432 86.5172 27.7766 86.0009L27.5755 85.7783C27.109 85.262 26.3122 85.2216 25.7959 85.6881Z" fill="#d09458" fill-opacity="0.541"/>
<path d="M100.599 89.9322L99.5885 89.7622C99.4318 89.7386 99.2846 89.673 99.163 89.5725C99.0414 89.472 98.9499 89.3405 98.8985 89.1922C98.5052 88.0589 98.9785 87.2622 100.319 86.8022C100.485 86.7458 100.662 86.7291 100.835 86.7537C101.009 86.7782 101.175 86.8432 101.319 86.9434C101.463 87.0436 101.581 87.1763 101.665 87.3307C101.748 87.485 101.794 87.6569 101.799 87.8322L101.829 88.8622C101.832 89.0178 101.801 89.1722 101.738 89.3146C101.675 89.4569 101.582 89.5836 101.465 89.6858C101.347 89.7879 101.209 89.8629 101.059 89.9055C100.909 89.9481 100.752 89.9572 100.599 89.9322Z" fill="#d09458" fill-opacity="0.541"/>
<path d="M72.8456 90.0041C73.6716 89.5815 74.0291 88.629 73.6442 87.8768C73.2592 87.1246 72.2776 86.8574 71.4516 87.2801C70.6256 87.7028 70.2681 88.6552 70.653 89.4074C71.038 90.1597 72.0196 90.4268 72.8456 90.0041Z" fill="#d09458" fill-opacity="0.541"/>
<path d="M42.5039 88.3774C42.1458 89.2334 42.471 90.1847 43.2301 90.5023C43.9893 90.8198 44.895 90.3834 45.253 89.5274C45.6111 88.6714 45.2859 87.7201 44.5268 87.4025C43.7676 87.085 42.8619 87.5214 42.5039 88.3774Z" fill="#d09458" fill-opacity="0.541"/>
<path d="M14.2143 88.5454C13.7613 89.3867 13.9736 90.3807 14.6884 90.7656C15.4032 91.1505 16.3499 90.7805 16.8029 89.9392C17.2558 89.098 17.0436 88.104 16.3287 87.7191C15.6139 87.3342 14.6672 87.7042 14.2143 88.5454Z" fill="#d09458" fill-opacity="0.541"/>
<path d="M89.4487 92.1625C90.3102 92.1625 91.0087 91.464 91.0087 90.6025C91.0087 89.7409 90.3102 89.0425 89.4487 89.0425C88.5871 89.0425 87.8887 89.7409 87.8887 90.6025C87.8887 91.464 88.5871 92.1625 89.4487 92.1625Z" fill="#d09458" fill-opacity="0.541"/>
<path d="M59.8608 90.2474C59.3913 91.0605 59.5963 92.0577 60.3185 92.4746C61.0407 92.8916 62.0067 92.5705 62.4762 91.7574C62.9456 90.9443 62.7407 89.9471 62.0185 89.5302C61.2963 89.1132 60.3302 89.4343 59.8608 90.2474Z" fill="#d09458" fill-opacity="0.541"/>
<path d="M32.339 92.8621C32.1673 92.8599 32.0011 92.8045 31.8645 92.7038C31.7279 92.6032 31.6279 92.4625 31.579 92.3021C30.399 88.5021 35.919 89.2621 34.339 91.8921C33.939 92.5521 33.2723 92.8754 32.339 92.8621Z" fill="#d09458" fill-opacity="0.541"/>
<path d="M4.909 90.3323C4.89316 90.2897 4.89025 90.2435 4.90064 90.1993C4.91104 90.1551 4.93426 90.115 4.96741 90.084C5.00055 90.053 5.04212 90.0325 5.08689 90.0251C5.13166 90.0176 5.17763 90.0236 5.219 90.0423C5.879 90.3356 6.12567 90.8589 5.959 91.6123C5.80567 92.3189 5.609 92.3323 5.369 91.6523L4.909 90.3323Z" fill="#d09458" fill-opacity="0.737"/>
<path d="M78.4986 94.6525C79.4319 94.6525 80.1886 93.8958 80.1886 92.9625C80.1886 92.0291 79.4319 91.2725 78.4986 91.2725C77.5652 91.2725 76.8086 92.0291 76.8086 92.9625C76.8086 93.8958 77.5652 94.6525 78.4986 94.6525Z" fill="#d09458" fill-opacity="0.541"/>
<path d="M49.0629 92.5645C48.6279 93.321 48.8419 94.26 49.5409 94.662C50.24 95.0639 51.1592 94.7766 51.5942 94.0201C52.0292 93.2636 51.8152 92.3245 51.1162 91.9226C50.4172 91.5207 49.4979 91.808 49.0629 92.5645Z" fill="#d09458" fill-opacity="0.541"/>
<path d="M21.9982 95.1522C22.8763 95.1522 23.5882 94.4403 23.5882 93.5622C23.5882 92.684 22.8763 91.9722 21.9982 91.9722C21.1201 91.9722 20.4082 92.684 20.4082 93.5622C20.4082 94.4403 21.1201 95.1522 21.9982 95.1522Z" fill="#d09458" fill-opacity="0.541"/>
<path d="M94.4836 94.48C94.192 95.3724 94.6024 96.3073 95.4003 96.5681C96.1982 96.8289 97.0815 96.3169 97.3732 95.4245C97.6649 94.532 97.2545 93.5972 96.4566 93.3364C95.6587 93.0756 94.7753 93.5876 94.4836 94.48Z" fill="#d09458" fill-opacity="0.541"/>
<path d="M68.5306 96.4248C69.2445 95.8151 69.4017 94.8271 68.8816 94.2182C68.3615 93.6093 67.3611 93.6099 66.6472 94.2197C65.9332 94.8294 65.7761 95.8174 66.2962 96.4263C66.8163 97.0353 67.8166 97.0346 68.5306 96.4248Z" fill="#d09458" fill-opacity="0.541"/>
<path d="M39.3085 97.1322C40.1811 97.1322 40.8885 96.4248 40.8885 95.5522C40.8885 94.6796 40.1811 93.9722 39.3085 93.9722C38.4359 93.9722 37.7285 94.6796 37.7285 95.5522C37.7285 96.4248 38.4359 97.1322 39.3085 97.1322Z" fill="#d09458" fill-opacity="0.541"/>
<path d="M10.5655 94.5201L9.82576 95.1001C9.33465 95.4852 9.24869 96.1955 9.63377 96.6866L9.90527 97.0329C10.2904 97.524 11.0006 97.6099 11.4918 97.2248L12.2315 96.6448C12.7226 96.2597 12.8085 95.5494 12.4235 95.0583L12.152 94.7121C11.7669 94.221 11.0566 94.135 10.5655 94.5201Z" fill="#d09458" fill-opacity="0.541"/>
<path d="M83.8864 96.2472C83.2421 96.9527 83.2224 97.9836 83.8423 98.5496C84.4622 99.1157 85.487 99.0026 86.1313 98.2971C86.7756 97.5915 86.7953 96.5607 86.1754 95.9946C85.5555 95.4285 84.5307 95.5416 83.8864 96.2472Z" fill="#d09458" fill-opacity="0.541"/>
<path d="M55.4688 96.6972C54.9668 97.4643 55.1106 98.4466 55.7899 98.8911C56.4693 99.3357 57.4269 99.0741 57.9289 98.307C58.4309 97.5399 58.2872 96.5576 57.6078 96.1131C56.9285 95.6685 55.9709 95.93 55.4688 96.6972Z" fill="#d09458" fill-opacity="0.541"/>
<path d="M27.3343 96.877C26.7001 97.5619 26.6624 98.5581 27.2499 99.1022C27.8375 99.6463 28.8279 99.5323 29.4621 98.8474C30.0963 98.1626 30.134 97.1663 29.5464 96.6222C28.9589 96.0781 27.9684 96.1922 27.3343 96.877Z" fill="#d09458" fill-opacity="0.541"/>
<path d="M74.0482 101.162C74.9539 101.162 75.6882 100.428 75.6882 99.5223C75.6882 98.6166 74.9539 97.8823 74.0482 97.8823C73.1425 97.8823 72.4082 98.6166 72.4082 99.5223C72.4082 100.428 73.1425 101.162 74.0482 101.162Z" fill="#d09458" fill-opacity="0.541"/>
<path d="M44.2966 99.4233C44.0174 100.32 44.4366 101.247 45.2328 101.495C46.029 101.743 46.9008 101.218 47.18 100.321C47.4592 99.4249 47.0401 98.4972 46.2439 98.2492C45.4476 98.0012 44.5758 98.5269 44.2966 99.4233Z" fill="#d09458" fill-opacity="0.541"/>
<path d="M16.1804 99.5194C15.7279 100.336 15.9289 101.312 16.6293 101.701C17.3297 102.089 18.2643 101.742 18.7168 100.925C19.1693 100.109 18.9683 99.1325 18.2679 98.7443C17.5675 98.356 16.6329 98.7031 16.1804 99.5194Z" fill="#d09458" fill-opacity="0.541"/>
<path d="M92.0538 102.572C92.8616 102.051 93.1963 101.133 92.8014 100.52C92.4064 99.907 91.4315 99.8323 90.6237 100.353C89.816 100.873 89.4813 101.792 89.8762 102.405C90.2711 103.018 91.2461 103.093 92.0538 102.572Z" fill="#d09458" fill-opacity="0.541"/>
<path d="M64.1277 103.046C64.8364 102.439 64.968 101.43 64.4217 100.792C63.8754 100.155 62.8581 100.131 62.1494 100.738C61.4407 101.345 61.3091 102.355 61.8554 102.992C62.4017 103.629 63.4191 103.654 64.1277 103.046Z" fill="#d09458" fill-opacity="0.541"/>
<path d="M33.5086 101.675C33.1584 102.564 33.4744 103.521 34.2144 103.812C34.9543 104.104 35.838 103.619 36.1882 102.73C36.5384 101.841 36.2224 100.884 35.4825 100.593C34.7425 100.301 33.8588 100.786 33.5086 101.675Z" fill="#d09458" fill-opacity="0.541"/>
<path d="M81.4635 105.004C82.1878 104.381 82.3429 103.374 81.8099 102.754C81.2769 102.134 80.2576 102.137 79.5333 102.76C78.8089 103.383 78.6538 104.391 79.1868 105.01C79.7198 105.63 80.7391 105.627 81.4635 105.004Z" fill="#d09458" fill-opacity="0.541"/>
<path d="M51.0309 103.132C50.3672 103.82 50.3251 104.856 50.9369 105.446C51.5488 106.037 52.5828 105.959 53.2465 105.272C53.9102 104.585 53.9523 103.548 53.3405 102.958C52.7286 102.367 51.6946 102.445 51.0309 103.132Z" fill="#d09458" fill-opacity="0.541"/>
<path d="M22.6544 103.65C22.1453 104.399 22.2807 105.379 22.9567 105.838C23.6327 106.298 24.5935 106.063 25.1026 105.314C25.6117 104.565 25.4764 103.585 24.8003 103.126C24.1243 102.666 23.1635 102.901 22.6544 103.65Z" fill="#d09458" fill-opacity="0.541"/>
<path d="M68.2015 105.542C67.7553 106.375 67.9696 107.358 68.6802 107.739C69.3908 108.12 70.3287 107.754 70.7749 106.922C71.2212 106.09 71.0069 105.106 70.2963 104.725C69.5857 104.344 68.6478 104.71 68.2015 105.542Z" fill="#d09458" fill-opacity="0.541"/>
<path d="M41.2182 108.072C42.1018 108.072 42.8182 107.356 42.8182 106.472C42.8182 105.588 42.1018 104.872 41.2182 104.872C40.3345 104.872 39.6182 105.588 39.6182 106.472C39.6182 107.356 40.3345 108.072 41.2182 108.072Z" fill="#d09458" fill-opacity="0.541"/>
<path d="M58.5987 110.082C59.499 110.082 60.2287 109.352 60.2287 108.452C60.2287 107.552 59.499 106.822 58.5987 106.822C57.6985 106.822 56.9688 107.552 56.9688 108.452C56.9688 109.352 57.6985 110.082 58.5987 110.082Z" fill="#d09458" fill-opacity="0.541"/>
<path d="M30.3083 110.372C31.1754 110.372 31.8783 109.67 31.8783 108.802C31.8783 107.935 31.1754 107.232 30.3083 107.232C29.4412 107.232 28.7383 107.935 28.7383 108.802C28.7383 109.67 29.4412 110.372 30.3083 110.372Z" fill="#d09458" fill-opacity="0.541"/>
<path d="M76.3388 108.822C80.3688 110.652 73.2988 114.672 74.6088 109.642C74.655 109.466 74.7392 109.301 74.8557 109.161C74.9721 109.02 75.1178 108.907 75.2827 108.829C75.4476 108.751 75.6275 108.71 75.81 108.709C75.9924 108.707 76.1729 108.746 76.3388 108.822Z" fill="#d09458" fill-opacity="0.541"/>
<path d="M46.4412 109.99C45.9348 110.761 46.0781 111.75 46.7613 112.198C47.4445 112.647 48.4088 112.386 48.9152 111.615C49.4215 110.844 49.2782 109.855 48.595 109.407C47.9119 108.958 46.9475 109.219 46.4412 109.99Z" fill="#d09458" fill-opacity="0.541"/>
<path d="M65.0489 114.512C65.9492 114.512 66.6789 113.783 66.6789 112.882C66.6789 111.982 65.9492 111.252 65.0489 111.252C64.1487 111.252 63.4189 111.982 63.4189 112.882C63.4189 113.783 64.1487 114.512 65.0489 114.512Z" fill="#d09458" fill-opacity="0.541"/>
<path d="M37.7852 114.342C38.503 113.711 38.6209 112.672 38.0487 112.02C37.4764 111.369 36.4306 111.352 35.7128 111.983C34.995 112.613 34.877 113.653 35.4493 114.304C36.0216 114.955 37.0674 114.972 37.7852 114.342Z" fill="#d09458" fill-opacity="0.541"/>
<path d="M55.1341 116.219C55.856 115.544 55.9731 114.496 55.3957 113.879C54.8184 113.262 53.7651 113.309 53.0433 113.985C52.3215 114.66 52.2044 115.708 52.7817 116.325C53.3591 116.942 54.4123 116.895 55.1341 116.219Z" fill="#d09458" fill-opacity="0.541"/>
<path d="M41.8084 117.102C42.2584 115.232 44.7184 115.562 44.7084 117.402C44.7087 117.478 44.6933 117.552 44.6631 117.621C44.6329 117.69 44.5886 117.752 44.533 117.803C44.4774 117.854 44.4118 117.892 44.3404 117.916C44.269 117.94 44.1934 117.949 44.1184 117.942L42.3184 117.802C42.2364 117.796 42.1567 117.772 42.0849 117.732C42.013 117.691 41.9507 117.636 41.9023 117.57C41.8538 117.503 41.8203 117.427 41.8041 117.346C41.7879 117.266 41.7894 117.182 41.8084 117.102Z" fill="#d09458" fill-opacity="0.541"/>
</g>
<defs>
<clipPath id="clip0_90_1652">
<rect width="118" height="118" fill="white" transform="translate(0.228516 0.302246)"/>
</clipPath>
</defs>
</svg>
