<svg width="434" height="476" viewBox="0 0 434 476" fill="none" xmlns="http://www.w3.org/2000/svg">
<path d="M113.244 0.578613H121.255C148.814 1.74344 170.772 11.5294 187.463 33.8356C220.086 77.4226 224.893 133.028 249.679 180.283C274.305 227.239 323.751 244.475 373.052 250.941C380.562 251.924 389.095 252.761 395.651 254.589C422.784 262.156 433.094 285.167 434 311.881V319.38C433.554 328.47 432.549 336.694 430.984 344.05C421.029 390.923 374.431 421.913 333.804 439.594C279.787 463.107 219.564 474.219 160.88 475.579H145.031C114.644 474.818 82.7317 471.512 54.1629 460.443C45.2809 456.997 36.3292 452.191 27.7676 447.399C17.9545 441.903 8.69858 435.588 0 428.455V55.2908C11.1925 43.8471 22.5847 34.2262 34.1766 26.4281C57.6995 10.6087 84.0553 1.99222 113.244 0.578613Z" fill="#d09458" fill-opacity="0.1"/>
</svg>
