<svg width="70" height="10" viewBox="0 0 70 10" fill="none" xmlns="http://www.w3.org/2000/svg">
<path d="M49.448 10.2716H49.198L39.968 3.3716C39.8698 3.29698 39.7495 3.25664 39.625 3.25664C39.5006 3.25664 39.3789 3.29698 39.278 3.3716L30.428 9.9316C30.2727 10.05 30.0829 10.1148 29.8867 10.1166C29.6904 10.1184 29.498 10.0571 29.338 9.9416L20.578 3.4916C20.4705 3.41354 20.341 3.37151 20.208 3.37151C20.0751 3.37151 19.9456 3.41354 19.838 3.4916L10.448 10.2716H10.198L0.248043 2.9216C0.18384 2.87644 0.129452 2.81871 0.0880652 2.75179C0.0466784 2.68487 0.0191248 2.61011 0.00701818 2.53188C-0.00508846 2.45366 -0.00150472 2.37354 0.0175595 2.29622C0.0366237 2.2189 0.0707851 2.14594 0.118043 2.0816L0.898043 1.0016C1.00361 0.860811 1.16034 0.767205 1.33435 0.741009C1.50837 0.714813 1.6857 0.758131 1.82804 0.861604L9.97804 6.7816C10.0912 6.86289 10.2266 6.90667 10.365 6.90667C10.5033 6.90667 10.6374 6.86289 10.748 6.7816L19.648 0.211604C19.7743 0.115961 19.928 0.0633714 20.0864 0.0615712C20.2448 0.0597711 20.3996 0.108855 20.528 0.201604L29.498 6.8016C29.6113 6.88231 29.7477 6.9248 29.8878 6.923C30.0278 6.9212 30.1644 6.87522 30.278 6.7916L39.158 0.211604C39.2829 0.122154 39.4323 0.0739992 39.5849 0.0739992C39.7376 0.0739992 39.8856 0.122154 40.008 0.211604L48.998 6.7916C49.1112 6.87289 49.2466 6.91667 49.385 6.91667C49.5233 6.91667 49.6574 6.87289 49.768 6.7916L58.778 0.211604C58.9029 0.122154 59.0523 0.0739992 59.2049 0.0739992C59.3576 0.0739992 59.5056 0.122154 59.628 0.211604L69.248 7.2716C69.3749 7.36648 69.4604 7.50614 69.4865 7.66104C69.5127 7.81594 69.4773 7.97393 69.388 8.1016L68.608 9.2616C68.5595 9.33261 68.4974 9.39327 68.4254 9.43995C68.3534 9.48664 68.273 9.5184 68.189 9.53333C68.105 9.54827 68.0191 9.54607 67.9365 9.52688C67.8538 9.50768 67.7762 9.47187 67.708 9.4216L59.628 3.4716C59.5215 3.39052 59.3915 3.34584 59.2566 3.34405C59.1218 3.34225 58.9892 3.38342 58.878 3.4616L49.448 10.2716Z" fill="#d09458"/>
</svg>
