<svg width="81" height="81" viewBox="0 0 81 81" fill="none" xmlns="http://www.w3.org/2000/svg">
<path d="M38.56 0H43.31C60.6033 2.19333 72.3267 11.0933 78.48 26.7C79.97 30.48 80.31 34.23 81 38.31V43.31C78.8133 60.61 69.9133 72.3333 54.3 78.48C50.54 79.96 46.76 80.31 42.69 81H37.94C17.11 79.14 1.65 63.53 0 42.69V37.94C2.44 16.28 17.01 2.12 38.56 0ZM75.97 40.5C75.97 31.0928 72.233 22.0708 65.5811 15.4189C58.9292 8.76701 49.9072 5.03 40.5 5.03C31.0928 5.03 22.0708 8.76701 15.4189 15.4189C8.76701 22.0708 5.03 31.0928 5.03 40.5C5.03 49.9072 8.76701 58.9292 15.4189 65.5811C22.0708 72.233 31.0928 75.97 40.5 75.97C49.9072 75.97 58.9292 72.233 65.5811 65.5811C72.233 58.9292 75.97 49.9072 75.97 40.5Z" fill="#d09458"/>
</svg>
