<svg width="98" height="93" viewBox="0 0 98 93" fill="none" xmlns="http://www.w3.org/2000/svg">
<g clip-path="url(#clip0_90_1834)">
<path d="M35.75 0.789794C45.3166 13.6698 55.03 26.4398 64.89 39.0998C64.9766 39.2131 65.0266 39.3465 65.04 39.4998L64.25 39.7898L36.53 3.61979C36.3766 3.41313 36.2666 3.18313 36.2 2.92979C36.08 2.47646 35.7766 2.24979 35.29 2.24979C35.3033 1.67646 35.1 1.29313 34.68 1.09979C34.6098 1.06834 34.5341 1.05115 34.4572 1.04924C34.3803 1.04732 34.3038 1.06071 34.2322 1.08863C34.1605 1.11654 34.0951 1.15843 34.0398 1.21185C33.9845 1.26527 33.9404 1.32916 33.91 1.39979C33.64 2.00979 34.35 2.59979 35 2.53979C34.88 3.66979 50.14 22.9298 52.04 25.4998L51.25 25.7898L32.71 1.74979L32.75 1.28979C33.6966 0.429794 34.6966 0.263128 35.75 0.789794Z" fill="#946642" fill-opacity="0.73"/>
<path d="M58.04 27.2498L57.5 27.7898C50.49 18.7298 43.59 9.49976 36.25 0.709763C36.3367 0.47643 36.4133 0.349763 36.48 0.329763C36.6873 0.257308 36.9116 0.251142 37.1215 0.312132C37.3314 0.373122 37.5162 0.498199 37.65 0.669763L58.04 27.2498Z" fill="#946642" fill-opacity="0.73"/>
<path d="M41.0005 1.5402C41.0538 1.99353 41.3671 2.58353 41.9405 3.3102C50.3605 14.0502 64.3938 32.3635 84.0405 58.2502L83.5005 58.7902L39.0505 0.900199C38.8305 0.606866 38.8971 0.506866 39.2505 0.600199C39.8838 0.760199 40.4671 1.07353 41.0005 1.5402Z" fill="#946642" fill-opacity="0.73"/>
<path d="M35.75 0.789961L36.25 0.709961C43.59 9.49996 50.49 18.73 57.5 27.79L87.29 66.75C89.3 69.33 95.6 76.19 96 79H95.71C95.6479 79 95.5867 78.9855 95.5311 78.9577C95.4756 78.93 95.4273 78.8896 95.39 78.84L85.04 65.5L65.04 39.5C65.0267 39.3466 64.9767 39.2133 64.89 39.1C55.03 26.44 45.3167 13.67 35.75 0.789961Z" fill="#946642" fill-opacity="0.043"/>
<path d="M35.2904 2.25005L35.0004 2.54005C34.3504 2.60005 33.6404 2.01005 33.9104 1.40005C33.9408 1.32942 33.985 1.26553 34.0403 1.21211C34.0956 1.15869 34.161 1.1168 34.2326 1.08889C34.3043 1.06097 34.3808 1.04758 34.4576 1.0495C34.5345 1.05141 34.6103 1.0686 34.6804 1.10005C35.1004 1.29339 35.3038 1.67672 35.2904 2.25005Z" fill="#946642" fill-opacity="0.243"/>
<path d="M32.75 1.29004L32.71 1.75004C32.0433 1.84337 31.8067 2.26004 32 3.00004C31.4 2.81337 31.0533 2.98004 30.96 3.50004L30.25 3.21004C30.79 2.09671 31.6233 1.45671 32.75 1.29004Z" fill="#946642" fill-opacity="0.596"/>
<path d="M84.04 55.25L83.5 55.79C69.56 37.68 55.75 19.4 41.5 1.53996C42.1733 1.27996 42.7767 1.49662 43.31 2.18996C56.9567 19.8233 70.5333 37.51 84.04 55.25Z" fill="#946642" fill-opacity="0.73"/>
<path d="M41 1.54004H41.5C55.75 19.4 69.56 37.68 83.5 55.79L96.92 73.33C96.9757 73.4041 97.0083 73.493 97.0136 73.5855C97.019 73.678 96.9968 73.7701 96.95 73.85L96.78 74.14C96.7578 74.176 96.7273 74.2063 96.6914 74.2283C96.6554 74.2503 96.615 74.2634 96.5736 74.2663C96.5322 74.2693 96.4911 74.2621 96.4539 74.2453C96.4167 74.2285 96.3844 74.2027 96.36 74.17L84.04 58.25C64.3933 32.3634 50.36 14.05 41.94 3.31004C41.3667 2.58337 41.0533 1.99337 41 1.54004Z" fill="#946642" fill-opacity="0.043"/>
<path d="M32.7098 1.75L51.2498 25.79L91.2498 77.79L93.9298 81.34C93.9722 81.3978 93.9926 81.469 93.9871 81.5406C93.9816 81.6121 93.9506 81.6793 93.8998 81.73L93.6498 81.97C93.6204 81.9969 93.5854 82.0171 93.5475 82.0288C93.5096 82.0406 93.4698 82.0437 93.4311 82.0379C93.3925 82.0321 93.356 82.0176 93.3246 81.9954C93.2931 81.9732 93.2675 81.944 93.2498 81.91C92.9698 81.3433 92.5664 80.8733 92.0398 80.5L32.6598 3.2C32.6103 3.1377 32.5477 3.08736 32.4767 3.05273C32.4057 3.01811 32.3282 3.00008 32.2498 3H31.9998C31.8064 2.26 32.0431 1.84333 32.7098 1.75Z" fill="#946642" fill-opacity="0.043"/>
<path d="M35.2897 2.25C35.7764 2.25 36.0797 2.47667 36.1997 2.93C36.2664 3.18333 36.3764 3.41333 36.5297 3.62L64.2497 39.79L84.2897 65.75C87.8297 70.3633 91.3797 74.9633 94.9397 79.55C95.2597 79.9633 95.2231 80.2467 94.8297 80.4C94.7027 80.4522 94.5617 80.4609 94.4281 80.4248C94.2945 80.3887 94.1757 80.3097 94.0897 80.2L92.0397 77.5L52.0397 25.5C50.1397 22.93 34.8797 3.67 34.9997 2.54L35.2897 2.25Z" fill="#946642" fill-opacity="0.043"/>
<path d="M87.0399 56.2498L86.4999 56.7898L45.1299 3.07984C44.9033 2.7865 44.9666 2.69984 45.3199 2.81984C46.0066 3.0665 46.5999 3.51317 47.0999 4.15984C60.5066 21.4532 73.8199 38.8165 87.0399 56.2498Z" fill="#946642" fill-opacity="0.73"/>
<path d="M32 3.00023C31.96 3.3469 31.98 3.5769 32.06 3.69023C51.7933 29.3836 71.5366 55.0702 91.29 80.7502C92.5966 81.5502 92.99 82.5702 92.47 83.8102L89.04 79.5002L48.79 26.7502L30.96 3.50023C31.0533 2.98023 31.4 2.81357 32 3.00023Z" fill="#946642" fill-opacity="0.043"/>
<path d="M32.0005 3H32.2505C32.3289 3.00008 32.4064 3.01811 32.4774 3.05273C32.5484 3.08736 32.611 3.1377 32.6605 3.2L92.0405 80.5L91.2905 80.75C71.5371 55.07 51.7938 29.3833 32.0605 3.69C31.9805 3.57667 31.9605 3.34667 32.0005 3Z" fill="#946642" fill-opacity="0.73"/>
<path d="M30.25 3.20996L30.96 3.49996L48.79 26.75L48.21 27.5L29.71 3.74996L30.25 3.20996Z" fill="#946642" fill-opacity="0.73"/>
<path d="M29.71 3.75L48.21 27.5L79.75 68.46L78.96 68.75C73.6733 62.27 68.5067 55.6967 63.46 49.03C53.2733 35.57 42.9533 22.2133 32.5 8.96L29 4.29L29.71 3.75Z" fill="#946642" fill-opacity="0.043"/>
<path d="M29 4.29016L32.5 8.96016L32 9.04016C31.0467 8.46683 30.3534 7.68016 29.92 6.68016C29.8966 6.62776 29.8623 6.58087 29.8197 6.54267C29.777 6.50447 29.727 6.47586 29.6729 6.45879C29.6188 6.44171 29.562 6.43656 29.5063 6.4437C29.4506 6.45084 29.3973 6.4701 29.35 6.50016L28.96 6.75016L28 6.79016C27.6867 6.73683 27.4467 6.78016 27.28 6.92016C27.1688 7.01626 27.0976 7.15027 27.0809 7.29508C27.0641 7.43988 27.1032 7.58467 27.19 7.70016L33.21 15.7502L32.5 15.9602L27.75 9.79016C27.7036 9.72979 27.6413 9.68355 27.5701 9.65661C27.4988 9.62967 27.4215 9.6231 27.3468 9.63763C27.272 9.65217 27.2028 9.68723 27.1468 9.7389C27.0909 9.79057 27.0505 9.8568 27.03 9.93016C26.8367 10.6702 27.0767 11.0968 27.75 11.2102L27 11.2902C26.46 10.6102 23.76 13.7302 26.75 15.9602L26.21 16.7502L25.87 16.0702C25.8442 16.0179 25.8066 15.9722 25.7604 15.9368C25.7142 15.9014 25.6606 15.8774 25.604 15.8667C25.5474 15.856 25.4895 15.8588 25.4349 15.8751C25.3804 15.8913 25.3307 15.9205 25.29 15.9602L25.05 16.1802C24.987 16.2402 24.9487 16.3213 24.9432 16.4069C24.9376 16.4925 24.9651 16.576 25.02 16.6402L26.96 19.0002L26.64 19.0302C26.5454 19.0379 26.4564 19.0768 26.3874 19.1403C26.3183 19.2039 26.2735 19.2884 26.26 19.3802L26.21 19.7502L24.78 17.6102C24.5934 17.3302 24.4267 17.3402 24.28 17.6402L24.15 17.9202C24.0869 18.0528 24.0609 18.2 24.075 18.3462C24.0891 18.4924 24.1427 18.6321 24.23 18.7502L30.5 26.9602L30 27.0402C28.0334 25.1402 26.3367 23.0235 24.91 20.6902C24.8764 20.6331 24.8299 20.5845 24.7744 20.5483C24.7189 20.5121 24.6557 20.4893 24.5899 20.4815C24.524 20.4738 24.4573 20.4813 24.3949 20.5037C24.3325 20.526 24.276 20.5624 24.23 20.6102C23.9167 20.9235 23.84 21.3868 24 22.0002L23.69 21.9902C23.6197 21.9903 23.5509 22.0078 23.4897 22.041C23.4285 22.0742 23.3771 22.1221 23.34 22.1802L23.05 22.6602C22.81 23.0468 22.9167 23.2402 23.37 23.2402L24.25 23.2502L24.21 24.0002L23.65 23.8802C23.6059 23.8716 23.5605 23.8721 23.5166 23.8817C23.4727 23.8913 23.4312 23.9098 23.3946 23.936C23.3581 23.9623 23.3273 23.9957 23.3042 24.0342C23.2811 24.0727 23.266 24.1156 23.26 24.1602L23.21 24.5002L22.92 23.8802C22.9015 23.841 22.8748 23.8062 22.8416 23.7784C22.8083 23.7505 22.7695 23.7302 22.7277 23.7188C22.6859 23.7074 22.6421 23.7052 22.5993 23.7123C22.5566 23.7195 22.5159 23.7358 22.48 23.7602L22.25 23.9202C22.1913 23.9577 22.141 24.0072 22.1023 24.0654C22.0637 24.1237 22.0374 24.1895 22.0253 24.2589C22.0131 24.3282 22.0152 24.3996 22.0315 24.4687C22.0478 24.5377 22.0779 24.6028 22.12 24.6602L34.5 40.9602L34.21 41.7502L21.87 25.7102C21.8357 25.6668 21.7912 25.6325 21.7406 25.6103C21.69 25.588 21.6347 25.5784 21.5795 25.5824C21.5243 25.5863 21.4709 25.6037 21.424 25.6329C21.377 25.6621 21.3379 25.7024 21.31 25.7502L18.96 29.7502L18 30.7902L17.29 30.7502C19.3967 27.2302 21.53 23.7102 23.69 20.1902C24.0634 19.5835 23.8867 19.0802 23.16 18.6802C23.1073 18.6527 23.0621 18.6127 23.0285 18.5635C22.9949 18.5144 22.9738 18.4574 22.9669 18.3976C22.96 18.3378 22.9676 18.2768 22.9891 18.2198C23.0105 18.1628 23.0451 18.1114 23.09 18.0702C24.3767 16.8768 24.8134 15.4968 24.4 13.9302C24.3164 13.616 24.3594 13.279 24.52 12.9902L26.45 9.52016C26.6193 9.20718 26.6924 8.8489 26.66 8.49016C26.56 7.57016 26.7934 6.70349 27.36 5.89016C27.3839 5.8577 27.4152 5.83148 27.4513 5.81372C27.4875 5.79597 27.5274 5.78721 27.5676 5.78819C27.6079 5.78918 27.6473 5.79987 27.6826 5.81936C27.7178 5.83886 27.7478 5.86658 27.77 5.90016C27.9234 6.14683 28.13 6.26683 28.39 6.26016C28.5081 6.25766 28.6233 6.21933 28.7211 6.14997C28.8189 6.0806 28.8951 5.98328 28.94 5.87016C29.1467 5.37016 29.02 5.04683 28.56 4.90016C28.5108 4.88448 28.4667 4.85606 28.4321 4.81764C28.3975 4.77922 28.3735 4.7321 28.3625 4.68084C28.3514 4.62957 28.3537 4.57588 28.369 4.52497C28.3843 4.47405 28.4123 4.42762 28.45 4.39016C28.5834 4.26349 28.7667 4.23016 29 4.29016Z" fill="#946642" fill-opacity="0.596"/>
<path d="M84.04 49.5L83.29 49.75L49.04 5.16005C48.8133 4.86672 48.8666 4.79672 49.2 4.95005C49.94 5.29005 50.5633 5.78672 51.07 6.44005C62.19 20.6934 73.18 35.0467 84.04 49.5Z" fill="#946642" fill-opacity="0.73"/>
<path d="M32 9.04001C32.6466 10.0467 33.33 11.0233 34.05 11.97C48.7566 31.2633 63.5033 50.5233 78.29 69.75L90.91 86.09C90.9664 86.1615 91.0003 86.2481 91.0074 86.3389C91.0145 86.4297 90.9945 86.5206 90.95 86.6L90.81 86.85C90.7913 86.8833 90.7651 86.9117 90.7332 86.9329C90.7013 86.9542 90.6647 86.9677 90.6261 86.9725C90.5875 86.9774 90.5479 86.9733 90.5105 86.9608C90.473 86.9482 90.4386 86.9274 90.41 86.9L89.04 85.5C88.6 84.02 87.33 83.1 86.67 82.23C76.6966 68.93 66.5433 55.77 56.21 42.75L46.04 29.5C40.53 21.77 34.36 14.55 28.96 6.75001L29.35 6.50001C29.3972 6.46994 29.4505 6.45069 29.5062 6.44355C29.5619 6.43641 29.6187 6.44156 29.6728 6.45863C29.7269 6.47571 29.777 6.50432 29.8196 6.54252C29.8623 6.58072 29.8965 6.62761 29.92 6.68001C30.3533 7.68001 31.0466 8.46667 32 9.04001Z" fill="#946642" fill-opacity="0.043"/>
<path d="M28.0001 6.79014C33.1401 14.7701 39.5901 22.1401 45.2501 29.7901L55.5001 42.9601C63.3601 53.2668 71.2401 63.5635 79.1401 73.8501C79.2268 73.9635 79.2768 74.0968 79.2901 74.2501L79.0401 74.5001L72.7501 66.9601L56.0401 45.2501L33.2101 15.7501L27.1901 7.70014C27.1033 7.58465 27.0642 7.43986 27.0809 7.29506C27.0976 7.15025 27.1688 7.01624 27.2801 6.92014C27.4468 6.78014 27.6868 6.7368 28.0001 6.79014Z" fill="#946642" fill-opacity="0.043"/>
<path d="M28 6.79L28.96 6.75C34.36 14.55 40.53 21.77 46.04 29.5L45.25 29.79C39.59 22.14 33.14 14.77 28 6.79Z" fill="#946642" fill-opacity="0.73"/>
<path d="M84.2101 46.7498L83.5001 46.9598L53.7301 8.18985C53.5101 7.90318 53.5601 7.84651 53.8801 8.01985C56.1801 9.23985 56.9601 11.1898 58.2501 12.8398C67.0235 24.0465 75.6768 35.3498 84.2101 46.7498Z" fill="#946642" fill-opacity="0.596"/>
<path d="M32 9.03996L32.5 8.95996C42.9533 22.2133 53.2733 35.57 63.46 49.03C68.5067 55.6966 73.6733 62.27 78.96 68.75L79.04 69.5L78.29 69.75C63.5033 50.5233 48.7567 31.2633 34.05 11.97C33.33 11.0233 32.6467 10.0466 32 9.03996Z" fill="#946642" fill-opacity="0.73"/>
<path d="M32.4995 15.9599L55.4995 45.79L72.2095 67.75L85.2895 84.7499L87.8695 88.4199C88.1295 88.7799 88.0362 88.9666 87.5895 88.9799C87.3495 88.99 83.7295 84.1899 83.0395 83.4999L60.5695 54.09C60.5482 54.062 60.5217 54.0394 60.4922 54.0238C60.4627 54.0082 60.431 54 60.3995 54H60.2895L43.0395 31.4999L27.7495 11.2099C27.0762 11.0966 26.8362 10.6699 27.0295 9.92995C27.05 9.85659 27.0904 9.79036 27.1463 9.73869C27.2023 9.68702 27.2715 9.65196 27.3463 9.63742C27.421 9.62289 27.4983 9.62946 27.5696 9.6564C27.6408 9.68334 27.7031 9.72958 27.7495 9.78995L32.4995 15.9599Z" fill="#946642" fill-opacity="0.043"/>
<path d="M83.5002 46.9598L84.2102 46.7498C85.5202 48.3398 95.0202 60.9198 95.6402 60.9698C95.7188 60.9738 95.7972 60.9553 95.866 60.9168C95.9348 60.8783 95.991 60.8213 96.028 60.7527C96.0649 60.6841 96.081 60.6067 96.0743 60.5299C96.0676 60.4531 96.0384 60.3802 95.9902 60.3198L58.3402 11.3898C58.0935 11.0698 58.1535 10.9898 58.5202 11.1498C59.2669 11.4698 59.8169 11.8598 60.1702 12.3198C71.6102 27.2198 83.0535 42.1132 94.5002 56.9998C95.2002 57.9198 95.8235 58.8965 96.3702 59.9298C96.5116 60.1999 96.5438 60.5148 96.4602 60.8098C96.1602 61.8698 96.3969 62.8365 97.1702 63.7098C97.4169 63.9832 97.3569 64.1398 96.9902 64.1798C96.4402 64.2398 86.1102 50.4598 83.5002 46.9598Z" fill="#946642" fill-opacity="0.596"/>
<path d="M27.0005 11.2898V12.7498C26.6405 12.6898 26.3771 12.7364 26.2105 12.8898C26.1039 12.9882 26.0378 13.1231 26.0249 13.2689C26.012 13.4146 26.0531 13.5609 26.1405 13.6798L57.2505 54.4598L56.9605 54.9998L56.7505 54.9598L40.0405 33.4998L26.7505 15.9598C23.7605 13.7298 26.4605 10.6098 27.0005 11.2898Z" fill="#946642" fill-opacity="0.043"/>
<path d="M27 11.29L27.75 11.21L43.04 31.5L42.29 31.75C37.5433 25.5633 32.8 19.3766 28.06 13.19C27.7467 12.7766 27.3933 12.63 27 12.75V11.29Z" fill="#946642" fill-opacity="0.73"/>
<path d="M27.0004 12.7499C26.9271 13.0699 26.9804 13.3466 27.1604 13.5799C43.9671 35.3666 60.7504 57.1699 77.5104 78.9899C80.0837 82.3366 81.9271 84.8399 83.0404 86.4999L82.2504 86.7899L57.2504 54.4599L26.1404 13.6799C26.053 13.561 26.0119 13.4148 26.0248 13.269C26.0377 13.1233 26.1038 12.9883 26.2104 12.8899C26.3771 12.7366 26.6404 12.6899 27.0004 12.7499Z" fill="#946642" fill-opacity="0.73"/>
<path d="M89.2501 47.0401L90.7101 49.0001C92.4168 50.8867 93.7668 52.9934 94.7601 55.3201C94.7773 55.3612 94.785 55.4056 94.7828 55.4501C94.7807 55.4946 94.7686 55.5381 94.7476 55.5774C94.7265 55.6166 94.6969 55.6507 94.6611 55.6771C94.6252 55.7035 94.5839 55.7216 94.5401 55.7301C94.2201 55.8001 94.0001 55.3501 93.9701 55.0601C93.9438 54.8378 93.8574 54.6269 93.7201 54.4501L63.2301 14.7601C63.1916 14.719 63.1711 14.6643 63.173 14.608C63.1748 14.5518 63.199 14.4985 63.2401 14.4601C63.2812 14.4216 63.3359 14.4011 63.3922 14.4029C63.4484 14.4048 63.5016 14.429 63.5401 14.4701C64.7001 15.5301 65.9501 16.7001 66.9501 18.0401C74.2768 27.7867 81.7101 37.4534 89.2501 47.0401Z" fill="#946642" fill-opacity="0.596"/>
<path d="M26.21 16.7502L39.25 33.7902C44.3633 40.2635 49.4266 46.7802 54.44 53.3402C54.89 53.9402 55.06 54.7602 56 55.0402C64.36 66.9402 73.61 78.2902 82.5 89.7902L82.83 90.4202C82.8512 90.461 82.8633 90.5059 82.8655 90.5519C82.8678 90.5978 82.8601 90.6437 82.843 90.6864C82.826 90.7291 82.7999 90.7676 82.7665 90.7993C82.7332 90.8311 82.6935 90.8552 82.65 90.8702L82.29 91.0002L60.04 62.5002C55.98 56.6268 51.6466 50.9602 47.04 45.5002L26.96 19.0002L25.02 16.6402C24.965 16.576 24.9375 16.4925 24.9431 16.4069C24.9487 16.3214 24.9869 16.2402 25.05 16.1802L25.29 15.9602C25.3307 15.9205 25.3803 15.8913 25.4349 15.8751C25.4894 15.8589 25.5474 15.856 25.6039 15.8667C25.6605 15.8774 25.7141 15.9015 25.7603 15.9368C25.8066 15.9722 25.8441 16.0179 25.87 16.0702L26.21 16.7502Z" fill="#946642" fill-opacity="0.043"/>
<path d="M33.21 15.75L56.04 45.25L55.5 45.79L32.5 15.96L33.21 15.75Z" fill="#946642" fill-opacity="0.73"/>
<path d="M26.75 15.96L40.04 33.5L39.25 33.79L26.21 16.75L26.75 15.96Z" fill="#946642" fill-opacity="0.73"/>
<path d="M26.21 19.75L46.25 45.79L59.5 62.79C66.5067 72.0967 73.6067 81.33 80.8 90.49C81.04 90.81 81.15 91.32 81.25 91.71L80.75 91.79L77.04 87.5L70.5 78.96L37.04 35.5L30.5 26.96L24.23 18.75C24.1427 18.6319 24.0891 18.4923 24.075 18.3461C24.0609 18.1999 24.0869 18.0526 24.15 17.92L24.28 17.64C24.4267 17.34 24.5934 17.33 24.78 17.61L26.21 19.75Z" fill="#946642" fill-opacity="0.043"/>
<path d="M91.2501 48.7099L89.7901 46.2499L68.6201 18.6999C68.3934 18.4132 68.4134 18.3932 68.6801 18.6399C72.5201 22.2465 75.0301 25.0399 76.2101 27.0199C76.7834 27.9732 77.3401 28.7565 77.8801 29.3699C79.6401 31.3399 80.7601 33.3799 82.5601 35.4399C84.5801 37.7399 86.8001 41.0199 89.1701 44.0499C90.2701 45.4432 90.9634 46.9965 91.2501 48.7099Z" fill="#946642" fill-opacity="0.596"/>
<path d="M26.96 19L47.04 45.5L46.25 45.79L26.21 19.75L26.26 19.38C26.2734 19.2883 26.3183 19.2037 26.3873 19.1402C26.4563 19.0766 26.5454 19.0378 26.64 19.03L26.96 19Z" fill="#946642" fill-opacity="0.73"/>
<path d="M30.0001 27.0401L36.2901 35.7501L70.2101 79.7501L76.5001 87.7901L79.0001 92.0001H78.7001C78.6192 92.0004 78.5391 91.9816 78.4662 91.9451C78.3933 91.9087 78.3296 91.8556 78.2801 91.7901C63.6401 72.6901 49.2701 53.1201 34.0401 34.5001L24.6701 22.2001C24.6232 22.1379 24.5617 22.0874 24.4905 22.0527C24.4194 22.018 24.3405 22 24.2601 22.0001H24.0001C23.8401 21.3868 23.9167 20.9234 24.2301 20.6101C24.2761 20.5624 24.3325 20.5259 24.3949 20.5036C24.4573 20.4813 24.5241 20.4737 24.5899 20.4815C24.6557 20.4892 24.7189 20.5121 24.7744 20.5483C24.83 20.5845 24.8764 20.633 24.9101 20.6901C26.3367 23.0234 28.0334 25.1401 30.0001 27.0401Z" fill="#946642" fill-opacity="0.043"/>
<path d="M24.0004 22.0002L24.2504 23.2502L23.3704 23.2402C22.9171 23.2402 22.8104 23.0469 23.0504 22.6602L23.3404 22.1802C23.3774 22.1222 23.4289 22.0743 23.4901 22.0411C23.5512 22.0079 23.6201 21.9904 23.6904 21.9902L24.0004 22.0002Z" fill="#946642" fill-opacity="0.243"/>
<path d="M24 22H24.26C24.3404 21.9999 24.4193 22.0179 24.4905 22.0526C24.5616 22.0873 24.6231 22.1378 24.67 22.2L34.04 34.5L33.25 34.79L24.25 23.25L24 22Z" fill="#946642" fill-opacity="0.73"/>
<path d="M24.25 23.25L33.25 34.79L77 91.56C77.0388 91.6098 77.0603 91.6709 77.0612 91.734C77.0621 91.7971 77.0424 91.8588 77.0051 91.9097C76.9677 91.9607 76.9148 91.998 76.8543 92.0161C76.7938 92.0342 76.7291 92.032 76.67 92.01C76.25 91.8633 75.89 91.5867 75.59 91.18C71.89 86.1733 68.04 81.28 64.04 76.5L31.04 33.5L24.21 24L24.25 23.25Z" fill="#946642" fill-opacity="0.043"/>
<path d="M23.2101 24.4999L30.2901 33.7499L63.2501 76.7899L74.4701 91.2499C74.6968 91.5366 74.6301 91.6999 74.2701 91.7399C73.5201 91.8399 62.5301 77.2899 61.0401 75.4999L41.0401 49.4999L34.5001 40.9599L22.1201 24.6599C22.078 24.6026 22.0479 24.5375 22.0316 24.4684C22.0153 24.3994 22.0132 24.328 22.0254 24.2587C22.0376 24.1893 22.0638 24.1235 22.1024 24.0652C22.1411 24.0069 22.1914 23.9575 22.2501 23.9199L22.4801 23.7599C22.516 23.7356 22.5567 23.7192 22.5994 23.7121C22.6422 23.705 22.686 23.7072 22.7278 23.7186C22.7696 23.73 22.8085 23.7503 22.8417 23.7782C22.8749 23.806 22.9016 23.8407 22.9201 23.8799L23.2101 24.4999Z" fill="#946642" fill-opacity="0.043"/>
<path d="M24.21 24.0001L31.04 33.5001L30.29 33.7501L23.21 24.5001L23.26 24.1601C23.2659 24.1155 23.281 24.0727 23.3041 24.0341C23.3273 23.9956 23.358 23.9622 23.3946 23.936C23.4311 23.9097 23.4726 23.8913 23.5165 23.8816C23.5604 23.872 23.6058 23.8715 23.65 23.8801L24.21 24.0001Z" fill="#946642" fill-opacity="0.73"/>
<path d="M52.04 25.5L92.04 77.5L91.25 77.79L51.25 25.79L52.04 25.5Z" fill="#946642" fill-opacity="0.73"/>
<path d="M48.79 26.75L89.04 79.5L88.29 79.75L79.75 68.46L48.21 27.5L48.79 26.75Z" fill="#946642" fill-opacity="0.73"/>
<path d="M21.21 28.9999L20.5 28.4599C20.6667 27.9733 20.92 27.5899 21.26 27.3099C21.3145 27.265 21.3777 27.2317 21.4457 27.2119C21.5136 27.1921 21.5851 27.1862 21.656 27.1946C21.7268 27.203 21.7954 27.2255 21.858 27.2607C21.9205 27.296 21.9756 27.3433 22.02 27.3999L71.48 91.7499C71.7067 92.0499 71.6367 92.1566 71.27 92.0699C69.45 91.6599 69.07 90.0499 68.23 88.9499C52.7033 68.8166 37.2033 48.6633 21.73 28.4899C21.5233 28.2166 21.3567 28.2399 21.23 28.5599C21.1767 28.6866 21.17 28.8333 21.21 28.9999Z" fill="#946642" fill-opacity="0.596"/>
<path d="M30 27.04L30.5 26.96L37.04 35.5L36.29 35.75L30 27.04Z" fill="#946642" fill-opacity="0.73"/>
<path d="M58.04 27.25L88.04 66.5L87.29 66.75L57.5 27.79L58.04 27.25Z" fill="#946642" fill-opacity="0.73"/>
<path d="M20.5 28.46L21.21 29C30.9 42.27 41.16 55.12 51.04 68.25L50.5 68.79L20.98 30.3C20.9081 30.2066 20.8157 30.131 20.7099 30.079C20.6041 30.027 20.4879 29.9999 20.37 30H20L20.5 28.46Z" fill="#946642" fill-opacity="0.596"/>
<path d="M46.04 29.5L56.21 42.75L55.5 42.96L45.25 29.79L46.04 29.5Z" fill="#946642" fill-opacity="0.596"/>
<path d="M18.9602 29.75L19.2502 30.04C18.6802 31.31 22.5002 35.32 24.2902 37.75L58.8202 82.8L58.0002 82.29C57.3669 81.83 56.8169 81.2967 56.3502 80.69C45.0169 65.8767 33.5802 51.1467 22.0402 36.5L18.6402 31.96C18.612 31.9241 18.5763 31.8947 18.5359 31.8738C18.4955 31.8529 18.4512 31.8411 18.4063 31.8391C18.3614 31.8372 18.3169 31.8453 18.2761 31.8627C18.2353 31.8802 18.1991 31.9065 18.1702 31.94C17.6702 32.5 20.7502 36.1 21.2502 36.79L52.4302 77.27C52.6502 77.55 52.5835 77.6567 52.2302 77.59C51.6702 77.4767 51.2702 77.2667 51.0302 76.96C40.2969 62.94 29.5369 48.94 18.7502 34.96L17.3002 32.92C17.2205 32.8091 17.1811 32.6743 17.1884 32.538C17.1956 32.4016 17.2492 32.2718 17.3402 32.17C17.6869 31.77 17.9069 31.31 18.0002 30.79L18.9602 29.75Z" fill="#946642" fill-opacity="0.043"/>
<path d="M19.2498 30.04L19.9998 30C20.6198 31.25 25.0798 37.14 25.0398 37.5L24.2898 37.75C22.4998 35.32 18.6798 31.31 19.2498 30.04Z" fill="#946642" fill-opacity="0.73"/>
<path d="M20 30H20.37C20.4879 30 20.6041 30.027 20.7099 30.079C20.8157 30.1311 20.9081 30.2066 20.98 30.3L50.5 68.79L65.39 88.3C65.61 88.5867 65.5633 88.64 65.25 88.46C64.0367 87.7533 62.8533 86.6167 61.7 85.05C52.8933 73.1567 40.6733 57.3067 25.04 37.5C25.08 37.14 20.62 31.25 20 30Z" fill="#946642" fill-opacity="0.043"/>
<path d="M17.29 30.75L18 30.79C17.9066 31.31 17.6866 31.77 17.34 32.17C17.2489 32.2718 17.1954 32.4016 17.1881 32.538C17.1808 32.6743 17.2203 32.8091 17.3 32.92L18.75 34.96L18.04 35.5C17.3666 34.48 16.5066 33.6467 15.46 33L17.29 30.75Z" fill="#946642" fill-opacity="0.73"/>
<path d="M43.04 31.5L60.29 54L60.21 54.75L42.29 31.75L43.04 31.5Z" fill="#946642" fill-opacity="0.596"/>
<path d="M22.0399 36.5L21.2499 36.79C20.7499 36.1 17.6699 32.5 18.1699 31.94C18.1989 31.9065 18.235 31.8802 18.2758 31.8627C18.3166 31.8453 18.3611 31.8372 18.406 31.8391C18.4509 31.8411 18.4952 31.8529 18.5356 31.8738C18.576 31.8947 18.6117 31.9241 18.6399 31.96L22.0399 36.5Z" fill="#946642" fill-opacity="0.73"/>
<path d="M81.6598 33C81.4931 32.9267 81.3564 32.8 81.2498 32.62C80.5031 31.38 80.6098 31.23 81.5698 32.17C82.0031 32.59 82.4031 33.0267 82.7698 33.48C83.7831 34.7533 83.6298 34.83 82.3098 33.71C82.1898 33.61 82.0964 33.49 82.0298 33.35C81.9523 33.1895 81.8204 33.0647 81.6598 33Z" fill="#946642" fill-opacity="0.596"/>
<path d="M14.9998 33.04L14.4998 33.96C14.3731 34.0067 14.2698 34.0734 14.1898 34.16C14.0952 34.26 14.0393 34.3903 14.032 34.5277C14.0247 34.6651 14.0664 34.8006 14.1498 34.91L19.2098 41.5L18.4998 41.79L13.8898 35.82C13.8589 35.7791 13.8197 35.7452 13.7747 35.7207C13.7297 35.6961 13.68 35.6814 13.6288 35.6777C13.5777 35.6739 13.5264 35.681 13.4782 35.6987C13.4301 35.7164 13.3863 35.7441 13.3498 35.78L13.1198 36.01C13.0617 36.0674 13.0267 36.1444 13.0212 36.227C13.0157 36.3096 13.04 36.3924 13.0898 36.46L22.0398 48.25L21.4998 48.79L12.2998 36.88C12.2053 36.7582 12.1445 36.6138 12.1235 36.4611C12.1024 36.3084 12.1218 36.1529 12.1798 36.01C12.7264 34.6567 13.6664 33.6667 14.9998 33.04Z" fill="#946642" fill-opacity="0.73"/>
<path d="M15 33.04L15.46 33C16.5067 33.6467 17.3667 34.48 18.04 35.5L48.96 76L48 75.29C47.3267 74.99 46.7667 74.5367 46.32 73.93C39.7133 65.0033 32.9533 56.1933 26.04 47.5L15.69 33.99C15.6392 33.9217 15.5662 33.8728 15.4828 33.8511C15.3994 33.8293 15.3104 33.836 15.23 33.87L14.96 34L14.5 33.96L15 33.04Z" fill="#946642" fill-opacity="0.043"/>
<path d="M31.04 33.5L64.04 76.5L63.25 76.79L30.29 33.75L31.04 33.5Z" fill="#946642" fill-opacity="0.596"/>
<path d="M40.04 33.5L56.75 54.96L56 55.04C55.06 54.76 54.89 53.94 54.44 53.34C49.4267 46.78 44.3633 40.2633 39.25 33.79L40.04 33.5Z" fill="#946642" fill-opacity="0.596"/>
<path d="M26.04 47.4999L25.25 47.7899L14.96 33.9999L15.23 33.8699C15.3103 33.8358 15.3994 33.8292 15.4828 33.8509C15.5662 33.8727 15.6391 33.9216 15.69 33.9899L26.04 47.4999Z" fill="#946642" fill-opacity="0.73"/>
<path d="M34.04 34.5C49.27 53.12 63.64 72.69 78.28 91.79C78.3295 91.8555 78.3933 91.9086 78.4662 91.945C78.5391 91.9815 78.6191 92.0003 78.7 92H79C79.1 92.81 73.03 93.13 72.07 91.45C69 86.07 64.12 80.7 60.29 75.75L61.04 75.5C62.53 77.29 73.52 91.84 74.27 91.74C74.63 91.7 74.6967 91.5367 74.47 91.25L63.25 76.79L64.04 76.5C68.04 81.28 71.89 86.1733 75.59 91.18C75.89 91.5867 76.25 91.8633 76.67 92.01C76.7292 92.032 76.7939 92.0342 76.8544 92.0161C76.9149 91.998 76.9678 91.9607 77.0051 91.9097C77.0424 91.8588 77.0621 91.7971 77.0612 91.734C77.0603 91.6709 77.0388 91.6098 77 91.56L33.25 34.79L34.04 34.5Z" fill="#946642" fill-opacity="0.596"/>
<path d="M18.75 34.96C29.5367 48.94 40.2967 62.94 51.03 76.96C51.27 77.2666 51.67 77.4766 52.23 77.59C52.5834 77.6566 52.65 77.55 52.43 77.27L21.25 36.79L22.04 36.5C33.58 51.1466 45.0167 65.8766 56.35 80.69C56.8167 81.2966 57.3667 81.83 58 82.29C56.26 81.73 54.8334 80.7066 53.72 79.22C53.5312 78.9599 53.265 78.7672 52.96 78.67C51.3934 78.1566 50.06 77.2666 48.96 76L18.04 35.5L18.75 34.96Z" fill="#946642" fill-opacity="0.596"/>
<path d="M37.04 35.5L70.5 78.96L70.21 79.75L36.29 35.75L37.04 35.5Z" fill="#946642" fill-opacity="0.596"/>
<path d="M23.75 54.4599L10.9 37.7899C10.8695 37.7502 10.8311 37.7174 10.787 37.6933C10.743 37.6692 10.6942 37.6543 10.6438 37.6497C10.5933 37.645 10.5421 37.6506 10.4934 37.6661C10.4446 37.6816 10.3992 37.7067 10.36 37.7399C9.9 38.1499 9.87 38.5499 10.29 38.9999L10.21 39.7499L9.91 39.3499C9.8464 39.2652 9.75695 39.2032 9.65452 39.1726C9.55209 39.1421 9.44197 39.1446 9.34 39.1799L9 39.2899L8.5 39.2099L9.91 37.0499C9.9863 36.9334 10.0894 36.837 10.2107 36.7687C10.332 36.7004 10.4679 36.6622 10.6071 36.6573C10.7462 36.6524 10.8844 36.6809 11.0102 36.7406C11.136 36.8002 11.2457 36.8891 11.33 36.9999L37.88 71.6099C38.0933 71.8832 38.0267 72.0132 37.68 71.9999C36.37 71.9699 36.07 70.6299 35.55 69.9599C31.5367 64.8665 27.6033 59.6999 23.75 54.4599Z" fill="#946642" fill-opacity="0.596"/>
<path d="M23.7502 54.4598L22.9602 54.7498L20.2102 51.7498L10.2902 38.9998C9.87021 38.5498 9.90021 38.1498 10.3602 37.7398C10.3994 37.7066 10.4448 37.6815 10.4936 37.666C10.5423 37.6505 10.5935 37.6449 10.644 37.6496C10.6945 37.6542 10.7432 37.6691 10.7872 37.6932C10.8313 37.7173 10.8697 37.7501 10.9002 37.7898L23.7502 54.4598Z" fill="#946642" fill-opacity="0.043"/>
<path d="M25.04 37.5C40.6734 57.3067 52.8934 73.1567 61.7 85.05C62.8534 86.6167 64.0367 87.7533 65.25 88.46C65.5634 88.64 65.61 88.5867 65.39 88.3L50.5 68.79L51.04 68.25L68.38 90.78C68.6 91.06 68.55 91.1233 68.23 90.97C64.3434 89.0767 61.2067 86.3533 58.82 82.8L24.29 37.75L25.04 37.5Z" fill="#946642" fill-opacity="0.596"/>
<path d="M10.29 39L20.21 51.75L19.25 51.79L10.21 39.75L10.29 39Z" fill="#946642" fill-opacity="0.73"/>
<path d="M8.5 39.21L9 39.29C8.89 40.42 12.23 44.07 13.04 45.25L12.5 45.79L7.5 39.79L8.5 39.21Z" fill="#946642" fill-opacity="0.73"/>
<path d="M65.04 39.5L85.04 65.5L84.29 65.75L64.25 39.79L65.04 39.5Z" fill="#946642" fill-opacity="0.73"/>
<path d="M7.49996 39.79L12.5 45.79L30.88 69.6C30.9569 69.7024 30.9926 69.8309 30.98 69.96L30.96 70.25H30.29L16.75 52.96C13.74 49.06 10.78 44.45 7.24996 41.04L6.99996 40.96L6.95996 40L7.49996 39.79Z" fill="#946642" fill-opacity="0.043"/>
<path d="M6.95954 39.9998L6.99954 40.9598C5.70621 41.8798 4.87287 43.1298 4.49954 44.7098C3.67287 45.4698 3.17287 46.3998 2.99954 47.4998C1.96621 47.9131 1.73621 48.4764 2.30954 49.1898C7.65621 55.7964 12.8995 62.4831 18.0395 69.2498C11.9995 63.3098 6.65954 56.7798 2.01954 49.6598C1.81954 49.3598 1.64954 49.3764 1.50954 49.7098C1.05621 50.7831 1.46954 51.6164 2.74954 52.2098H1.80954C0.419538 53.9498 2.23954 54.6698 3.03954 55.6998C6.16621 59.7064 9.22954 63.7598 12.2295 67.8598C12.4495 68.1664 12.3795 68.2798 12.0195 68.1998C10.5395 67.8698 3.30954 57.5098 1.75954 55.5998C1.50621 55.2931 1.33287 55.3331 1.23954 55.7198C1.03954 56.5098 7.75954 64.9198 8.71954 66.2598C8.92621 66.5464 8.86954 66.6164 8.54954 66.4698C7.03621 65.7764 6.0162 64.7631 5.48954 63.4298C4.84287 61.9964 3.94287 61.0198 2.78954 60.4998C2.13621 59.8664 1.71621 59.1431 1.52954 58.3298C1.45621 58.0164 1.32621 57.7364 1.13954 57.4898C0.546205 56.7031 0.422872 55.8698 0.769539 54.9898C0.830564 54.8271 0.849736 54.6526 0.82523 54.4828C0.800724 54.313 0.733355 54.1536 0.629539 54.0198L0.319539 53.6198C0.206063 53.47 0.147242 53.2856 0.152691 53.0967C0.15814 52.9078 0.227538 52.7255 0.349539 52.5798C0.876205 51.9464 0.912872 51.3031 0.459539 50.6498C0.357619 50.5034 0.299656 50.3314 0.292564 50.1541C0.285472 49.9767 0.329549 49.8017 0.419539 49.6498C1.19954 48.3498 5.87954 39.7798 6.95954 39.9998Z" fill="#946642" fill-opacity="0.596"/>
<path d="M7 40.96L7.25 41.04L7 41.96C6.06667 42.54 5.9 43.2333 6.5 44.04L6 44.29L5.66 44.3C5.56532 44.3025 5.47521 44.3412 5.40824 44.4082C5.34127 44.4752 5.30253 44.5653 5.3 44.66L5.25 45.71L4.5 44.71C4.87333 43.13 5.70667 41.88 7 40.96Z" fill="#946642" fill-opacity="0.243"/>
<path d="M7.25 41.04C10.78 44.45 13.74 49.06 16.75 52.96L16 53.04L7.75 42.46L7 41.96L7.25 41.04Z" fill="#946642" fill-opacity="0.73"/>
<path d="M34.5 40.96L41.04 49.5L40.25 49.79L34.21 41.75L34.5 40.96Z" fill="#946642" fill-opacity="0.73"/>
<path d="M19.21 41.5L43.94 73.67C44.1933 74.0033 44.1133 74.1267 43.7 74.04C43.3067 73.96 42.9233 73.6833 42.55 73.21C34.4633 62.7967 26.4467 52.3233 18.5 41.79L19.21 41.5Z" fill="#946642" fill-opacity="0.596"/>
<path d="M6.99963 41.96L7.74963 42.46L7.40963 42.83C7.31321 42.9289 7.256 43.0595 7.24864 43.1974C7.24128 43.3354 7.28428 43.4713 7.36963 43.58L26.2896 68.25C26.7163 69.0833 27.2996 69.75 28.0396 70.25L27.7696 70.5C27.691 70.5732 27.5906 70.6193 27.4829 70.6319C27.3751 70.6445 27.2655 70.6228 27.1696 70.57L26.4996 70.21L6.49963 44.04C5.89963 43.2333 6.0663 42.54 6.99963 41.96Z" fill="#946642" fill-opacity="0.596"/>
<path d="M7.74985 42.46L15.9998 53.04C17.3698 54.98 27.0399 67.22 26.9998 68.21L26.2899 68.25L7.36985 43.58C7.2845 43.4713 7.2415 43.3354 7.24886 43.1974C7.25621 43.0595 7.31342 42.9289 7.40985 42.83L7.74985 42.46Z" fill="#946642" fill-opacity="0.043"/>
<path d="M56.21 42.75C66.5433 55.77 76.6967 68.93 86.67 82.23C87.33 83.1 88.6 84.02 89.04 85.5L88.5 85.79L79.29 74.25C79.2767 74.0967 79.2267 73.9633 79.14 73.85C71.24 63.5633 63.36 53.2667 55.5 42.96L56.21 42.75Z" fill="#946642" fill-opacity="0.73"/>
<path d="M6.5 44.04L26.5 70.21L25.79 70.25L14.04 55.5C11.64 52.0734 9.11333 48.74 6.46 45.5C6.2 45.19 6.1 44.68 6 44.29L6.5 44.04Z" fill="#946642" fill-opacity="0.043"/>
<path d="M6 44.29C6.1 44.68 6.2 45.19 6.46 45.5C9.11333 48.74 11.64 52.0734 14.04 55.5L13.25 55.79L5.25 45.71L5.3 44.66C5.30253 44.5654 5.34127 44.4752 5.40824 44.4083C5.47521 44.3413 5.56532 44.3026 5.66 44.3L6 44.29Z" fill="#946642" fill-opacity="0.73"/>
<path d="M13.04 45.25L32.64 70.55C32.8733 70.85 32.8033 71.0067 32.43 71.02C31.8367 71.04 31.3467 70.7833 30.96 70.25L30.98 69.96C30.9927 69.8308 30.957 69.7024 30.88 69.6L12.5 45.79L13.04 45.25Z" fill="#946642" fill-opacity="0.596"/>
<path d="M56.04 45.25L72.75 66.96L72.21 67.75L55.5 45.79L56.04 45.25Z" fill="#946642" fill-opacity="0.596"/>
<path d="M47.04 45.5C51.6467 50.96 55.98 56.6267 60.04 62.5L59.5 62.79L46.25 45.79L47.04 45.5Z" fill="#946642" fill-opacity="0.596"/>
<path d="M21.4997 69.7098L4.81967 47.7998C4.78171 47.7503 4.73214 47.7109 4.67534 47.685C4.61855 47.6592 4.55626 47.6478 4.494 47.6517C4.43173 47.6557 4.37139 47.6749 4.31832 47.7077C4.26524 47.7405 4.22106 47.7859 4.18967 47.8398C3.90967 48.3598 18.8497 67.3798 20.4097 69.4198C20.4679 69.491 20.4997 69.5793 20.4997 69.6698V69.9598L18.7497 69.2098C17.3697 65.2998 2.51967 49.5698 2.99967 47.4998C3.76633 47.4998 4.15967 47.1865 4.17967 46.5598C4.1832 46.4771 4.21201 46.397 4.26211 46.3308C4.31221 46.2645 4.38109 46.2153 4.45919 46.19C4.53729 46.1647 4.62071 46.1645 4.69786 46.1896C4.77501 46.2147 4.84206 46.2637 4.88967 46.3298L23.1497 70.0798C23.1882 70.1323 23.2092 70.1955 23.2097 70.2606C23.2102 70.3256 23.1903 70.3892 23.1527 70.4423C23.1151 70.4954 23.0617 70.5354 23.0001 70.5564C22.9386 70.5775 22.8719 70.5787 22.8097 70.5598C22.2897 70.3798 21.853 70.0964 21.4997 69.7098Z" fill="#946642" fill-opacity="0.596"/>
<path d="M89.79 46.25L91.25 48.71L90.71 49L89.25 47.04L89.79 46.25Z" fill="#946642" fill-opacity="0.043"/>
<path d="M2.99982 47.5C2.51982 49.57 17.3698 65.3 18.7498 69.21L18.0398 69.25C12.8998 62.4833 7.65648 55.7967 2.30982 49.19C1.73648 48.4767 1.96648 47.9133 2.99982 47.5Z" fill="#946642" fill-opacity="0.043"/>
<path d="M21.5004 69.7102L20.5004 69.9602V69.6702C20.5004 69.5797 20.4686 69.4914 20.4104 69.4202C18.8504 67.3802 3.91041 48.3602 4.19041 47.8402C4.2218 47.7863 4.26598 47.7409 4.31906 47.7081C4.37214 47.6753 4.43247 47.6561 4.49474 47.6521C4.55701 47.6482 4.61929 47.6596 4.67609 47.6854C4.73289 47.7113 4.78245 47.7507 4.82041 47.8002L21.5004 69.7102Z" fill="#946642" fill-opacity="0.043"/>
<path d="M26.04 47.5C32.9533 56.1933 39.7133 65.0033 46.32 73.93C46.7667 74.5367 47.3267 74.99 48 75.29C48.0467 75.4033 48.04 75.5067 47.98 75.6C47.933 75.6754 47.8597 75.731 47.7734 75.7567C47.6871 75.7824 47.5936 75.7765 47.51 75.74C46.7433 75.4133 45.8367 74.5667 44.79 73.2C38.2833 64.7267 31.77 56.2567 25.25 47.79L26.04 47.5Z" fill="#946642" fill-opacity="0.596"/>
<path d="M22.04 48.25L40.71 72.51C40.9567 72.83 40.88 72.9567 40.48 72.89C40.0867 72.8233 39.7533 72.6133 39.48 72.26C33.5067 64.4267 27.5133 56.6033 21.5 48.79L22.04 48.25Z" fill="#946642" fill-opacity="0.596"/>
<path d="M41.04 49.5L61.04 75.5L60.29 75.75L40.25 49.79L41.04 49.5Z" fill="#946642" fill-opacity="0.596"/>
<path d="M84.04 49.5L96.17 65.11C96.2092 65.1634 96.2613 65.2059 96.3215 65.2336C96.3817 65.2612 96.4479 65.2731 96.5139 65.2681C96.5799 65.2631 96.6436 65.2414 96.6989 65.205C96.7542 65.1686 96.7994 65.1187 96.83 65.06L96.97 64.78C97.1567 64.44 97.31 64.4533 97.43 64.82C97.55 65.18 97.4834 65.5267 97.23 65.86C97.1449 65.9738 97.1014 66.1133 97.1069 66.2553C97.1123 66.3973 97.1664 66.5331 97.26 66.64C97.82 67.2667 97.83 67.8633 97.29 68.43C97.165 68.5619 97.0944 68.7363 97.0926 68.918C97.0907 69.0998 97.1577 69.2756 97.28 69.41C97.8334 70.0167 97.8934 70.67 97.46 71.37C97.3674 71.5217 97.3119 71.6932 97.298 71.8704C97.2841 72.0477 97.3122 72.2257 97.38 72.39C97.8 73.41 97.66 74.4133 96.96 75.4C96.9208 75.4544 96.8694 75.4988 96.8099 75.5298C96.7505 75.5608 96.6846 75.5774 96.6176 75.5784C96.5505 75.5793 96.4842 75.5646 96.4238 75.5354C96.3635 75.5062 96.3108 75.4632 96.27 75.41L83.5 58.79L84.04 58.25L96.36 74.17C96.3845 74.2026 96.4167 74.2285 96.4539 74.2452C96.4911 74.262 96.5322 74.2693 96.5736 74.2663C96.615 74.2633 96.6554 74.2503 96.6914 74.2283C96.7274 74.2063 96.7578 74.176 96.78 74.14L96.95 73.85C96.9969 73.77 97.019 73.678 97.0137 73.5855C97.0083 73.4929 96.9757 73.4041 96.92 73.33L83.5 55.79L84.04 55.25C85.21 56.73 96.48 71.49 96.78 71.29C96.8793 71.2278 96.9517 71.1308 96.9832 71.0179C97.0146 70.9051 97.0028 70.7846 96.95 70.68C96.6767 70.14 96.12 69.33 95.28 68.25C92.3267 64.4433 89.4 60.6233 86.5 56.79L87.04 56.25L96.21 68.01C96.2486 68.0609 96.2984 68.1021 96.3558 68.1304C96.4132 68.1588 96.4766 68.1735 96.5412 68.1735C96.6058 68.1735 96.6699 68.1588 96.7286 68.1304C96.7873 68.1021 96.8391 68.0609 96.88 68.01C97.28 67.52 84.62 51.48 83.29 49.75L84.04 49.5Z" fill="#946642" fill-opacity="0.596"/>
<path d="M19.25 51.79L20.21 51.75L22.96 54.75L35.2 70.97C35.2379 71.0176 35.263 71.0739 35.2733 71.1339C35.2835 71.1939 35.2785 71.2558 35.2588 71.3141C35.239 71.3725 35.2051 71.4254 35.1599 71.4683C35.1148 71.5111 35.0599 71.5427 35 71.56C34.29 71.77 20.78 53.76 19.25 51.79Z" fill="#946642" fill-opacity="0.596"/>
<path d="M1.80957 52.21H2.74957L4.03957 54.25L3.49957 54.79C2.7329 54.1833 2.16957 53.3233 1.80957 52.21Z" fill="#946642" fill-opacity="0.73"/>
<path d="M16 53.04L16.75 52.96L30.29 70.25L29.9 70.5C29.7802 70.5755 29.6416 70.6155 29.5 70.6155C29.3584 70.6155 29.2198 70.5755 29.1 70.5L28.71 70.25C28.35 69.3633 27.78 68.6833 27 68.21C27.04 67.22 17.37 54.98 16 53.04Z" fill="#946642" fill-opacity="0.596"/>
<path d="M60.29 54H60.4C60.4314 54.0001 60.4631 54.0082 60.4926 54.0238C60.5221 54.0394 60.5486 54.0621 60.57 54.09L83.04 83.5L82.29 83.75L60.21 54.75L60.29 54Z" fill="#946642" fill-opacity="0.73"/>
<path d="M4.04 54.25L15.23 68.86C15.4767 69.1733 15.4 69.3133 15 69.28C14.09 69.19 4.83 56.5 3.5 54.79L4.04 54.25Z" fill="#946642" fill-opacity="0.596"/>
<path d="M56 55.04L56.75 54.96L56.96 55L83.04 89.25L82.5 89.79C73.61 78.29 64.36 66.94 56 55.04Z" fill="#946642" fill-opacity="0.73"/>
<path d="M14.04 55.5L25.79 70.25H25C24.844 70.2499 24.6899 70.2138 24.5495 70.1445C24.4091 70.0751 24.2861 69.9744 24.19 69.85L13.25 55.79L14.04 55.5Z" fill="#946642" fill-opacity="0.596"/>
<path d="M2.79004 60.5C3.94337 61.02 4.84337 61.9967 5.49004 63.43C3.71671 63.53 2.81671 62.5533 2.79004 60.5Z" fill="#946642" fill-opacity="0.243"/>
<path d="M60.04 62.5L82.29 91L83.25 91.29C82.7967 92.0367 82.13 92.1767 81.25 91.71C81.15 91.32 81.04 90.81 80.8 90.49C73.6067 81.33 66.5067 72.0967 59.5 62.79L60.04 62.5Z" fill="#946642" fill-opacity="0.73"/>
<path d="M85.04 65.5L95.39 78.84C95.4273 78.8897 95.4756 78.93 95.5312 78.9578C95.5867 78.9855 95.6479 79 95.71 79H96L92.79 84.75L92.47 83.81C92.99 82.57 92.5967 81.55 91.29 80.75L92.04 80.5C92.5667 80.8733 92.97 81.3433 93.25 81.91C93.2678 81.944 93.2934 81.9732 93.3248 81.9954C93.3563 82.0176 93.3927 82.0321 93.4314 82.0379C93.4701 82.0437 93.5099 82.0406 93.5478 82.0288C93.5857 82.0171 93.6207 81.9969 93.65 81.97L93.9 81.73C93.9509 81.6793 93.9818 81.6121 93.9873 81.5406C93.9928 81.469 93.9725 81.3978 93.93 81.34L91.25 77.79L92.04 77.5L94.09 80.2C94.176 80.3097 94.2948 80.3887 94.4284 80.4248C94.562 80.4609 94.703 80.4522 94.83 80.4C95.2234 80.2467 95.26 79.9633 94.94 79.55C91.38 74.9633 87.83 70.3633 84.29 65.75L85.04 65.5Z" fill="#946642" fill-opacity="0.596"/>
<path d="M88.04 66.5L96.75 77.43C96.8496 77.5501 96.9136 77.6961 96.9348 77.8515C96.956 78.0069 96.9335 78.1657 96.87 78.31C96.71 78.6633 96.42 78.8933 96 79C95.6 76.19 89.3 69.33 87.29 66.75L88.04 66.5Z" fill="#946642" fill-opacity="0.596"/>
<path d="M72.75 66.96L79.04 74.5C79.43 76.31 80.76 77.17 81.61 78.31C83.13 80.3433 84.6066 82.4066 86.04 84.5L85.29 84.75L72.21 67.75L72.75 66.96Z" fill="#946642" fill-opacity="0.73"/>
<path d="M26.29 68.25L27 68.21C27.78 68.6833 28.35 69.3633 28.71 70.25H28.04C27.3 69.75 26.7167 69.0833 26.29 68.25Z" fill="#946642" fill-opacity="0.243"/>
<path d="M79.04 69.5L91.14 85.1C91.18 85.1504 91.23 85.1919 91.2868 85.2217C91.3436 85.2515 91.4059 85.2689 91.4694 85.2727C91.5329 85.2764 91.5961 85.2666 91.6549 85.2437C91.7137 85.2208 91.7666 85.1854 91.81 85.14C92.36 84.56 88.84 80.52 88.29 79.75L89.04 79.5L92.47 83.81L92.79 84.75C92.35 85.8633 91.7134 86.83 90.88 87.65C90.8316 87.6962 90.7746 87.7324 90.7124 87.7564C90.6502 87.7805 90.584 87.7919 90.5178 87.79C90.4516 87.7882 90.3867 87.773 90.327 87.7456C90.2672 87.7181 90.2139 87.6788 90.17 87.63L88.5 85.79L89.04 85.5L90.41 86.9C90.4387 86.9274 90.4731 86.9482 90.5105 86.9608C90.548 86.9733 90.5875 86.9774 90.6261 86.9725C90.6647 86.9677 90.7014 86.9542 90.7333 86.9329C90.7651 86.9117 90.7914 86.8833 90.81 86.85L90.95 86.6C90.9946 86.5206 91.0146 86.4297 91.0075 86.3389C91.0003 86.2481 90.9664 86.1615 90.91 86.09L78.29 69.75L79.04 69.5Z" fill="#946642" fill-opacity="0.596"/>
<path d="M70.5 78.96L77.04 87.5L76.5 87.79L70.21 79.75L70.5 78.96Z" fill="#946642" fill-opacity="0.73"/>
<path d="M83.04 83.5C83.73 84.19 87.35 88.99 87.59 88.98C88.0367 88.9667 88.13 88.78 87.87 88.42L85.29 84.75L86.04 84.5L88.84 87.6C88.9486 87.7193 89.0112 87.8733 89.0167 88.0345C89.0222 88.1957 88.9702 88.3536 88.87 88.48L87.87 89.71C87.8194 89.7726 87.7554 89.8232 87.6828 89.8579C87.6101 89.8926 87.5306 89.9106 87.45 89.9106C87.3695 89.9106 87.29 89.8926 87.2173 89.8579C87.1446 89.8232 87.0807 89.7726 87.03 89.71L82.29 83.75L83.04 83.5Z" fill="#946642" fill-opacity="0.596"/>
<path d="M83.04 86.5C83.58 87.09 86.68 89.96 85.84 90.71C85.7935 90.7531 85.7384 90.786 85.6782 90.8064C85.618 90.8269 85.5539 90.8346 85.4901 90.8289C85.4262 90.8233 85.3639 90.8045 85.3071 90.7737C85.2503 90.7429 85.2002 90.7008 85.16 90.65L82.25 86.79L83.04 86.5Z" fill="#946642" fill-opacity="0.596"/>
<path d="M77.04 87.5L80.75 91.79L80.59 92.24C80.5705 92.296 80.5394 92.3473 80.4987 92.3904C80.458 92.4335 80.4087 92.4675 80.3539 92.4902C80.2991 92.5129 80.2401 92.5237 80.1808 92.5219C80.1216 92.5202 80.0634 92.5059 80.01 92.48L79 92L76.5 87.79L77.04 87.5Z" fill="#946642" fill-opacity="0.596"/>
<path d="M83.04 89.25L83.75 90.36C83.8167 90.4658 83.8404 90.5931 83.8162 90.7158C83.792 90.8385 83.7218 90.9474 83.62 91.02L83.25 91.29L82.29 91L82.65 90.87C82.6935 90.855 82.7333 90.8309 82.7666 90.7992C82.7999 90.7675 82.826 90.7289 82.8431 90.6862C82.8602 90.6435 82.8679 90.5976 82.8656 90.5517C82.8634 90.5057 82.8512 90.4608 82.83 90.42L82.5 89.79L83.04 89.25Z" fill="#946642" fill-opacity="0.596"/>
</g>
<defs>
<clipPath id="clip0_90_1834">
<rect width="98" height="93" fill="white"/>
</clipPath>
</defs>
</svg>
