<svg width="196" height="196" viewBox="0 0 196 196" fill="none" xmlns="http://www.w3.org/2000/svg">
<path d="M195.108 85.7798C193.848 75.3398 190.898 65.0698 186.268 55.4198C181.148 44.6198 174.058 34.7498 165.158 26.5798C171.148 32.0998 176.318 38.3898 180.608 45.2198C176.348 38.5298 171.198 32.2598 165.158 26.5798C159.138 20.9198 152.578 16.1698 145.668 12.3298C152.718 16.1898 159.298 20.9598 165.158 26.5798C156.448 18.1798 146.148 11.6998 135.038 7.24981C125.118 3.22981 114.678 0.919811 104.168 0.299811C88.5478 -0.690189 72.7078 1.97981 58.3478 8.56981C-5.08219 36.9498 -19.2822 121.21 31.3478 168.83C81.9678 216.46 165.208 197.14 189.658 132.09C195.368 117.34 197.058 101.33 195.108 85.7798ZM2.10779 98.3698C2.10779 98.1698 2.10779 97.9598 2.10779 97.7598C2.10779 97.2898 2.10779 96.8198 2.10779 96.3498C2.10779 96.0398 2.1078 95.7398 2.1178 95.4298C2.1178 95.1798 2.12782 94.9298 2.13782 94.6898C2.64782 77.9598 7.5678 61.3798 16.3978 47.1498C19.6478 41.9098 23.4178 36.9898 27.5978 32.4698C38.3278 42.6198 90.2878 91.8898 99.6278 100.65C100.838 101.79 103.898 104.6 104.868 105.88C116.368 119.28 117.618 138.97 108.758 154.1C100.318 168.94 84.1378 176.91 67.2278 174.68C57.4278 173.5 47.5978 171.19 38.7778 166.66C29.9778 162.11 22.2478 155.45 16.5278 147.35C12.7578 141.87 9.79779 135.89 7.57779 129.63C7.37779 129.05 7.16782 128.47 6.97782 127.88C6.96782 127.85 6.95782 127.81 6.94782 127.78C6.74782 127.19 6.56781 126.59 6.37781 125.99C6.29781 125.74 6.22781 125.5 6.15781 125.25C6.07781 124.98 5.9978 124.72 5.9278 124.45C3.8378 117.19 2.6578 109.65 2.2378 102.15C2.4178 105.66 2.76782 109.16 3.28782 112.63C2.65782 108.64 2.27781 104.59 2.15781 100.5C2.13781 99.7898 2.1278 99.0798 2.1178 98.3698H2.10779ZM121.328 136.97C121.348 137.54 121.358 138.1 121.358 138.67C121.358 139.11 121.338 139.56 121.318 140C121.258 141.46 121.128 142.9 120.928 144.33C120.948 144.17 120.978 144 120.998 143.84C120.918 144.44 120.828 145.03 120.728 145.62C120.738 145.55 120.748 145.47 120.768 145.4C118.188 160.54 107.338 174.3 92.4878 178.89C85.9078 181.04 78.8278 181.21 72.0278 180.12C66.4378 179.28 60.9078 178.01 55.5578 176.2C48.9978 174.01 42.6878 171.09 36.7578 167.55C40.3778 169.27 44.0978 170.77 47.9078 172.02C56.3978 174.69 65.2978 176.63 74.2378 176.54C79.6278 176.42 84.9878 175.25 89.9378 173.14C109.978 164.54 120.908 140.04 113.898 119.39C112.918 116.43 111.618 113.58 110.018 110.9L109.678 110.33C109.488 110.07 109.848 109.74 110.088 109.94C116.868 117.02 120.818 126.62 121.298 136.39C121.298 136.59 121.318 136.78 121.328 136.98V136.97ZM128.028 141.25C128.078 141.74 128.118 142.24 128.148 142.73C128.158 142.92 128.178 143.11 128.188 143.3C128.218 143.85 128.248 144.41 128.258 144.96C128.258 144.47 128.228 143.98 128.198 143.49C128.228 143.97 128.248 144.46 128.258 144.96C128.308 146.94 128.178 148.92 127.908 150.88C128.108 149.46 128.218 148.02 128.248 146.57C127.818 162.04 117.708 176.86 103.618 183.18C97.5478 185.94 90.7978 187 84.1578 186.63C69.5778 185.43 55.2578 180.79 42.7478 173.2C41.1778 172.26 39.6378 171.27 38.1278 170.24C41.5478 172.16 45.0778 173.88 48.7078 175.37C56.4378 178.55 64.5978 180.64 72.8778 181.71C81.1678 182.93 89.8678 181.96 97.4578 178.33C116.228 169.66 126.468 146.56 120.618 126.8C119.588 123.24 118.108 119.82 116.198 116.65C116.078 116.46 116.008 116.28 116.178 116.09C116.318 115.94 116.568 115.92 116.708 116.07C117.018 116.4 117.348 116.73 117.648 117.08C123.608 123.7 127.088 132.3 128.018 141.13C128.018 141.17 128.018 141.21 128.028 141.25ZM127.678 152.32C127.728 152.01 127.788 151.7 127.838 151.39C127.788 151.7 127.738 152.01 127.678 152.32ZM121.308 140.48C121.298 140.78 121.268 141.08 121.248 141.38C121.268 141.08 121.288 140.78 121.308 140.48ZM121.188 142.23C121.148 142.62 121.108 143.01 121.068 143.41C121.118 143.02 121.158 142.63 121.188 142.23ZM120.458 147.13C120.548 146.69 120.638 146.24 120.708 145.8C120.628 146.25 120.548 146.69 120.458 147.13ZM16.3878 147.29C14.5878 144.73 12.9778 142.03 11.5778 139.21C13.0078 142.01 14.6078 144.72 16.3878 147.29ZM17.2478 148.48C17.0178 148.17 16.7878 147.85 16.5578 147.53C16.7778 147.85 17.0178 148.17 17.2478 148.48ZM127.188 135.83C127.188 135.83 127.168 135.73 127.158 135.68C127.168 135.73 127.178 135.78 127.188 135.83ZM126.898 134.58C126.868 134.48 126.848 134.37 126.818 134.27C126.848 134.37 126.878 134.48 126.898 134.58ZM116.568 186.27C108.268 192.13 97.7778 194.82 87.6578 193.25C68.9778 190.57 50.5578 183.34 36.2578 170.89C49.2778 180.06 65.1878 186.11 81.1578 187.84C87.6478 188.61 94.3378 187.99 100.538 185.85C124.478 177.91 136.668 147.71 124.558 125.51L124.418 125.24C124.298 125.04 124.198 124.85 124.448 124.73C124.568 124.69 124.658 124.71 124.758 124.87L125.108 125.36C129.308 131.29 132.288 138.1 133.748 145.22C134.378 148.38 134.848 151.62 134.738 154.85C134.368 164.63 129.378 173.71 122.838 180.77C124.458 179.03 125.988 177.17 127.368 175.21C125.988 177.18 124.458 179.04 122.838 180.77C120.898 182.83 118.798 184.67 116.568 186.28V186.27ZM110.588 189.83C110.468 189.89 110.348 189.95 110.228 190C110.348 189.94 110.468 189.88 110.588 189.83ZM128.108 174.13C127.958 174.35 127.808 174.57 127.658 174.8C127.808 174.58 127.958 174.36 128.108 174.13ZM73.0678 71.4698C68.4878 66.2998 65.1378 60.0098 63.6278 53.2598C59.3778 35.2098 68.6078 14.9898 85.0878 6.45981C92.2178 2.67981 100.498 1.31981 108.498 2.13981C187.068 10.9298 222.188 104.15 169.258 162.81L165.338 159.13C167.008 160.7 168.338 161.95 169.258 162.81C158.458 152.43 81.8778 80.3798 73.0678 71.4698ZM181.118 46.0298C181.118 46.0298 181.058 45.9398 181.028 45.8898C181.058 45.9398 181.088 45.9798 181.118 46.0298Z" fill="white"/>
</svg>
