<svg width="422" height="431" viewBox="0 0 422 431" fill="none" xmlns="http://www.w3.org/2000/svg">
<path d="M357.885 130.031C355.975 114.199 351.501 98.6248 344.48 83.9909C336.716 67.6131 325.964 52.6455 312.468 40.2559C321.551 48.6268 329.391 58.1655 335.897 68.5229C329.437 58.3778 321.627 48.8695 312.468 40.2559C303.339 31.6727 293.391 24.4695 282.912 18.6463C293.603 24.4999 303.581 31.7334 312.468 40.2559C299.259 27.5176 283.64 17.6909 266.792 10.9427C251.749 4.84645 235.917 1.34342 219.979 0.403208C196.292 -1.09809 172.272 2.95088 150.496 12.9444C54.3071 55.9817 32.7735 183.759 109.551 255.973C186.314 328.203 312.543 298.905 349.621 200.258C358.28 177.891 360.842 153.612 357.885 130.031ZM65.2104 149.123C65.2104 148.82 65.2104 148.501 65.2104 148.198C65.2104 147.485 65.2104 146.773 65.2104 146.06C65.2104 145.59 65.2104 145.135 65.2256 144.665C65.2256 144.286 65.2408 143.907 65.2559 143.543C66.0293 118.172 73.4902 93.029 86.8805 71.4497C91.8089 63.5034 97.526 56.0424 103.865 49.188C120.136 64.5801 198.931 139.296 213.095 152.581C214.93 154.309 219.57 158.571 221.041 160.512C238.48 180.833 240.376 210.692 226.94 233.636C214.141 256.14 189.605 268.227 163.962 264.845C149.1 263.055 134.194 259.552 120.819 252.683C107.474 245.783 95.7517 235.683 87.0776 223.4C81.3606 215.09 76.8719 206.021 73.5054 196.528C73.2021 195.648 72.8837 194.769 72.5955 193.874C72.5804 193.829 72.5652 193.768 72.55 193.722C72.2467 192.828 71.9738 191.918 71.6857 191.008C71.5643 190.629 71.4582 190.265 71.352 189.886C71.2307 189.476 71.1094 189.082 71.0032 188.673C67.8338 177.663 66.0444 166.229 65.4075 154.855C65.6805 160.178 66.2113 165.486 66.9998 170.748C66.0445 164.697 65.4682 158.556 65.2862 152.353C65.2559 151.277 65.2407 150.2 65.2256 149.123H65.2104ZM246.002 207.659C246.032 208.523 246.047 209.372 246.047 210.237C246.047 210.904 246.017 211.586 245.986 212.254C245.895 214.468 245.698 216.651 245.395 218.82C245.425 218.577 245.471 218.32 245.501 218.077C245.38 218.987 245.243 219.882 245.092 220.776C245.107 220.67 245.122 220.549 245.152 220.443C241.24 243.402 224.786 264.269 202.267 271.229C192.289 274.49 181.552 274.747 171.241 273.094C162.764 271.821 154.378 269.895 146.265 267.15C136.317 263.829 126.748 259.401 117.755 254.032C123.245 256.641 128.886 258.915 134.664 260.811C147.538 264.86 161.035 267.802 174.592 267.665C182.766 267.483 190.894 265.709 198.4 262.509C228.79 249.468 245.365 212.314 234.734 180.999C233.248 176.511 231.277 172.189 228.851 168.124L228.335 167.26C228.047 166.866 228.593 166.365 228.957 166.669C239.238 177.405 245.228 191.963 245.956 206.779C245.956 207.083 245.986 207.371 246.002 207.674V207.659ZM256.162 214.149C256.238 214.892 256.298 215.651 256.344 216.394C256.359 216.682 256.389 216.97 256.404 217.258C256.45 218.092 256.495 218.941 256.511 219.775C256.511 219.032 256.465 218.289 256.42 217.546C256.465 218.274 256.495 219.017 256.511 219.775C256.586 222.778 256.389 225.781 255.98 228.753C256.283 226.599 256.45 224.416 256.495 222.217C255.843 245.677 240.512 268.151 219.145 277.735C209.94 281.92 199.704 283.528 189.635 282.967C167.525 281.147 145.81 274.11 126.839 262.6C124.458 261.175 122.123 259.674 119.833 258.112C125.019 261.023 130.372 263.632 135.877 265.891C147.599 270.714 159.973 273.883 172.53 275.506C185.101 277.356 198.294 275.885 209.804 270.38C238.268 257.232 253.796 222.202 244.925 192.236C243.363 186.838 241.119 181.651 238.222 176.844C238.04 176.556 237.934 176.283 238.192 175.995C238.404 175.767 238.783 175.737 238.996 175.965C239.466 176.465 239.966 176.965 240.421 177.496C249.459 187.535 254.736 200.577 256.147 213.967C256.147 214.028 256.147 214.089 256.162 214.149ZM255.631 230.937C255.707 230.466 255.798 229.996 255.874 229.526C255.798 229.996 255.722 230.466 255.631 230.937ZM245.971 212.982C245.956 213.437 245.911 213.891 245.88 214.346C245.911 213.891 245.941 213.437 245.971 212.982ZM245.789 215.635C245.729 216.227 245.668 216.818 245.607 217.425C245.683 216.833 245.744 216.242 245.789 215.635ZM244.682 223.066C244.819 222.399 244.955 221.716 245.061 221.049C244.94 221.732 244.819 222.399 244.682 223.066ZM86.8653 223.309C84.1357 219.427 81.6942 215.332 79.5712 211.056C81.7397 215.302 84.166 219.411 86.8653 223.309ZM88.1695 225.113C87.8207 224.643 87.4719 224.158 87.1231 223.673C87.4567 224.158 87.8207 224.643 88.1695 225.113ZM254.888 205.93C254.888 205.93 254.858 205.778 254.842 205.703C254.858 205.778 254.873 205.854 254.888 205.93ZM254.448 204.034C254.403 203.883 254.372 203.716 254.327 203.564C254.372 203.716 254.418 203.883 254.448 204.034ZM238.783 282.421C226.197 291.307 210.289 295.386 194.943 293.006C166.615 288.941 138.682 277.977 116.997 259.097C136.741 273.003 160.868 282.178 185.086 284.801C194.928 285.969 205.073 285.029 214.475 281.784C250.778 269.743 269.264 223.946 250.9 190.28L250.687 189.871C250.505 189.567 250.354 189.279 250.733 189.097C250.915 189.037 251.051 189.067 251.203 189.31L251.734 190.053C258.103 199.045 262.622 209.372 264.836 220.17C265.791 224.962 266.504 229.875 266.337 234.773C265.776 249.604 258.209 263.374 248.291 274.08C250.748 271.441 253.068 268.621 255.161 265.649C253.068 268.636 250.748 271.457 248.291 274.08C245.35 277.204 242.165 279.994 238.783 282.436V282.421ZM229.715 287.819C229.533 287.91 229.351 288.001 229.169 288.077C229.351 287.986 229.533 287.895 229.715 287.819ZM256.283 264.011C256.056 264.344 255.828 264.678 255.601 265.027C255.828 264.693 256.056 264.36 256.283 264.011ZM172.818 108.33C165.872 100.49 160.792 90.9515 158.502 80.7153C152.058 53.3431 166.054 22.6801 191.045 9.74465C201.858 4.01241 214.414 1.95 226.546 3.1935C345.693 16.5233 398.951 157.888 318.685 246.844L312.741 241.264C315.273 243.645 317.29 245.54 318.685 246.844C302.307 231.103 186.178 121.842 172.818 108.33ZM336.67 69.7513C336.67 69.7513 336.579 69.6148 336.534 69.539C336.579 69.6148 336.625 69.6754 336.67 69.7513Z" fill="url(#paint0_linear_647_654)"/>
<path d="M197.962 325.399H195.752C195.422 325.399 195.152 325.669 195.152 325.999V355.069C195.152 357.619 196.282 360.459 197.892 361.979L197.992 362.069H198.662L198.642 361.709C198.552 359.719 198.552 357.769 198.552 355.059V325.989C198.552 325.659 198.282 325.389 197.952 325.389L197.962 325.399Z" fill="#333333"/>
<path d="M76.8814 362.009H77.7014C78.0614 362.009 78.4414 361.989 78.7914 361.949H85.4014C85.4014 361.949 85.4714 361.949 85.5314 361.949H93.1014L93.4414 361.919H109.251C110.741 361.919 111.901 360.579 111.901 358.859V339.859C111.901 339.599 111.731 339.369 111.481 339.289C111.231 339.209 110.961 339.299 110.811 339.519L110.311 340.229C109.121 341.949 108.491 343.959 108.491 346.059V360.729L82.7514 360.759C86.3114 358.879 88.5914 355.129 88.5914 351.089V349.919C88.5914 343.929 83.7314 339.029 77.6814 338.989H42.9714V334.439C42.9714 334.179 42.8014 333.949 42.5514 333.869C42.3014 333.789 42.0314 333.879 41.8814 334.099L41.3814 334.819C40.1914 336.539 39.5514 338.559 39.5514 340.659V360.729L39.4914 360.789H31.1614V360.749H24.5714C22.9714 360.749 21.6614 359.449 21.6614 357.839V340.669C21.6614 339.609 20.9314 338.779 20.0114 338.779H10.3814C4.67138 338.779 0.691406 345.109 0.691406 350.789C0.691406 356.469 4.40138 361.999 10.3814 361.999H41.3814C42.0614 361.989 42.6914 361.589 42.9714 360.969C43.6114 361.589 44.4814 361.939 45.3614 361.939H76.8614V361.999L76.8814 362.009ZM77.5414 361.089L77.4814 360.749L45.3914 360.769C44.3114 360.769 43.3714 359.989 43.1614 358.929V340.889L76.8914 340.929H77.2314C81.4314 340.929 84.8514 344.359 84.8514 348.559V353.379C84.8514 353.839 84.8114 354.309 84.7214 354.779C83.8814 358.159 80.9914 360.559 77.5314 360.749L77.5514 361.089H77.5414ZM18.3214 360.709H11.2114C6.6014 360.709 3.74139 355.579 3.74139 350.819C3.74139 345.739 6.8114 340.079 11.2114 340.079H18.3214V360.709Z" fill="#333333"/>
<path d="M191.792 359.008V325.998C191.792 325.668 191.522 325.398 191.192 325.398H188.982C188.652 325.398 188.382 325.668 188.382 325.998V360.888H168.602C170.292 359.918 171.652 358.428 172.572 356.508L173.262 354.668C173.632 353.388 173.812 351.988 173.812 350.528C173.812 343.978 170.212 339.458 164.612 338.938V338.888H162.952L162.612 338.918V338.948C157.012 339.468 153.412 343.988 153.412 350.538C153.412 352.008 153.602 353.398 153.992 354.748L154.822 356.848C155.712 358.588 157.032 359.978 158.642 360.898H128.922V326.018C128.922 325.688 128.652 325.418 128.322 325.418H126.112C125.782 325.418 125.512 325.688 125.512 326.018V359.028C125.512 360.748 126.682 362.088 128.162 362.088H189.142C190.632 362.088 191.792 360.748 191.792 359.028V359.008ZM156.012 350.558C156.012 344.568 159.002 340.668 163.622 340.628C168.242 340.668 171.232 344.568 171.232 350.558C171.232 356.548 168.242 360.388 163.622 360.428C159.002 360.388 156.012 356.508 156.012 350.558Z" fill="#333333"/>
<path d="M7.98303 330.948C7.64303 331.318 7.44303 331.798 7.42303 332.308C7.40303 332.958 7.64304 333.538 8.12304 333.978C8.49304 334.318 8.97305 334.518 9.47305 334.528C9.50305 334.528 9.53304 334.528 9.56304 334.528C10.183 334.528 10.733 334.288 11.153 333.818C11.483 333.448 11.683 332.978 11.703 332.478C11.723 331.828 11.483 331.248 11.003 330.798C10.633 330.468 10.163 330.268 9.66302 330.248C9.01302 330.238 8.44305 330.458 8.00305 330.938L7.98303 330.948Z" fill="#333333"/>
<path d="M15.1996 330.958C14.8596 331.328 14.6596 331.808 14.6496 332.308C14.6296 332.958 14.8696 333.538 15.3496 333.978C15.7196 334.318 16.1996 334.508 16.6896 334.528C16.6896 334.528 16.7496 334.528 16.7796 334.528C17.3996 334.528 17.9496 334.288 18.3696 333.818C18.6996 333.448 18.8996 332.978 18.9196 332.478C18.9396 331.828 18.6996 331.248 18.2096 330.798C17.8396 330.468 17.3696 330.268 16.8696 330.248C16.2296 330.238 15.6396 330.468 15.1996 330.948V330.958Z" fill="#333333"/>
<path d="M159.873 334.528C160.493 334.528 161.043 334.288 161.463 333.818C161.793 333.448 161.993 332.978 162.013 332.478C162.033 331.828 161.793 331.248 161.303 330.798C160.933 330.468 160.463 330.268 159.963 330.248C159.323 330.238 158.743 330.458 158.303 330.938C157.963 331.308 157.763 331.788 157.743 332.298C157.723 332.948 157.963 333.528 158.443 333.968C158.813 334.308 159.293 334.508 159.793 334.518C159.823 334.518 159.853 334.518 159.883 334.518L159.873 334.528Z" fill="#333333"/>
<path d="M167.01 334.528C167.01 334.528 167.07 334.528 167.1 334.528C167.72 334.528 168.27 334.288 168.69 333.818C169.02 333.448 169.22 332.978 169.24 332.478C169.26 331.828 169.02 331.248 168.53 330.798C168.16 330.468 167.69 330.268 167.19 330.248C166.55 330.238 165.96 330.468 165.52 330.948C165.18 331.318 164.98 331.798 164.97 332.298C164.95 332.948 165.19 333.528 165.67 333.968C166.04 334.308 166.51 334.498 167.01 334.518V334.528Z" fill="#333333"/>
<path d="M62.5101 333.898C63.1301 333.898 63.68 333.658 64.1 333.188C64.43 332.818 64.63 332.348 64.65 331.848C64.67 331.188 64.4301 330.618 63.9401 330.168C63.5701 329.838 63.1 329.638 62.6 329.618C61.96 329.598 61.37 329.838 60.93 330.318C60.59 330.688 60.3901 331.168 60.3801 331.668C60.3601 332.318 60.6001 332.898 61.0801 333.338C61.4501 333.678 61.92 333.868 62.42 333.888C62.45 333.888 62.4801 333.888 62.5101 333.888V333.898Z" fill="#333333"/>
<path d="M109.721 366.28C109.081 366.26 108.491 366.5 108.051 366.98C107.711 367.35 107.511 367.83 107.501 368.33C107.481 368.98 107.721 369.56 108.201 370C108.571 370.34 109.041 370.53 109.541 370.55C109.571 370.55 109.601 370.55 109.631 370.55C110.251 370.55 110.801 370.31 111.221 369.84C111.551 369.47 111.751 369 111.771 368.5C111.791 367.84 111.551 367.27 111.061 366.82C110.691 366.49 110.221 366.29 109.721 366.27V366.28Z" fill="#333333"/>
<path d="M210.843 360.129C211.333 360.699 211.983 361.179 212.763 361.549C213.463 361.879 214.263 362.069 215.133 362.099H224.863L225.203 362.079C230.713 361.789 234.393 357.129 234.393 350.369V324.789H230.943V350.549C230.943 356.569 228.013 360.679 223.643 360.769L214.993 360.829C214.103 360.829 213.283 360.529 212.553 359.929C212.173 359.619 211.833 359.289 211.533 358.929C211.203 358.539 210.723 358.319 210.223 358.319H209.633L209.933 358.829C210.223 359.319 210.523 359.759 210.843 360.119V360.129Z" fill="#333333"/>
<path d="M420.732 325.399H418.522C418.192 325.399 417.922 325.669 417.922 325.999V355.069C417.922 357.619 419.052 360.459 420.662 361.979L420.762 362.069H421.432L421.412 361.709C421.322 359.719 421.322 357.769 421.322 355.059V325.989C421.322 325.659 421.052 325.389 420.722 325.389L420.732 325.399Z" fill="#333333"/>
<path d="M413.403 325.4H411.193C410.863 325.4 410.593 325.67 410.593 326V360.89H387.263V351.22C387.263 351.06 387.283 350.9 387.283 350.73V339.12H383.903V350.73C383.903 356.92 381.433 361.07 377.753 361.07C374.073 361.07 371.603 356.55 371.603 349.83V339.12H368.213V350.73C368.213 356.92 365.743 361.07 362.063 361.07C358.383 361.07 355.913 356.55 355.913 349.83V346.09C355.913 343.55 354.793 340.73 353.193 339.22L353.093 339.13H352.423L352.443 339.49C352.533 341.47 352.533 343.41 352.533 346.1V360.8L323.943 360.84C323.053 360.84 322.233 360.54 321.503 359.95C320.873 359.44 320.033 358.6 319.543 357.51C319.353 357.08 319.173 356.4 319.243 354.6C319.603 353.32 319.793 351.94 319.793 350.48C319.793 343.93 316.193 339.41 310.593 338.89V338.84H308.933L308.593 338.87V338.9C302.993 339.42 299.393 343.94 299.393 350.49C299.393 351.95 299.583 353.34 299.943 354.62C300.023 356.41 299.833 357.09 299.643 357.52C299.163 358.61 298.313 359.45 297.683 359.96C296.953 360.55 296.133 360.85 295.243 360.85H262.943C262.053 360.85 261.233 360.55 260.503 359.96C259.873 359.45 258.863 358.61 258.383 357.52C258.193 357.09 258.303 352.48 258.303 352.48V340.65C258.303 339.59 257.493 338.76 256.563 338.76H247.713C242.003 338.76 238.023 345.09 238.023 350.77C238.023 356.45 241.733 361.98 247.713 361.98H255.623V378.26L256.203 377.66C257.493 376.34 258.203 374.59 258.203 372.75V359.4C258.393 359.67 258.583 359.92 258.783 360.15C259.273 360.72 259.923 361.2 260.703 361.57C261.403 361.9 262.203 362.09 263.073 362.12H295.283C296.143 362.09 296.933 361.9 297.643 361.57C298.423 361.2 299.073 360.72 299.563 360.15C300.043 359.6 300.473 358.94 300.833 358.18C300.883 358.09 300.983 357.81 301.133 357.43C302.763 360.14 305.373 361.78 308.573 362.08V362.13H310.233L310.573 362.1V362.07C313.873 361.76 316.533 360.05 318.143 357.21C318.323 357.75 318.443 358.08 318.493 358.18C318.863 358.93 319.293 359.6 319.763 360.15C320.253 360.72 320.903 361.2 321.683 361.57C322.383 361.9 323.183 362.09 324.053 362.12L355.883 362.14V358.19C357.313 361.27 359.673 362.94 362.663 362.94C366.503 362.94 369.483 360.41 370.813 356.09C372.083 360.46 374.783 362.94 378.343 362.94C381.903 362.94 384.573 360.82 386.043 357.31V362.07H386.163L411.313 362.08C412.803 362.08 413.963 360.74 413.963 359.02V326.01C413.963 325.68 413.693 325.41 413.363 325.41L413.403 325.4ZM255.633 360.66H248.523C243.913 360.66 241.053 355.53 241.053 350.77C241.053 345.69 244.123 340.03 248.523 340.03H255.633V360.66ZM309.593 360.36C304.973 360.31 301.983 356.44 301.983 350.49C301.983 344.54 304.973 340.6 309.593 340.56C314.213 340.61 317.203 344.5 317.203 350.49C317.203 356.48 314.213 360.31 309.593 360.36Z" fill="#333333"/>
<path d="M367.314 333.779C367.884 333.779 368.384 333.569 368.784 333.169C369.194 332.759 369.394 332.269 369.394 331.699C369.394 331.129 369.184 330.629 368.784 330.229C368.374 329.819 367.884 329.619 367.314 329.619C366.744 329.619 366.244 329.829 365.844 330.229C365.434 330.629 365.234 331.129 365.234 331.699C365.234 332.269 365.444 332.769 365.844 333.169C366.244 333.579 366.744 333.779 367.324 333.779H367.314Z" fill="#333333"/>
<path d="M370.092 328.26C370.662 328.26 371.162 328.05 371.562 327.65C371.972 327.25 372.172 326.75 372.172 326.18C372.172 325.61 371.962 325.11 371.562 324.71C371.152 324.3 370.662 324.1 370.092 324.1C369.522 324.1 369.022 324.31 368.622 324.71C368.212 325.11 368.012 325.61 368.012 326.18C368.012 326.75 368.222 327.25 368.622 327.65C369.022 328.06 369.522 328.26 370.102 328.26H370.092Z" fill="#333333"/>
<path d="M370.645 331.699C370.645 332.269 370.855 332.769 371.255 333.169C371.655 333.579 372.154 333.779 372.734 333.779C373.314 333.779 373.805 333.569 374.205 333.169C374.615 332.759 374.815 332.269 374.815 331.699C374.815 331.129 374.605 330.629 374.205 330.229C373.795 329.819 373.304 329.619 372.734 329.619C372.164 329.619 371.665 329.829 371.265 330.229C370.855 330.629 370.654 331.129 370.654 331.699H370.645Z" fill="#333333"/>
<path d="M13.321 388.539H11.7809L0.770935 416.529L0.710938 416.669H2.34094L5.60092 408.329H18.8709L22.5909 416.669H25.9409L13.3409 388.599L13.3109 388.539H13.321ZM18.1809 406.769H6.24094L11.821 392.539L18.1809 406.769Z" fill="#333333"/>
<path d="M31.1211 388.539V413.579C31.1211 415.339 32.1911 416.679 33.6111 416.679H48.2411V415.039H34.0611V388.549H31.1211V388.539Z" fill="#333333"/>
<path d="M75.8625 400.3C72.3725 398.79 69.0625 397.36 69.0625 394.22C69.0625 391.7 71.7125 389.66 74.9625 389.66C77.0225 389.66 78.8825 390.56 80.0525 392.12C81.1225 393.54 81.4625 395.33 80.9725 397.03L80.9325 397.16H82.2025L82.2225 397.09C82.8325 395.1 82.4325 392.94 81.1225 391.15C79.6725 389.19 77.3425 388.01 74.8925 388.01C69.8325 388.01 66.0125 391.24 66.0125 395.53C66.0125 399.82 69.9725 401.43 73.8025 403.09C77.5825 404.72 81.4925 406.41 81.4925 410.5C81.4925 413.56 79.1225 415.54 75.4525 415.54C70.6725 415.54 66.5725 411.1 66.5725 407.46V407.36H65.3125V407.46C65.3125 411.86 69.8525 417.18 75.4925 417.18C80.5725 417.18 84.5425 413.66 84.5425 409.18C84.5425 404.05 79.9325 402.05 75.8625 400.29V400.3Z" fill="#333333"/>
<path d="M108.07 401.779H94.1705V388.529H91.2305V413.569C91.2305 415.329 92.3005 416.669 93.7205 416.669H94.1705V403.419H108.07V416.669H111.01V388.529H108.07V401.779Z" fill="#333333"/>
<path d="M130.821 416.669H132.371L140.721 393.189V416.669H143.671V388.539H140.751L132.291 412.299L122.211 388.599L122.181 388.539H118.961V416.669H120.431V392.139L130.801 416.609L130.821 416.669Z" fill="#333333"/>
<path d="M162.733 417.19C170.123 417.19 175.083 411.33 175.083 402.6C175.083 393.87 170.123 388.01 162.733 388.01C155.343 388.01 150.383 393.87 150.383 402.6C150.383 411.33 155.343 417.19 162.733 417.19ZM162.733 389.66C168.363 389.66 172.143 394.86 172.143 402.6C172.143 410.34 168.363 415.54 162.733 415.54C157.103 415.54 153.323 410.34 153.323 402.6C153.323 394.86 157.103 389.66 162.733 389.66Z" fill="#333333"/>
<path d="M199.501 413.229C201.211 410.649 202.111 406.979 202.111 402.609V388.539H200.601V402.609C200.601 410.419 197.611 415.469 192.981 415.469C188.051 415.469 184.731 410.299 184.731 402.609V388.539H181.781V402.609C181.781 411.329 186.041 417.199 192.381 417.199C195.311 417.199 197.761 415.829 199.491 413.229H199.501Z" fill="#333333"/>
<path d="M210.062 388.539V413.579C210.062 415.339 211.132 416.679 212.552 416.679H227.193V415.039H213.013V388.549H210.073L210.062 388.539Z" fill="#333333"/>
<path d="M262.301 401.779H248.401V388.529H245.461V413.569C245.461 415.329 246.531 416.669 247.951 416.669H248.401V403.419H262.301V416.669H265.241V388.529H262.301V401.779Z" fill="#333333"/>
<path d="M284.342 388.02C276.952 388.02 271.992 393.88 271.992 402.61C271.992 411.34 276.952 417.2 284.342 417.2C291.732 417.2 296.692 411.34 296.692 402.61C296.692 393.88 291.732 388.02 284.342 388.02ZM284.342 415.55C278.712 415.55 274.932 410.35 274.932 402.61C274.932 394.87 278.712 389.67 284.342 389.67C289.972 389.67 293.752 394.87 293.752 402.61C293.752 410.35 289.972 415.55 284.342 415.55Z" fill="#333333"/>
<path d="M306.35 388.539H303.41V413.579C303.41 415.339 304.48 416.679 305.9 416.679H320.53V415.039H306.35V388.549V388.539Z" fill="#333333"/>
<path d="M336.23 388.539H327.25V413.579C327.25 415.339 328.32 416.679 329.74 416.679H336.23C343.91 416.679 349.07 411.029 349.07 402.609C349.07 394.189 343.91 388.539 336.23 388.539ZM336.23 415.069H330.19V390.139H336.23C342.24 390.139 346.13 395.019 346.13 402.559C346.13 410.099 342.24 415.059 336.23 415.059V415.069Z" fill="#333333"/>
<path d="M358.702 410.549V388.539H355.762V410.549C355.762 412.999 356.812 415.399 358.432 416.659L358.462 416.679H358.782V416.569C358.712 414.779 358.712 412.909 358.712 410.549H358.702Z" fill="#333333"/>
<path d="M385.982 411.209L370.402 388.579L370.372 388.539H366.742V416.669H368.212V390.809L385.992 416.629L386.022 416.669H387.372V388.539H385.982V411.209Z" fill="#333333"/>
<path d="M406.65 403.55H416.86C416.47 410.73 412.52 415.55 407 415.55C401.08 415.55 397.1 410.35 397.1 402.61C397.1 394.87 401.02 389.75 406.86 389.75C411.72 389.75 415.61 392.84 416.76 397.61L416.78 397.69H418.26L418.23 397.56C416.85 391.68 412.3 388.02 406.37 388.02C399.07 388.02 394.16 393.88 394.16 402.61C394.16 411.34 399.32 417.2 407.01 417.2C414.26 417.2 419.39 411.72 419.81 403.55H421.43V402.07H406.66V403.55H406.65Z" fill="#333333"/>
<path d="M84.0261 319.246C84.0326 320.436 84.0261 321.625 84.0195 322.793C84.0261 321.603 84.0326 320.436 84.0261 319.246Z" fill="url(#paint1_linear_647_654)"/>
<defs>
<linearGradient id="paint0_linear_647_654" x1="200.645" y1="285.196" x2="214.551" y2="103.053" gradientUnits="userSpaceOnUse">
<stop stop-color="#946642"/>
<stop offset="1" stop-color="#D19458"/>
</linearGradient>
<linearGradient id="paint1_linear_647_654" x1="81.7837" y1="419.877" x2="146.002" y2="170.259" gradientUnits="userSpaceOnUse">
<stop stop-color="#946642"/>
<stop offset="1" stop-color="#D19459"/>
</linearGradient>
</defs>
</svg>
