<svg width="645" height="196" viewBox="0 0 645 196" fill="none" xmlns="http://www.w3.org/2000/svg">
<path d="M195.108 85.7798C193.848 75.3398 190.898 65.0698 186.268 55.4198C181.148 44.6198 174.058 34.7498 165.158 26.5798C171.148 32.0998 176.318 38.3898 180.608 45.2198C176.348 38.5298 171.198 32.2598 165.158 26.5798C159.138 20.9198 152.578 16.1698 145.668 12.3298C152.718 16.1898 159.298 20.9598 165.158 26.5798C156.448 18.1798 146.148 11.6998 135.038 7.24981C125.118 3.22981 114.678 0.919811 104.168 0.299811C88.5478 -0.690189 72.7078 1.97981 58.3478 8.56981C-5.08219 36.9498 -19.2822 121.21 31.3478 168.83C81.9678 216.46 165.208 197.14 189.658 132.09C195.368 117.34 197.058 101.33 195.108 85.7798ZM2.10779 98.3698C2.10779 98.1698 2.10779 97.9598 2.10779 97.7598C2.10779 97.2898 2.10779 96.8198 2.10779 96.3498C2.10779 96.0398 2.1078 95.7398 2.1178 95.4298C2.1178 95.1798 2.12782 94.9298 2.13782 94.6898C2.64782 77.9598 7.5678 61.3798 16.3978 47.1498C19.6478 41.9098 23.4178 36.9898 27.5978 32.4698C38.3278 42.6198 90.2878 91.8898 99.6278 100.65C100.838 101.79 103.898 104.6 104.868 105.88C116.368 119.28 117.618 138.97 108.758 154.1C100.318 168.94 84.1378 176.91 67.2278 174.68C57.4278 173.5 47.5978 171.19 38.7778 166.66C29.9778 162.11 22.2478 155.45 16.5278 147.35C12.7578 141.87 9.79779 135.89 7.57779 129.63C7.37779 129.05 7.16782 128.47 6.97782 127.88C6.96782 127.85 6.95782 127.81 6.94782 127.78C6.74782 127.19 6.56781 126.59 6.37781 125.99C6.29781 125.74 6.22781 125.5 6.15781 125.25C6.07781 124.98 5.9978 124.72 5.9278 124.45C3.8378 117.19 2.6578 109.65 2.2378 102.15C2.4178 105.66 2.76782 109.16 3.28782 112.63C2.65782 108.64 2.27781 104.59 2.15781 100.5C2.13781 99.7898 2.1278 99.0798 2.1178 98.3698H2.10779ZM121.328 136.97C121.348 137.54 121.358 138.1 121.358 138.67C121.358 139.11 121.338 139.56 121.318 140C121.258 141.46 121.128 142.9 120.928 144.33C120.948 144.17 120.978 144 120.998 143.84C120.918 144.44 120.828 145.03 120.728 145.62C120.738 145.55 120.748 145.47 120.768 145.4C118.188 160.54 107.338 174.3 92.4878 178.89C85.9078 181.04 78.8278 181.21 72.0278 180.12C66.4378 179.28 60.9078 178.01 55.5578 176.2C48.9978 174.01 42.6878 171.09 36.7578 167.55C40.3778 169.27 44.0978 170.77 47.9078 172.02C56.3978 174.69 65.2978 176.63 74.2378 176.54C79.6278 176.42 84.9878 175.25 89.9378 173.14C109.978 164.54 120.908 140.04 113.898 119.39C112.918 116.43 111.618 113.58 110.018 110.9L109.678 110.33C109.488 110.07 109.848 109.74 110.088 109.94C116.868 117.02 120.818 126.62 121.298 136.39C121.298 136.59 121.318 136.78 121.328 136.98V136.97ZM128.028 141.25C128.078 141.74 128.118 142.24 128.148 142.73C128.158 142.92 128.178 143.11 128.188 143.3C128.218 143.85 128.248 144.41 128.258 144.96C128.258 144.47 128.228 143.98 128.198 143.49C128.228 143.97 128.248 144.46 128.258 144.96C128.308 146.94 128.178 148.92 127.908 150.88C128.108 149.46 128.218 148.02 128.248 146.57C127.818 162.04 117.708 176.86 103.618 183.18C97.5478 185.94 90.7978 187 84.1578 186.63C69.5778 185.43 55.2578 180.79 42.7478 173.2C41.1778 172.26 39.6378 171.27 38.1278 170.24C41.5478 172.16 45.0778 173.88 48.7078 175.37C56.4378 178.55 64.5978 180.64 72.8778 181.71C81.1678 182.93 89.8678 181.96 97.4578 178.33C116.228 169.66 126.468 146.56 120.618 126.8C119.588 123.24 118.108 119.82 116.198 116.65C116.078 116.46 116.008 116.28 116.178 116.09C116.318 115.94 116.568 115.92 116.708 116.07C117.018 116.4 117.348 116.73 117.648 117.08C123.608 123.7 127.088 132.3 128.018 141.13C128.018 141.17 128.018 141.21 128.028 141.25ZM127.678 152.32C127.728 152.01 127.788 151.7 127.838 151.39C127.788 151.7 127.738 152.01 127.678 152.32ZM121.308 140.48C121.298 140.78 121.268 141.08 121.248 141.38C121.268 141.08 121.288 140.78 121.308 140.48ZM121.188 142.23C121.148 142.62 121.108 143.01 121.068 143.41C121.118 143.02 121.158 142.63 121.188 142.23ZM120.458 147.13C120.548 146.69 120.638 146.24 120.708 145.8C120.628 146.25 120.548 146.69 120.458 147.13ZM16.3878 147.29C14.5878 144.73 12.9778 142.03 11.5778 139.21C13.0078 142.01 14.6078 144.72 16.3878 147.29ZM17.2478 148.48C17.0178 148.17 16.7878 147.85 16.5578 147.53C16.7778 147.85 17.0178 148.17 17.2478 148.48ZM127.188 135.83C127.188 135.83 127.168 135.73 127.158 135.68C127.168 135.73 127.178 135.78 127.188 135.83ZM126.898 134.58C126.868 134.48 126.848 134.37 126.818 134.27C126.848 134.37 126.878 134.48 126.898 134.58ZM116.568 186.27C108.268 192.13 97.7778 194.82 87.6578 193.25C68.9778 190.57 50.5578 183.34 36.2578 170.89C49.2778 180.06 65.1878 186.11 81.1578 187.84C87.6478 188.61 94.3378 187.99 100.538 185.85C124.478 177.91 136.668 147.71 124.558 125.51L124.418 125.24C124.298 125.04 124.198 124.85 124.448 124.73C124.568 124.69 124.658 124.71 124.758 124.87L125.108 125.36C129.308 131.29 132.288 138.1 133.748 145.22C134.378 148.38 134.848 151.62 134.738 154.85C134.368 164.63 129.378 173.71 122.838 180.77C124.458 179.03 125.988 177.17 127.368 175.21C125.988 177.18 124.458 179.04 122.838 180.77C120.898 182.83 118.798 184.67 116.568 186.28V186.27ZM110.588 189.83C110.468 189.89 110.348 189.95 110.228 190C110.348 189.94 110.468 189.88 110.588 189.83ZM128.108 174.13C127.958 174.35 127.808 174.57 127.658 174.8C127.808 174.58 127.958 174.36 128.108 174.13ZM73.0678 71.4698C68.4878 66.2998 65.1378 60.0098 63.6278 53.2598C59.3778 35.2098 68.6078 14.9898 85.0878 6.45981C92.2178 2.67981 100.498 1.31981 108.498 2.13981C187.068 10.9298 222.188 104.15 169.258 162.81L165.338 159.13C167.008 160.7 168.338 161.95 169.258 162.81C158.458 152.43 81.8778 80.3798 73.0678 71.4698ZM181.118 46.0298C181.118 46.0298 181.058 45.9398 181.028 45.8898C181.058 45.9398 181.088 45.9798 181.118 46.0298Z" fill="url(#paint0_linear_647_654)"/>
<path d="M421.154 90.5901H418.944C418.614 90.5901 418.344 90.8601 418.344 91.1901V120.26C418.344 122.81 419.474 125.65 421.084 127.17L421.184 127.26H421.854L421.834 126.9C421.744 124.91 421.744 122.96 421.744 120.25V91.1801C421.744 90.8501 421.474 90.5801 421.144 90.5801L421.154 90.5901Z" fill="#333333"/>
<path d="M300.073 127.2H300.893C301.253 127.2 301.633 127.18 301.983 127.14H308.593C308.593 127.14 308.663 127.14 308.723 127.14H316.293L316.633 127.11H332.443C333.933 127.11 335.093 125.77 335.093 124.05V105.05C335.093 104.79 334.923 104.56 334.673 104.48C334.423 104.4 334.153 104.49 334.003 104.71L333.503 105.42C332.313 107.14 331.683 109.15 331.683 111.25V125.92L305.943 125.95C309.503 124.07 311.783 120.32 311.783 116.28V115.11C311.783 109.12 306.923 104.22 300.873 104.18H266.163V99.63C266.163 99.37 265.993 99.14 265.743 99.06C265.493 98.98 265.223 99.07 265.073 99.29L264.573 100.01C263.383 101.73 262.743 103.75 262.743 105.85V125.92L262.683 125.98H254.353V125.94H247.763C246.163 125.94 244.853 124.64 244.853 123.03V105.86C244.853 104.8 244.123 103.97 243.203 103.97H233.573C227.863 103.97 223.883 110.3 223.883 115.98C223.883 121.66 227.593 127.19 233.573 127.19H264.573C265.253 127.18 265.883 126.78 266.163 126.16C266.803 126.78 267.673 127.13 268.553 127.13H300.053V127.19L300.073 127.2ZM300.733 126.28L300.673 125.94L268.583 125.96C267.503 125.96 266.563 125.18 266.353 124.12V106.08L300.083 106.12H300.423C304.623 106.12 308.043 109.55 308.043 113.75V118.57C308.043 119.03 308.003 119.5 307.913 119.97C307.073 123.35 304.183 125.75 300.723 125.94L300.743 126.28H300.733ZM241.513 125.9H234.403C229.793 125.9 226.933 120.77 226.933 116.01C226.933 110.93 230.003 105.27 234.403 105.27H241.513V125.9Z" fill="#333333"/>
<path d="M414.983 124.2V91.1898C414.983 90.8598 414.713 90.5898 414.383 90.5898H412.173C411.843 90.5898 411.573 90.8598 411.573 91.1898V126.08H391.793C393.483 125.11 394.843 123.62 395.763 121.7L396.453 119.86C396.823 118.58 397.003 117.18 397.003 115.72C397.003 109.17 393.403 104.65 387.803 104.13V104.08H386.143L385.803 104.11V104.14C380.203 104.66 376.603 109.18 376.603 115.73C376.603 117.2 376.793 118.59 377.183 119.94L378.013 122.04C378.903 123.78 380.223 125.17 381.833 126.09H352.113V91.2099C352.113 90.8799 351.843 90.6099 351.513 90.6099H349.303C348.973 90.6099 348.703 90.8799 348.703 91.2099V124.22C348.703 125.94 349.873 127.28 351.353 127.28H412.333C413.823 127.28 414.983 125.94 414.983 124.22V124.2ZM379.203 115.75C379.203 109.76 382.193 105.86 386.813 105.82C391.433 105.86 394.423 109.76 394.423 115.75C394.423 121.74 391.433 125.58 386.813 125.62C382.193 125.58 379.203 121.7 379.203 115.75Z" fill="#333333"/>
<path d="M231.174 96.1398C230.834 96.5098 230.634 96.9898 230.614 97.4998C230.594 98.1498 230.834 98.7298 231.314 99.1698C231.684 99.5098 232.164 99.7098 232.664 99.7198C232.694 99.7198 232.724 99.7198 232.754 99.7198C233.374 99.7198 233.924 99.4798 234.344 99.0098C234.674 98.6398 234.874 98.1698 234.894 97.6698C234.914 97.0198 234.674 96.4398 234.194 95.9898C233.824 95.6598 233.354 95.4598 232.854 95.4398C232.204 95.4298 231.634 95.6498 231.194 96.1298L231.174 96.1398Z" fill="#333333"/>
<path d="M238.391 96.1498C238.051 96.5198 237.851 96.9998 237.841 97.4998C237.821 98.1498 238.061 98.7298 238.541 99.1698C238.911 99.5098 239.391 99.6998 239.881 99.7198C239.881 99.7198 239.941 99.7198 239.971 99.7198C240.591 99.7198 241.141 99.4798 241.561 99.0098C241.891 98.6398 242.091 98.1698 242.111 97.6698C242.131 97.0198 241.891 96.4398 241.401 95.9898C241.031 95.6598 240.561 95.4598 240.061 95.4398C239.421 95.4298 238.831 95.6598 238.391 96.1398V96.1498Z" fill="#333333"/>
<path d="M383.065 99.7198C383.685 99.7198 384.235 99.4798 384.655 99.0098C384.985 98.6398 385.185 98.1698 385.205 97.6698C385.225 97.0198 384.985 96.4398 384.495 95.9898C384.125 95.6598 383.655 95.4598 383.155 95.4398C382.515 95.4298 381.935 95.6498 381.495 96.1298C381.155 96.4998 380.955 96.9798 380.935 97.4898C380.915 98.1398 381.155 98.7198 381.635 99.1598C382.005 99.4998 382.485 99.6998 382.985 99.7098C383.015 99.7098 383.045 99.7098 383.075 99.7098L383.065 99.7198Z" fill="#333333"/>
<path d="M390.201 99.7198C390.201 99.7198 390.261 99.7198 390.291 99.7198C390.911 99.7198 391.461 99.4798 391.881 99.0098C392.211 98.6398 392.411 98.1698 392.431 97.6698C392.451 97.0198 392.211 96.4398 391.721 95.9898C391.351 95.6598 390.881 95.4598 390.381 95.4398C389.741 95.4298 389.151 95.6598 388.711 96.1398C388.371 96.5098 388.171 96.9898 388.161 97.4898C388.141 98.1398 388.381 98.7198 388.861 99.1598C389.231 99.4998 389.701 99.6898 390.201 99.7098V99.7198Z" fill="#333333"/>
<path d="M285.701 99.0897C286.321 99.0897 286.871 98.8498 287.291 98.3798C287.621 98.0098 287.821 97.5398 287.841 97.0398C287.861 96.3798 287.621 95.8098 287.131 95.3598C286.761 95.0298 286.291 94.8297 285.791 94.8097C285.151 94.7897 284.561 95.0298 284.121 95.5098C283.781 95.8798 283.581 96.3598 283.571 96.8598C283.551 97.5098 283.791 98.0897 284.271 98.5297C284.641 98.8697 285.111 99.0598 285.611 99.0798C285.641 99.0798 285.671 99.0798 285.701 99.0798V99.0897Z" fill="#333333"/>
<path d="M332.913 131.471C332.273 131.451 331.683 131.691 331.243 132.171C330.903 132.541 330.703 133.021 330.693 133.521C330.673 134.171 330.913 134.751 331.393 135.191C331.763 135.531 332.233 135.721 332.733 135.741C332.763 135.741 332.793 135.741 332.823 135.741C333.443 135.741 333.993 135.501 334.413 135.031C334.743 134.661 334.943 134.191 334.963 133.691C334.983 133.031 334.743 132.461 334.253 132.011C333.883 131.681 333.413 131.481 332.913 131.461V131.471Z" fill="#333333"/>
<path d="M434.034 125.32C434.524 125.89 435.174 126.37 435.954 126.74C436.654 127.07 437.454 127.26 438.324 127.29H448.054L448.394 127.27C453.904 126.98 457.584 122.32 457.584 115.56V89.9805H454.134V115.74C454.134 121.76 451.204 125.87 446.834 125.96L438.184 126.02C437.294 126.02 436.474 125.72 435.744 125.12C435.364 124.81 435.024 124.48 434.724 124.12C434.394 123.73 433.914 123.51 433.414 123.51H432.824L433.124 124.02C433.414 124.51 433.714 124.95 434.034 125.31V125.32Z" fill="#333333"/>
<path d="M643.923 90.5901H641.713C641.383 90.5901 641.113 90.8601 641.113 91.1901V120.26C641.113 122.81 642.243 125.65 643.853 127.17L643.953 127.26H644.623L644.603 126.9C644.513 124.91 644.513 122.96 644.513 120.25V91.1801C644.513 90.8501 644.243 90.5801 643.913 90.5801L643.923 90.5901Z" fill="#333333"/>
<path d="M636.595 90.5918H634.385C634.055 90.5918 633.785 90.8618 633.785 91.1918V126.082H610.455V116.412C610.455 116.252 610.475 116.092 610.475 115.922V104.312H607.095V115.922C607.095 122.112 604.625 126.262 600.945 126.262C597.265 126.262 594.795 121.742 594.795 115.022V104.312H591.405V115.922C591.405 122.112 588.935 126.262 585.255 126.262C581.575 126.262 579.105 121.742 579.105 115.022V111.282C579.105 108.742 577.985 105.922 576.385 104.412L576.285 104.322H575.615L575.635 104.682C575.725 106.662 575.725 108.602 575.725 111.292V125.992L547.135 126.032C546.245 126.032 545.425 125.732 544.695 125.142C544.065 124.632 543.225 123.792 542.735 122.702C542.545 122.272 542.365 121.592 542.435 119.792C542.795 118.512 542.985 117.132 542.985 115.672C542.985 109.122 539.385 104.602 533.785 104.082V104.032H532.125L531.785 104.062V104.092C526.185 104.612 522.585 109.132 522.585 115.682C522.585 117.142 522.775 118.532 523.135 119.812C523.215 121.602 523.025 122.282 522.835 122.712C522.355 123.802 521.505 124.642 520.875 125.152C520.145 125.742 519.325 126.042 518.435 126.042H486.135C485.245 126.042 484.425 125.742 483.695 125.152C483.065 124.642 482.055 123.802 481.575 122.712C481.385 122.282 481.495 117.672 481.495 117.672V105.842C481.495 104.782 480.685 103.952 479.755 103.952H470.905C465.195 103.952 461.215 110.282 461.215 115.962C461.215 121.642 464.925 127.172 470.905 127.172H478.815V143.452L479.395 142.852C480.685 141.532 481.395 139.782 481.395 137.942V124.592C481.585 124.862 481.775 125.112 481.975 125.342C482.465 125.912 483.115 126.392 483.895 126.762C484.595 127.092 485.395 127.282 486.265 127.312H518.475C519.335 127.282 520.125 127.092 520.835 126.762C521.615 126.392 522.265 125.912 522.755 125.342C523.235 124.792 523.665 124.132 524.025 123.372C524.075 123.282 524.175 123.002 524.325 122.622C525.955 125.332 528.565 126.972 531.765 127.272V127.322H533.425L533.765 127.292V127.262C537.065 126.952 539.725 125.242 541.335 122.402C541.515 122.942 541.635 123.272 541.685 123.372C542.055 124.122 542.485 124.792 542.955 125.342C543.445 125.912 544.095 126.392 544.875 126.762C545.575 127.092 546.375 127.282 547.245 127.312L579.075 127.332V123.382C580.505 126.462 582.865 128.132 585.855 128.132C589.695 128.132 592.675 125.602 594.005 121.282C595.275 125.652 597.975 128.132 601.535 128.132C605.095 128.132 607.765 126.012 609.235 122.502V127.262H609.355L634.505 127.272C635.995 127.272 637.155 125.932 637.155 124.212V91.2018C637.155 90.8718 636.885 90.6018 636.555 90.6018L636.595 90.5918ZM478.825 125.852H471.715C467.105 125.852 464.245 120.722 464.245 115.962C464.245 110.882 467.315 105.222 471.715 105.222H478.825V125.852ZM532.785 125.552C528.165 125.502 525.175 121.632 525.175 115.682C525.175 109.732 528.165 105.792 532.785 105.752C537.405 105.802 540.395 109.692 540.395 115.682C540.395 121.672 537.405 125.502 532.785 125.552Z" fill="#333333"/>
<path d="M590.506 98.9706C591.076 98.9706 591.576 98.7606 591.976 98.3606C592.386 97.9506 592.586 97.4606 592.586 96.8906C592.586 96.3206 592.376 95.8206 591.976 95.4206C591.566 95.0106 591.076 94.8105 590.506 94.8105C589.936 94.8105 589.436 95.0206 589.036 95.4206C588.626 95.8206 588.426 96.3206 588.426 96.8906C588.426 97.4606 588.636 97.9606 589.036 98.3606C589.436 98.7706 589.936 98.9706 590.516 98.9706H590.506Z" fill="#333333"/>
<path d="M593.283 93.451C593.853 93.451 594.353 93.241 594.753 92.841C595.163 92.441 595.363 91.941 595.363 91.371C595.363 90.801 595.153 90.301 594.753 89.901C594.343 89.491 593.853 89.291 593.283 89.291C592.713 89.291 592.213 89.501 591.813 89.901C591.403 90.301 591.203 90.801 591.203 91.371C591.203 91.941 591.413 92.441 591.813 92.841C592.213 93.251 592.713 93.451 593.293 93.451H593.283Z" fill="#333333"/>
<path d="M593.836 96.8906C593.836 97.4606 594.046 97.9606 594.446 98.3606C594.846 98.7706 595.346 98.9706 595.926 98.9706C596.506 98.9706 596.996 98.7606 597.396 98.3606C597.806 97.9506 598.006 97.4606 598.006 96.8906C598.006 96.3206 597.796 95.8206 597.396 95.4206C596.986 95.0106 596.496 94.8105 595.926 94.8105C595.356 94.8105 594.856 95.0206 594.456 95.4206C594.046 95.8206 593.846 96.3206 593.846 96.8906H593.836Z" fill="#333333"/>
<path d="M236.512 153.73H234.972L223.962 181.72L223.902 181.86H225.532L228.792 173.52H242.062L245.782 181.86H249.132L236.532 153.79L236.502 153.73H236.512ZM241.372 171.96H229.432L235.012 157.73L241.372 171.96Z" fill="#333333"/>
<path d="M254.312 153.73V178.77C254.312 180.53 255.382 181.87 256.802 181.87H271.432V180.23H257.253V153.74H254.312V153.73Z" fill="#333333"/>
<path d="M299.054 165.491C295.564 163.981 292.254 162.551 292.254 159.411C292.254 156.891 294.904 154.851 298.154 154.851C300.214 154.851 302.074 155.751 303.244 157.311C304.314 158.731 304.654 160.521 304.164 162.221L304.124 162.351H305.394L305.414 162.281C306.024 160.291 305.624 158.131 304.314 156.341C302.864 154.381 300.534 153.201 298.084 153.201C293.024 153.201 289.204 156.431 289.204 160.721C289.204 165.011 293.164 166.621 296.994 168.281C300.774 169.911 304.684 171.601 304.684 175.691C304.684 178.751 302.314 180.731 298.644 180.731C293.864 180.731 289.764 176.291 289.764 172.651V172.551H288.504V172.651C288.504 177.051 293.044 182.371 298.684 182.371C303.764 182.371 307.734 178.851 307.734 174.371C307.734 169.241 303.124 167.241 299.054 165.481V165.491Z" fill="#333333"/>
<path d="M331.262 166.971H317.362V153.721H314.422V178.761C314.422 180.521 315.492 181.861 316.912 181.861H317.362V168.611H331.262V181.861H334.202V153.721H331.262V166.971Z" fill="#333333"/>
<path d="M354.012 181.86H355.562L363.912 158.38V181.86H366.862V153.73H363.942L355.482 177.49L345.402 153.79L345.372 153.73H342.152V181.86H343.622V157.33L353.992 181.8L354.012 181.86Z" fill="#333333"/>
<path d="M385.924 182.381C393.314 182.381 398.274 176.521 398.274 167.791C398.274 159.061 393.314 153.201 385.924 153.201C378.534 153.201 373.574 159.061 373.574 167.791C373.574 176.521 378.534 182.381 385.924 182.381ZM385.924 154.851C391.554 154.851 395.334 160.051 395.334 167.791C395.334 175.531 391.554 180.731 385.924 180.731C380.294 180.731 376.514 175.531 376.514 167.791C376.514 160.051 380.294 154.851 385.924 154.851Z" fill="#333333"/>
<path d="M422.693 178.42C424.403 175.84 425.303 172.17 425.303 167.8V153.73H423.793V167.8C423.793 175.61 420.803 180.66 416.173 180.66C411.243 180.66 407.923 175.49 407.923 167.8V153.73H404.973V167.8C404.973 176.52 409.233 182.39 415.573 182.39C418.503 182.39 420.953 181.02 422.683 178.42H422.693Z" fill="#333333"/>
<path d="M433.254 153.73V178.77C433.254 180.53 434.324 181.87 435.744 181.87H450.384V180.23H436.204V153.74H433.264L433.254 153.73Z" fill="#333333"/>
<path d="M485.492 166.971H471.592V153.721H468.652V178.761C468.652 180.521 469.722 181.861 471.142 181.861H471.592V168.611H485.492V181.861H488.432V153.721H485.492V166.971Z" fill="#333333"/>
<path d="M507.534 153.211C500.144 153.211 495.184 159.071 495.184 167.801C495.184 176.531 500.144 182.391 507.534 182.391C514.924 182.391 519.884 176.531 519.884 167.801C519.884 159.071 514.924 153.211 507.534 153.211ZM507.534 180.741C501.904 180.741 498.124 175.541 498.124 167.801C498.124 160.061 501.904 154.861 507.534 154.861C513.164 154.861 516.944 160.061 516.944 167.801C516.944 175.541 513.164 180.741 507.534 180.741Z" fill="#333333"/>
<path d="M529.542 153.73H526.602V178.77C526.602 180.53 527.672 181.87 529.092 181.87H543.722V180.23H529.542V153.74V153.73Z" fill="#333333"/>
<path d="M559.421 153.73H550.441V178.77C550.441 180.53 551.511 181.87 552.931 181.87H559.421C567.101 181.87 572.261 176.22 572.261 167.8C572.261 159.38 567.101 153.73 559.421 153.73ZM559.421 180.26H553.381V155.33H559.421C565.431 155.33 569.321 160.21 569.321 167.75C569.321 175.29 565.431 180.25 559.421 180.25V180.26Z" fill="#333333"/>
<path d="M581.893 175.74V153.73H578.953V175.74C578.953 178.19 580.003 180.59 581.623 181.85L581.653 181.87H581.973V181.76C581.903 179.97 581.903 178.1 581.903 175.74H581.893Z" fill="#333333"/>
<path d="M609.174 176.4L593.594 153.77L593.564 153.73H589.934V181.86H591.404V156L609.184 181.82L609.214 181.86H610.564V153.73H609.174V176.4Z" fill="#333333"/>
<path d="M629.842 168.741H640.052C639.662 175.921 635.712 180.741 630.192 180.741C624.272 180.741 620.292 175.541 620.292 167.801C620.292 160.061 624.212 154.941 630.052 154.941C634.912 154.941 638.802 158.031 639.952 162.801L639.972 162.881H641.452L641.422 162.751C640.042 156.871 635.492 153.211 629.562 153.211C622.262 153.211 617.352 159.071 617.352 167.801C617.352 176.531 622.512 182.391 630.202 182.391C637.452 182.391 642.582 176.911 643.002 168.741H644.622V167.261H629.852V168.741H629.842Z" fill="#333333"/>
<path d="M128.233 144.971C128.243 145.511 128.233 146.051 128.223 146.581C128.233 146.041 128.243 145.511 128.233 144.971Z" fill="url(#paint1_linear_647_654)"/>
<defs>
<linearGradient id="paint0_linear_647_654" x1="91.4178" y1="188.1" x2="100.588" y2="67.9898" gradientUnits="userSpaceOnUse">
<stop stop-color="#946642"/>
<stop offset="1" stop-color="#D19458"/>
</linearGradient>
<linearGradient id="paint1_linear_647_654" x1="124.801" y1="190.65" x2="133.966" y2="70.5406" gradientUnits="userSpaceOnUse">
<stop stop-color="#946642"/>
<stop offset="1" stop-color="#D19459"/>
</linearGradient>
</defs>
</svg>
